<?xml version="1.0" encoding="UTF-8" standalone="no"?><!DOCTYPE svg PUBLIC "-//W3C//DTD SVG 1.1//EN" "http://www.w3.org/Graphics/SVG/1.1/DTD/svg11.dtd"><svg width="100%" height="100%" viewBox="0 0 512 513" version="1.1" xmlns="http://www.w3.org/2000/svg" xmlns:xlink="http://www.w3.org/1999/xlink" xml:space="preserve"  style="fill-rule:evenodd;clip-rule:evenodd;stroke-linejoin:round;stroke-miterlimit:2;"><rect id="_512px" serif:id="512px" x="0" y="0.448" width="512" height="512" style="fill:none;"/><clipPath id="_clip1"><rect x="0" y="0.448" width="512" height="512"/></clipPath><g clip-path="url(#_clip1)"><path d="M253.982,279.317l-45.435,-45.434c-2.273,-2.273 -5.5,-3.315 -8.673,-2.8c-3.172,0.515 -5.904,2.523 -7.342,5.399c-8.573,17.145 -29.867,59.734 -41.587,83.173c-1.925,3.85 -1.17,8.5 1.874,11.543c3.043,3.044 7.693,3.798 11.543,1.873l90.547,-45.273c0.051,-0.024 0.101,-0.049 0.151,-0.076l132.031,-66.015c2.875,-1.438 4.883,-4.17 5.398,-7.342c0.515,-3.173 -0.527,-6.4 -2.8,-8.673c-17.381,-17.382 -67.92,-67.921 -78.395,-78.396c-1.572,-1.572 -3.387,-2.88 -5.375,-3.874c0,0 0,0 0,0c-12.35,-6.175 -27.266,-3.754 -37.029,6.009c-0.019,0.019 -0.038,0.037 -0.056,0.056c-9.797,9.796 -12.225,24.762 -6.03,37.154c0,0 1.175,2.35 1.175,2.35c0,-0 22.449,45.023 22.449,45.023l1.66,3.299c4.437,8.822 2.719,19.495 -4.264,26.478c-0,-0 -0,-0 -0,0c-8.96,8.96 -22.648,11.181 -33.981,5.514c-0,0 -0.876,-0.437 -0.876,-0.437c-1.18,-0.591 -2.257,-1.367 -3.19,-2.3c-0,-0 -33.191,-33.191 -33.191,-33.191c-0.375,-0.375 -0.586,-0.884 -0.586,-1.414c0,-0 0,-211.515 0,-211.515c0,-2.209 -1.791,-4 -4,-4c-2.209,0 -4,1.791 -4,4l0,211.515c0,2.652 1.054,5.196 2.929,7.071l33.191,33.191c1.541,1.541 3.32,2.823 5.27,3.798c0.273,0.137 0.565,0.283 0.875,0.438c14.413,7.206 31.821,4.381 43.216,-7.013c-0,-0 -0,-0 -0,-0c9.422,-9.423 11.742,-23.826 5.754,-35.73c-0,-0 -1.651,-3.28 -1.651,-3.28l-22.448,-45.023c-0,-0 -0.456,-0.912 -1.176,-2.352c-4.656,-9.311 -2.831,-20.558 4.531,-27.919c-0,-0 0.055,-0.056 0.055,-0.056c7.329,-7.329 18.525,-9.146 27.795,-4.51c0,-0 0,-0 0,-0c1.219,0.609 2.332,1.411 3.296,2.375c10.475,10.475 61.014,61.014 78.396,78.395c0.454,0.455 0.663,1.1 0.56,1.735c-0.103,0.635 -0.505,1.181 -1.08,1.469l-129.531,64.765Zm-7.543,3.771l-43.548,-43.549c-0.455,-0.454 -1.1,-0.662 -1.735,-0.56c-0.635,0.103 -1.181,0.505 -1.469,1.08c-8.572,17.145 -29.867,59.735 -41.586,83.174c-0.385,0.77 -0.234,1.7 0.374,2.308c0.609,0.609 1.539,0.76 2.309,0.375l85.655,-42.828Z" style="fill:#3dffcb;"/></g></svg>