<?xml version="1.0" encoding="UTF-8" standalone="no"?>
<!DOCTYPE svg PUBLIC "-//W3C//DTD SVG 1.1//EN" "http://www.w3.org/Graphics/SVG/1.1/DTD/svg11.dtd">
<svg class="text-primary-900" width="100%" height="100%" viewBox="0 0 154 155" version="1.1" xmlns="http://www.w3.org/2000/svg" xmlns:xlink="http://www.w3.org/1999/xlink" xml:space="preserve" xmlns:serif="http://www.serif.com/" style="fill-rule:evenodd;clip-rule:evenodd;stroke-linejoin:round;stroke-miterlimit:2;">
    <g transform="matrix(4.16667,0,0,4.16667,0,0)">
        <g id="logo">
            <path d="M18.401,17.569C17.849,17.569 17.404,18.016 17.404,18.566C17.404,19.117 17.849,19.563 18.401,19.563C18.951,19.563 19.398,19.117 19.398,18.566C19.398,18.016 18.951,17.569 18.401,17.569Z" style="fill:currentColor;fill-rule:nonzero;"/>
            <path d="M20.916,17.015C20.916,16.464 20.468,16.016 19.917,16.016C19.367,16.016 18.921,16.464 18.921,17.015C18.921,17.564 19.367,18.011 19.917,18.011C20.468,18.011 20.916,17.564 20.916,17.015Z" style="fill:currentColor;fill-rule:nonzero;"/>
            <path d="M20.916,20.12C20.916,19.57 20.468,19.122 19.917,19.122C19.367,19.122 18.921,19.57 18.921,20.12C18.921,20.67 19.367,21.115 19.917,21.115C20.468,21.115 20.916,20.67 20.916,20.12Z" style="fill:currentColor;fill-rule:nonzero;"/>
            <path d="M21.636,17.52C21.087,17.52 20.639,17.967 20.639,18.518C20.639,19.067 21.087,19.514 21.636,19.514C22.187,19.514 22.634,19.067 22.634,18.518C22.634,17.967 22.187,17.52 21.636,17.52Z" style="fill:currentColor;fill-rule:nonzero;"/>
            <path d="M23.512,15.953C22.962,15.953 22.516,16.402 22.516,16.952C22.516,17.501 22.962,17.949 23.512,17.949C24.062,17.949 24.511,17.501 24.511,16.952C24.511,16.402 24.062,15.953 23.512,15.953Z" style="fill:currentColor;fill-rule:nonzero;"/>
            <path d="M23.497,19.155C22.948,19.155 22.5,19.603 22.5,20.157C22.5,20.704 22.948,21.149 23.497,21.149C24.047,21.149 24.495,20.704 24.495,20.157C24.495,19.603 24.047,19.155 23.497,19.155Z" style="fill:currentColor;fill-rule:nonzero;"/>
            <path d="M21.568,22.701C22.119,22.701 22.566,22.251 22.566,21.704C22.566,21.155 22.119,20.706 21.568,20.706C21.018,20.706 20.572,21.155 20.572,21.704C20.572,22.251 21.018,22.701 21.568,22.701Z" style="fill:currentColor;fill-rule:nonzero;"/>
            <path d="M21.011,23.636C21.011,23.085 20.563,22.639 20.012,22.639C19.462,22.639 19.015,23.085 19.015,23.636C19.015,24.185 19.462,24.633 20.012,24.633C20.563,24.633 21.011,24.185 21.011,23.636Z" style="fill:currentColor;fill-rule:nonzero;"/>
            <path d="M18.458,26.752C19.009,26.752 19.458,26.304 19.458,25.754C19.458,25.204 19.009,24.755 18.458,24.755C17.91,24.755 17.463,25.204 17.463,25.754C17.463,26.304 17.91,26.752 18.458,26.752Z" style="fill:currentColor;fill-rule:nonzero;"/>
            <path d="M25.62,17.522C25.069,17.522 24.622,17.971 24.622,18.521C24.622,19.071 25.069,19.518 25.62,19.518C26.169,19.518 26.617,19.071 26.617,18.521C26.617,17.971 26.169,17.522 25.62,17.522Z" style="fill:currentColor;fill-rule:nonzero;"/>
            <path d="M25.516,20.855C24.966,20.855 24.519,21.303 24.519,21.851C24.519,22.402 24.966,22.849 25.516,22.849C26.066,22.849 26.514,22.402 26.514,21.851C26.514,21.303 26.066,20.855 25.516,20.855Z" style="fill:currentColor;fill-rule:nonzero;"/>
            <path d="M27.848,19.353C27.298,19.353 26.852,19.803 26.852,20.351C26.852,20.901 27.298,21.349 27.848,21.349C28.398,21.349 28.846,20.901 28.846,20.351C28.846,19.803 28.398,19.353 27.848,19.353Z" style="fill:currentColor;fill-rule:nonzero;"/>
            <path d="M28.576,23.729C28.576,23.176 28.128,22.73 27.578,22.73C27.029,22.73 26.581,23.176 26.581,23.729C26.581,24.277 27.029,24.723 27.578,24.723C28.128,24.723 28.576,24.277 28.576,23.729Z" style="fill:currentColor;fill-rule:nonzero;"/>
            <path d="M26.16,25.223C26.16,24.673 25.712,24.227 25.162,24.227C24.613,24.227 24.165,24.673 24.165,25.223C24.165,25.773 24.613,26.219 25.162,26.219C25.712,26.219 26.16,25.773 26.16,25.223Z" style="fill:currentColor;fill-rule:nonzero;"/>
            <path d="M21.723,26.622C22.273,26.622 22.722,26.174 22.722,25.624C22.722,25.073 22.273,24.625 21.723,24.625C21.174,24.625 20.727,25.073 20.727,25.624C20.727,26.174 21.174,26.622 21.723,26.622Z" style="fill:currentColor;fill-rule:nonzero;"/>
            <path d="M20.162,28.955C20.712,28.955 21.161,28.508 21.161,27.958C21.161,27.408 20.712,26.96 20.162,26.96C19.613,26.96 19.166,27.408 19.166,27.958C19.166,28.508 19.613,28.955 20.162,28.955Z" style="fill:currentColor;fill-rule:nonzero;"/>
            <path d="M18.446,31.431C18.999,31.431 19.446,30.986 19.446,30.434C19.446,29.885 18.999,29.436 18.446,29.436C17.897,29.436 17.451,29.885 17.451,30.434C17.451,30.986 17.897,31.431 18.446,31.431Z" style="fill:currentColor;fill-rule:nonzero;"/>
            <path d="M24.292,23.407C24.292,22.857 23.844,22.41 23.293,22.41C22.744,22.41 22.297,22.857 22.297,23.407C22.297,23.956 22.744,24.404 23.293,24.404C23.844,24.404 24.292,23.956 24.292,23.407Z" style="fill:currentColor;fill-rule:nonzero;"/>
            <path d="M30.185,21.178C29.635,21.178 29.188,21.625 29.188,22.173C29.188,22.724 29.635,23.17 30.185,23.17C30.736,23.17 31.183,22.724 31.183,22.173C31.183,21.625 30.736,21.178 30.185,21.178Z" style="fill:currentColor;fill-rule:nonzero;"/>
            <path d="M29.814,24.771C29.264,24.771 28.816,25.218 28.816,25.77C28.816,26.317 29.264,26.765 29.814,26.765C30.363,26.765 30.81,26.317 30.81,25.77C30.81,25.218 30.363,24.771 29.814,24.771Z" style="fill:currentColor;fill-rule:nonzero;"/>
            <path d="M32.268,26.915C31.717,26.915 31.271,27.364 31.271,27.914C31.271,28.464 31.717,28.911 32.268,28.911C32.818,28.911 33.267,28.464 33.267,27.914C33.267,27.364 32.818,26.915 32.268,26.915Z" style="fill:currentColor;fill-rule:nonzero;"/>
            <path d="M29.242,28.321C28.693,28.321 28.245,28.768 28.245,29.319C28.245,29.87 28.693,30.316 29.242,30.316C29.793,30.316 30.24,29.87 30.24,29.319C30.24,28.768 29.793,28.321 29.242,28.321Z" style="fill:currentColor;fill-rule:nonzero;"/>
            <path d="M28.152,27.269C28.152,26.72 27.705,26.27 27.155,26.27C26.605,26.27 26.158,26.72 26.158,27.269C26.158,27.82 26.605,28.266 27.155,28.266C27.705,28.266 28.152,27.82 28.152,27.269Z" style="fill:currentColor;fill-rule:nonzero;"/>
            <path d="M25.671,30.922C26.221,30.922 26.669,30.474 26.669,29.925C26.669,29.375 26.221,28.926 25.671,28.926C25.121,28.926 24.674,29.375 24.674,29.925C24.674,30.474 25.121,30.922 25.671,30.922Z" style="fill:currentColor;fill-rule:nonzero;"/>
            <path d="M22.049,31.297C22.601,31.297 23.047,30.852 23.047,30.3C23.047,29.75 22.601,29.302 22.049,29.302C21.5,29.302 21.054,29.75 21.054,30.3C21.054,30.852 21.5,31.297 22.049,31.297Z" style="fill:currentColor;fill-rule:nonzero;"/>
            <path d="M24.606,27.707C24.606,27.158 24.159,26.709 23.609,26.709C23.058,26.709 22.612,27.158 22.612,27.707C22.612,28.257 23.058,28.703 23.609,28.703C24.159,28.703 24.606,28.257 24.606,27.707Z" style="fill:currentColor;fill-rule:nonzero;"/>
            <path d="M31.565,30.655C31.015,30.655 30.568,31.103 30.568,31.652C30.568,32.203 31.015,32.651 31.565,32.651C32.115,32.651 32.564,32.203 32.564,31.652C32.564,31.103 32.115,30.655 31.565,30.655Z" style="fill:currentColor;fill-rule:nonzero;"/>
            <path d="M27.779,31.376C27.229,31.376 26.782,31.824 26.782,32.374C26.782,32.923 27.229,33.37 27.779,33.37C28.33,33.37 28.778,32.923 28.778,32.374C28.778,31.824 28.33,31.376 27.779,31.376Z" style="fill:currentColor;fill-rule:nonzero;"/>
            <path d="M26.145,34.281C25.596,34.281 25.147,34.728 25.147,35.279C25.147,35.828 25.596,36.275 26.145,36.275C26.694,36.275 27.143,35.828 27.143,35.279C27.143,34.728 26.694,34.281 26.145,34.281Z" style="fill:currentColor;fill-rule:nonzero;"/>
            <path d="M24.014,31.785C23.464,31.785 23.016,32.231 23.016,32.783C23.016,33.331 23.464,33.781 24.014,33.781C24.564,33.781 25.012,33.331 25.012,32.783C25.012,32.231 24.564,31.785 24.014,31.785Z" style="fill:currentColor;fill-rule:nonzero;"/>
            <path d="M22.284,34.781C21.733,34.781 21.287,35.228 21.287,35.78C21.287,36.329 21.733,36.777 22.284,36.777C22.834,36.777 23.282,36.329 23.282,35.78C23.282,35.228 22.834,34.781 22.284,34.781Z" style="fill:currentColor;fill-rule:nonzero;"/>
            <path d="M20.254,32.034C19.704,32.034 19.257,32.484 19.257,33.032C19.257,33.581 19.704,34.03 20.254,34.03C20.804,34.03 21.252,33.581 21.252,33.032C21.252,32.484 20.804,32.034 20.254,32.034Z" style="fill:currentColor;fill-rule:nonzero;"/>
            <path d="M18.462,34.973C17.912,34.973 17.465,35.423 17.465,35.971C17.465,36.523 17.912,36.968 18.462,36.968C19.014,36.968 19.461,36.523 19.461,35.971C19.461,35.423 19.014,34.973 18.462,34.973Z" style="fill:currentColor;fill-rule:nonzero;"/>
            <path d="M16.549,32.034C15.999,32.034 15.552,32.482 15.552,33.032C15.552,33.581 15.999,34.03 16.549,34.03C17.099,34.03 17.548,33.581 17.548,33.032C17.548,32.482 17.099,32.034 16.549,32.034Z" style="fill:currentColor;fill-rule:nonzero;"/>
            <path d="M14.544,34.792C13.995,34.792 13.549,35.24 13.549,35.791C13.549,36.339 13.995,36.788 14.544,36.788C15.095,36.788 15.543,36.339 15.543,35.791C15.543,35.24 15.095,34.792 14.544,34.792Z" style="fill:currentColor;fill-rule:nonzero;"/>
            <path d="M10.786,34.278C10.236,34.278 9.79,34.725 9.79,35.278C9.79,35.826 10.236,36.273 10.786,36.273C11.337,36.273 11.785,35.826 11.785,35.278C11.785,34.725 11.337,34.278 10.786,34.278Z" style="fill:currentColor;fill-rule:nonzero;"/>
            <path d="M32.681,23.13C32.132,23.13 31.685,23.579 31.685,24.129C31.685,24.679 32.132,25.126 32.681,25.126C33.233,25.126 33.679,24.679 33.679,24.129C33.679,23.579 33.233,23.13 32.681,23.13Z" style="fill:currentColor;fill-rule:nonzero;"/>
            <path d="M35.177,25.188C34.628,25.188 34.18,25.636 34.18,26.185C34.18,26.737 34.628,27.184 35.177,27.184C35.729,27.184 36.176,26.737 36.176,26.185C36.176,25.636 35.729,25.188 35.177,25.188Z" style="fill:currentColor;fill-rule:nonzero;"/>
            <path d="M35.681,21.401C35.131,21.401 34.684,21.845 34.684,22.397C34.684,22.947 35.131,23.393 35.681,23.393C36.231,23.393 36.678,22.947 36.678,22.397C36.678,21.845 36.231,21.401 35.681,21.401Z" style="fill:currentColor;fill-rule:nonzero;"/>
            <path d="M32.909,19.419C32.359,19.419 31.913,19.869 31.913,20.417C31.913,20.967 32.359,21.414 32.909,21.414C33.459,21.414 33.908,20.967 33.908,20.417C33.908,19.869 33.459,19.419 32.909,19.419Z" style="fill:currentColor;fill-rule:nonzero;"/>
            <path d="M35.848,17.532C35.297,17.532 34.853,17.98 34.853,18.531C34.853,19.081 35.297,19.527 35.848,19.527C36.398,19.527 36.846,19.081 36.846,18.531C36.846,17.98 36.398,17.532 35.848,17.532Z" style="fill:currentColor;fill-rule:nonzero;"/>
            <path d="M32.907,15.73C32.359,15.73 31.913,16.179 31.913,16.728C31.913,17.278 32.359,17.726 32.907,17.726C33.459,17.726 33.906,17.278 33.906,16.728C33.906,16.179 33.459,15.73 32.907,15.73Z" style="fill:currentColor;fill-rule:nonzero;"/>
            <path d="M34.671,14.677C34.671,15.227 35.118,15.675 35.668,15.675C36.218,15.675 36.666,15.227 36.666,14.677C36.666,14.127 36.218,13.678 35.668,13.678C35.118,13.678 34.671,14.127 34.671,14.677Z" style="fill:currentColor;fill-rule:nonzero;"/>
            <path d="M31.665,12.956C31.665,13.506 32.112,13.953 32.662,13.953C33.213,13.953 33.661,13.506 33.661,12.956C33.661,12.405 33.213,11.957 32.662,11.957C32.112,11.957 31.665,12.405 31.665,12.956Z" style="fill:currentColor;fill-rule:nonzero;"/>
            <path d="M35.175,11.839C35.726,11.839 36.173,11.391 36.173,10.842C36.173,10.29 35.726,9.843 35.175,9.843C34.626,9.843 34.179,10.29 34.179,10.842C34.179,11.391 34.626,11.839 35.175,11.839Z" style="fill:currentColor;fill-rule:nonzero;"/>
            <path d="M31.266,9.21C31.266,9.758 31.712,10.206 32.261,10.206C32.813,10.206 33.26,9.758 33.26,9.21C33.26,8.659 32.813,8.211 32.261,8.211C31.712,8.211 31.266,8.659 31.266,9.21Z" style="fill:currentColor;fill-rule:nonzero;"/>
            <path d="M31.558,6.472C32.108,6.472 32.556,6.025 32.556,5.475C32.556,4.925 32.108,4.478 31.558,4.478C31.007,4.478 30.561,4.925 30.561,5.475C30.561,6.025 31.007,6.472 31.558,6.472Z" style="fill:currentColor;fill-rule:nonzero;"/>
            <path d="M28.264,7.784C28.264,8.333 28.712,8.78 29.261,8.78C29.81,8.78 30.259,8.333 30.259,7.784C30.259,7.234 29.81,6.785 29.261,6.785C28.712,6.785 28.264,7.234 28.264,7.784Z" style="fill:currentColor;fill-rule:nonzero;"/>
            <path d="M27.135,8.843C26.586,8.843 26.139,9.29 26.139,9.841C26.139,10.39 26.586,10.839 27.135,10.839C27.686,10.839 28.134,10.39 28.134,9.841C28.134,9.29 27.686,8.843 27.135,8.843Z" style="fill:currentColor;fill-rule:nonzero;"/>
            <path d="M24.159,11.872C24.159,12.422 24.606,12.87 25.156,12.87C25.707,12.87 26.154,12.422 26.154,11.872C26.154,11.323 25.707,10.874 25.156,10.874C24.606,10.874 24.159,11.323 24.159,11.872Z" style="fill:currentColor;fill-rule:nonzero;"/>
            <path d="M23.622,8.403C23.072,8.403 22.626,8.85 22.626,9.402C22.626,9.952 23.072,10.396 23.622,10.396C24.173,10.396 24.621,9.952 24.621,9.402C24.621,8.85 24.173,8.403 23.622,8.403Z" style="fill:currentColor;fill-rule:nonzero;"/>
            <path d="M22.038,5.824C21.489,5.824 21.041,6.272 21.041,6.822C21.041,7.372 21.489,7.819 22.038,7.819C22.589,7.819 23.035,7.372 23.035,6.822C23.035,6.272 22.589,5.824 22.038,5.824Z" style="fill:currentColor;fill-rule:nonzero;"/>
            <path d="M20.175,8.132C19.626,8.132 19.178,8.579 19.178,9.131C19.178,9.681 19.626,10.128 20.175,10.128C20.724,10.128 21.173,9.681 21.173,9.131C21.173,8.579 20.724,8.132 20.175,8.132Z" style="fill:currentColor;fill-rule:nonzero;"/>
            <path d="M16.627,8.154C16.077,8.154 15.63,8.602 15.63,9.153C15.63,9.703 16.077,10.15 16.627,10.15C17.176,10.15 17.626,9.703 17.626,9.153C17.626,8.602 17.176,8.154 16.627,8.154Z" style="fill:currentColor;fill-rule:nonzero;"/>
            <path d="M15.126,10.495C14.577,10.495 14.129,10.943 14.129,11.494C14.129,12.044 14.577,12.49 15.126,12.49C15.676,12.49 16.124,12.044 16.124,11.494C16.124,10.943 15.676,10.495 15.126,10.495Z" style="fill:currentColor;fill-rule:nonzero;"/>
            <path d="M15.803,13.499C15.803,14.047 16.25,14.494 16.8,14.494C17.35,14.494 17.798,14.047 17.798,13.499C17.798,12.948 17.35,12.5 16.8,12.5C16.25,12.5 15.803,12.948 15.803,13.499Z" style="fill:currentColor;fill-rule:nonzero;"/>
            <path d="M12.566,13.695C12.566,14.246 13.014,14.694 13.564,14.694C14.114,14.694 14.561,14.246 14.561,13.695C14.561,13.145 14.114,12.697 13.564,12.697C13.014,12.697 12.566,13.145 12.566,13.695Z" style="fill:currentColor;fill-rule:nonzero;"/>
            <path d="M11.341,14.263C10.791,14.263 10.344,14.711 10.344,15.261C10.344,15.811 10.791,16.258 11.341,16.258C11.892,16.258 12.338,15.811 12.338,15.261C12.338,14.711 11.892,14.263 11.341,14.263Z" style="fill:currentColor;fill-rule:nonzero;"/>
            <path d="M9.004,17.805C9.554,17.805 10.003,17.357 10.003,16.809C10.003,16.258 9.554,15.81 9.004,15.81C8.454,15.81 8.007,16.258 8.007,16.809C8.007,17.357 8.454,17.805 9.004,17.805Z" style="fill:currentColor;fill-rule:nonzero;"/>
            <path d="M8.259,13.373C8.259,13.92 8.706,14.368 9.256,14.368C9.807,14.368 10.253,13.92 10.253,13.373C10.253,12.821 9.807,12.373 9.256,12.373C8.706,12.373 8.259,12.821 8.259,13.373Z" style="fill:currentColor;fill-rule:nonzero;"/>
            <path d="M5.661,14.923C5.661,15.473 6.108,15.919 6.657,15.919C7.208,15.919 7.656,15.473 7.656,14.923C7.656,14.372 7.208,13.924 6.657,13.924C6.108,13.924 5.661,14.372 5.661,14.923Z" style="fill:currentColor;fill-rule:nonzero;"/>
            <path d="M3.924,17.706C4.475,17.706 4.923,17.258 4.923,16.709C4.923,16.158 4.475,15.711 3.924,15.711C3.375,15.711 2.928,16.158 2.928,16.709C2.928,17.258 3.375,17.706 3.924,17.706Z" style="fill:currentColor;fill-rule:nonzero;"/>
            <path d="M1.166,15.667C1.715,15.667 2.164,15.219 2.164,14.67C2.164,14.119 1.715,13.672 1.166,13.672C0.616,13.672 0.169,14.119 0.169,14.67C0.169,15.219 0.616,15.667 1.166,15.667Z" style="fill:currentColor;fill-rule:nonzero;"/>
            <path d="M4.183,13.961C4.734,13.961 5.181,13.515 5.181,12.966C5.181,12.414 4.734,11.966 4.183,11.966C3.633,11.966 3.187,12.414 3.187,12.966C3.187,13.515 3.633,13.961 4.183,13.961Z" style="fill:currentColor;fill-rule:nonzero;"/>
            <path d="M1.683,9.828C1.133,9.828 0.686,10.275 0.686,10.827C0.686,11.377 1.133,11.823 1.683,11.823C2.231,11.823 2.682,11.377 2.682,10.827C2.682,10.275 2.231,9.828 1.683,9.828Z" style="fill:currentColor;fill-rule:nonzero;"/>
            <path d="M4.617,10.21C5.167,10.21 5.615,9.764 5.615,9.214C5.615,8.662 5.167,8.215 4.617,8.215C4.068,8.215 3.622,8.662 3.622,9.214C3.622,9.764 4.068,10.21 4.617,10.21Z" style="fill:currentColor;fill-rule:nonzero;"/>
            <path d="M7.034,10.31C6.484,10.31 6.037,10.759 6.037,11.31C6.037,11.859 6.484,12.308 7.034,12.308C7.585,12.308 8.032,11.859 8.032,11.31C8.032,10.759 7.585,10.31 7.034,10.31Z" style="fill:currentColor;fill-rule:nonzero;"/>
            <path d="M8.733,9.832C8.733,10.381 9.18,10.829 9.73,10.829C10.28,10.829 10.729,10.381 10.729,9.832C10.729,9.281 10.28,8.833 9.73,8.833C9.18,8.833 8.733,9.281 8.733,9.832Z" style="fill:currentColor;fill-rule:nonzero;"/>
            <path d="M10.684,11.876C10.684,12.424 11.131,12.873 11.68,12.873C12.231,12.873 12.68,12.424 12.68,11.876C12.68,11.326 12.231,10.877 11.68,10.877C11.131,10.877 10.684,11.326 10.684,11.876Z" style="fill:currentColor;fill-rule:nonzero;"/>
            <path d="M6.533,19.513C7.083,19.513 7.53,19.066 7.53,18.518C7.53,17.965 7.083,17.518 6.533,17.518C5.982,17.518 5.536,17.965 5.536,18.518C5.536,19.066 5.982,19.513 6.533,19.513Z" style="fill:currentColor;fill-rule:nonzero;"/>
            <path d="M18.465,10.378C17.915,10.378 17.468,10.825 17.468,11.377C17.468,11.927 17.915,12.373 18.465,12.373C19.015,12.373 19.464,11.927 19.464,11.377C19.464,10.825 19.015,10.378 18.465,10.378Z" style="fill:currentColor;fill-rule:nonzero;"/>
            <path d="M25.665,6.16C25.115,6.16 24.667,6.609 24.667,7.159C24.667,7.709 25.115,8.155 25.665,8.155C26.213,8.155 26.662,7.709 26.662,7.159C26.662,6.609 26.213,6.16 25.665,6.16Z" style="fill:currentColor;fill-rule:nonzero;"/>
            <path d="M26.784,4.703C26.784,5.253 27.231,5.7 27.78,5.7C28.33,5.7 28.778,5.253 28.778,4.703C28.778,4.153 28.33,3.704 27.78,3.704C27.231,3.704 26.784,4.153 26.784,4.703Z" style="fill:currentColor;fill-rule:nonzero;"/>
            <path d="M24.023,5.308C24.573,5.308 25.022,4.861 25.022,4.311C25.022,3.76 24.573,3.312 24.023,3.312C23.473,3.312 23.026,3.76 23.026,4.311C23.026,4.861 23.473,5.308 24.023,5.308Z" style="fill:currentColor;fill-rule:nonzero;"/>
            <path d="M26.151,2.81C26.702,2.81 27.149,2.362 27.149,1.814C27.149,1.262 26.702,0.814 26.151,0.814C25.602,0.814 25.154,1.262 25.154,1.814C25.154,2.362 25.602,2.81 26.151,2.81Z" style="fill:currentColor;fill-rule:nonzero;"/>
            <path d="M22.292,2.322C22.842,2.322 23.288,1.875 23.288,1.325C23.288,0.772 22.842,0.326 22.292,0.326C21.741,0.326 21.294,0.772 21.294,1.325C21.294,1.875 21.741,2.322 22.292,2.322Z" style="fill:currentColor;fill-rule:nonzero;"/>
            <path d="M18.451,2.12C19.002,2.12 19.449,1.673 19.449,1.124C19.449,0.573 19.002,0.124 18.451,0.124C17.902,0.124 17.454,0.573 17.454,1.124C17.454,1.673 17.902,2.12 18.451,2.12Z" style="fill:currentColor;fill-rule:nonzero;"/>
            <path d="M14.538,2.312C15.088,2.312 15.536,1.863 15.536,1.314C15.536,0.762 15.088,0.315 14.538,0.315C13.988,0.315 13.541,0.762 13.541,1.314C13.541,1.863 13.988,2.312 14.538,2.312Z" style="fill:currentColor;fill-rule:nonzero;"/>
            <path d="M10.782,2.819C11.334,2.819 11.781,2.373 11.781,1.822C11.781,1.272 11.334,0.824 10.782,0.824C10.232,0.824 9.786,1.272 9.786,1.822C9.786,2.373 10.232,2.819 10.782,2.819Z" style="fill:currentColor;fill-rule:nonzero;"/>
            <path d="M16.522,5.073C17.072,5.073 17.52,4.624 17.52,4.075C17.52,3.525 17.072,3.077 16.522,3.077C15.972,3.077 15.525,3.525 15.525,4.075C15.525,4.624 15.972,5.073 16.522,5.073Z" style="fill:currentColor;fill-rule:nonzero;"/>
            <path d="M12.824,5.317C13.374,5.317 13.822,4.871 13.822,4.321C13.822,3.771 13.374,3.322 12.824,3.322C12.274,3.322 11.827,3.771 11.827,4.321C11.827,4.871 12.274,5.317 12.824,5.317Z" style="fill:currentColor;fill-rule:nonzero;"/>
            <path d="M11.187,6.174C10.639,6.174 10.191,6.621 10.191,7.171C10.191,7.721 10.639,8.169 11.187,8.169C11.738,8.169 12.186,7.721 12.186,7.171C12.186,6.621 11.738,6.174 11.187,6.174Z" style="fill:currentColor;fill-rule:nonzero;"/>
            <path d="M7.582,8.79C8.131,8.79 8.581,8.342 8.581,7.792C8.581,7.242 8.131,6.793 7.582,6.793C7.032,6.793 6.585,7.242 6.585,7.792C6.585,8.342 7.032,8.79 7.582,8.79Z" style="fill:currentColor;fill-rule:nonzero;"/>
            <path d="M5.474,6.457C6.024,6.457 6.472,6.01 6.472,5.459C6.472,4.91 6.024,4.461 5.474,4.461C4.924,4.461 4.476,4.91 4.476,5.459C4.476,6.01 4.924,6.457 5.474,6.457Z" style="fill:currentColor;fill-rule:nonzero;"/>
            <path d="M9.088,5.714C9.639,5.714 10.087,5.267 10.087,4.716C10.087,4.167 9.639,3.72 9.088,3.72C8.538,3.72 8.091,4.167 8.091,4.716C8.091,5.267 8.538,5.714 9.088,5.714Z" style="fill:currentColor;fill-rule:nonzero;"/>
            <path d="M12.237,9.389C12.237,9.938 12.685,10.384 13.234,10.384C13.785,10.384 14.232,9.938 14.232,9.389C14.232,8.838 13.785,8.39 13.234,8.39C12.685,8.39 12.237,8.838 12.237,9.389Z" style="fill:currentColor;fill-rule:nonzero;"/>
            <path d="M14.779,5.811C14.231,5.811 13.784,6.258 13.784,6.808C13.784,7.359 14.231,7.806 14.779,7.806C15.328,7.806 15.778,7.359 15.778,6.808C15.778,6.258 15.328,5.811 14.779,5.811Z" style="fill:currentColor;fill-rule:nonzero;"/>
            <path d="M20.248,5.071C20.797,5.071 21.246,4.624 21.246,4.075C21.246,3.523 20.797,3.075 20.248,3.075C19.698,3.075 19.25,3.523 19.25,4.075C19.25,4.624 19.698,5.071 20.248,5.071Z" style="fill:currentColor;fill-rule:nonzero;"/>
            <path d="M18.456,5.658C17.907,5.658 17.46,6.105 17.46,6.657C17.46,7.207 17.907,7.654 18.456,7.654C19.007,7.654 19.455,7.207 19.455,6.657C19.455,6.105 19.007,5.658 18.456,5.658Z" style="fill:currentColor;fill-rule:nonzero;"/>
            <path d="M24.257,13.684C24.257,13.133 23.81,12.687 23.259,12.687C22.71,12.687 22.263,13.133 22.263,13.684C22.263,14.234 22.71,14.682 23.259,14.682C23.81,14.682 24.257,14.234 24.257,13.684Z" style="fill:currentColor;fill-rule:nonzero;"/>
            <path d="M21.589,14.406C21.041,14.406 20.594,14.853 20.594,15.405C20.594,15.953 21.041,16.4 21.589,16.4C22.14,16.4 22.589,15.953 22.589,15.405C22.589,14.853 22.14,14.406 21.589,14.406Z" style="fill:currentColor;fill-rule:nonzero;"/>
            <path d="M19.029,13.456C19.029,14.005 19.476,14.452 20.025,14.452C20.577,14.452 21.024,14.005 21.024,13.456C21.024,12.906 20.577,12.456 20.025,12.456C19.476,12.456 19.029,12.906 19.029,13.456Z" style="fill:currentColor;fill-rule:nonzero;"/>
            <path d="M18.449,14.341C17.9,14.341 17.453,14.788 17.453,15.337C17.453,15.887 17.9,16.336 18.449,16.336C19,16.336 19.447,15.887 19.447,15.337C19.447,14.788 19,14.341 18.449,14.341Z" style="fill:currentColor;fill-rule:nonzero;"/>
            <path d="M15.885,17.015C15.885,17.564 16.332,18.011 16.883,18.011C17.432,18.011 17.88,17.564 17.88,17.015C17.88,16.464 17.432,16.016 16.883,16.016C16.332,16.016 15.885,16.464 15.885,17.015Z" style="fill:currentColor;fill-rule:nonzero;"/>
            <path d="M15.286,14.425C14.737,14.425 14.291,14.872 14.291,15.423C14.291,15.972 14.737,16.421 15.286,16.421C15.837,16.421 16.285,15.972 16.285,15.423C16.285,14.872 15.837,14.425 15.286,14.425Z" style="fill:currentColor;fill-rule:nonzero;"/>
            <path d="M15.196,19.533C15.745,19.533 16.196,19.086 16.196,18.536C16.196,17.986 15.745,17.537 15.196,17.537C14.645,17.537 14.198,17.986 14.198,18.536C14.198,19.086 14.645,19.533 15.196,19.533Z" style="fill:currentColor;fill-rule:nonzero;"/>
            <path d="M13.332,17.977C13.881,17.977 14.328,17.53 14.328,16.981C14.328,16.431 13.881,15.981 13.332,15.981C12.782,15.981 12.335,16.431 12.335,16.981C12.335,17.53 12.782,17.977 13.332,17.977Z" style="fill:currentColor;fill-rule:nonzero;"/>
            <path d="M13.339,21.175C13.89,21.175 14.338,20.727 14.338,20.182C14.338,19.629 13.89,19.183 13.339,19.183C12.791,19.183 12.343,19.629 12.343,20.182C12.343,20.727 12.791,21.175 13.339,21.175Z" style="fill:currentColor;fill-rule:nonzero;"/>
            <path d="M11.231,19.511C11.781,19.511 12.23,19.062 12.23,18.513C12.23,17.962 11.781,17.515 11.231,17.515C10.681,17.515 10.234,17.962 10.234,18.513C10.234,19.062 10.681,19.511 11.231,19.511Z" style="fill:currentColor;fill-rule:nonzero;"/>
            <path d="M11.392,22.87C11.941,22.87 12.389,22.422 12.389,21.872C12.389,21.322 11.941,20.873 11.392,20.873C10.84,20.873 10.394,21.322 10.394,21.872C10.394,22.422 10.84,22.87 11.392,22.87Z" style="fill:currentColor;fill-rule:nonzero;"/>
            <path d="M9.006,21.343C9.555,21.343 10.003,20.894 10.003,20.344C10.003,19.795 9.555,19.347 9.006,19.347C8.456,19.347 8.009,19.795 8.009,20.344C8.009,20.894 8.456,21.343 9.006,21.343Z" style="fill:currentColor;fill-rule:nonzero;"/>
            <path d="M9.283,24.761C9.833,24.761 10.281,24.316 10.281,23.767C10.281,23.215 9.833,22.767 9.283,22.767C8.733,22.767 8.285,23.215 8.285,23.767C8.285,24.316 8.733,24.761 9.283,24.761Z" style="fill:currentColor;fill-rule:nonzero;"/>
            <path d="M7.038,26.797C7.587,26.797 8.036,26.349 8.036,25.8C8.036,25.25 7.587,24.8 7.038,24.8C6.488,24.8 6.041,25.25 6.041,25.8C6.041,26.349 6.488,26.797 7.038,26.797Z" style="fill:currentColor;fill-rule:nonzero;"/>
            <path d="M5.164,24.151C5.164,23.599 4.717,23.151 4.166,23.151C3.617,23.151 3.169,23.599 3.169,24.151C3.169,24.7 3.617,25.148 4.166,25.148C4.717,25.148 5.164,24.7 5.164,24.151Z" style="fill:currentColor;fill-rule:nonzero;"/>
            <path d="M2.172,22.419C2.172,21.867 1.723,21.422 1.173,21.422C0.623,21.422 0.176,21.867 0.176,22.419C0.176,22.967 0.623,23.414 1.173,23.414C1.723,23.414 2.172,22.967 2.172,22.419Z" style="fill:currentColor;fill-rule:nonzero;"/>
            <path d="M3.924,21.43C4.475,21.43 4.923,20.982 4.923,20.432C4.923,19.883 4.475,19.434 3.924,19.434C3.375,19.434 2.928,19.883 2.928,20.432C2.928,20.982 3.375,21.43 3.924,21.43Z" style="fill:currentColor;fill-rule:nonzero;"/>
            <path d="M0.996,19.514C1.546,19.514 1.995,19.067 1.995,18.519C1.995,17.969 1.546,17.52 0.996,17.52C0.448,17.52 0,17.969 0,18.519C0,19.067 0.448,19.514 0.996,19.514Z" style="fill:currentColor;fill-rule:nonzero;"/>
            <path d="M6.661,23.161C7.212,23.161 7.661,22.715 7.661,22.164C7.661,21.613 7.212,21.165 6.661,21.165C6.112,21.165 5.665,21.613 5.665,22.164C5.665,22.715 6.112,23.161 6.661,23.161Z" style="fill:currentColor;fill-rule:nonzero;"/>
            <path d="M1.671,25.185C1.122,25.185 0.675,25.633 0.675,26.182C0.675,26.734 1.122,27.18 1.671,27.18C2.222,27.18 2.669,26.734 2.669,26.182C2.669,25.633 2.222,25.185 1.671,25.185Z" style="fill:currentColor;fill-rule:nonzero;"/>
            <path d="M5.583,27.92C5.583,27.371 5.136,26.923 4.584,26.923C4.035,26.923 3.587,27.371 3.587,27.92C3.587,28.471 4.035,28.917 4.584,28.917C5.136,28.917 5.583,28.471 5.583,27.92Z" style="fill:currentColor;fill-rule:nonzero;"/>
            <path d="M17.88,20.12C17.88,19.57 17.432,19.122 16.882,19.122C16.332,19.122 15.885,19.57 15.885,20.12C15.885,20.67 16.332,21.115 16.882,21.115C17.432,21.115 17.88,20.67 17.88,20.12Z" style="fill:currentColor;fill-rule:nonzero;"/>
            <path d="M18.446,22.747C18.997,22.747 19.445,22.301 19.445,21.749C19.445,21.201 18.997,20.751 18.446,20.751C17.896,20.751 17.449,21.201 17.449,21.749C17.449,22.301 17.896,22.747 18.446,22.747Z" style="fill:currentColor;fill-rule:nonzero;"/>
            <path d="M17.789,23.636C17.789,23.085 17.341,22.639 16.791,22.639C16.24,22.639 15.793,23.085 15.793,23.636C15.793,24.185 16.24,24.633 16.791,24.633C17.341,24.633 17.789,24.185 17.789,23.636Z" style="fill:currentColor;fill-rule:nonzero;"/>
            <path d="M15.135,26.622C15.686,26.622 16.133,26.174 16.133,25.624C16.133,25.073 15.686,24.625 15.135,24.625C14.584,24.625 14.139,25.073 14.139,25.624C14.139,26.174 14.584,26.622 15.135,26.622Z" style="fill:currentColor;fill-rule:nonzero;"/>
            <path d="M16.643,28.966C17.193,28.966 17.641,28.519 17.641,27.97C17.641,27.417 17.193,26.969 16.643,26.969C16.094,26.969 15.647,27.417 15.647,27.97C15.647,28.519 16.094,28.966 16.643,28.966Z" style="fill:currentColor;fill-rule:nonzero;"/>
            <path d="M14.794,31.289C15.345,31.289 15.792,30.843 15.792,30.292C15.792,29.742 15.345,29.293 14.794,29.293C14.243,29.293 13.797,29.742 13.797,30.292C13.797,30.843 14.243,31.289 14.794,31.289Z" style="fill:currentColor;fill-rule:nonzero;"/>
            <path d="M11.163,30.913C11.713,30.913 12.162,30.464 12.162,29.915C12.162,29.363 11.713,28.915 11.163,28.915C10.614,28.915 10.166,29.363 10.166,29.915C10.166,30.464 10.614,30.913 11.163,30.913Z" style="fill:currentColor;fill-rule:nonzero;"/>
            <path d="M9.743,28.26C10.293,28.26 10.741,27.812 10.741,27.262C10.741,26.712 10.293,26.264 9.743,26.264C9.193,26.264 8.747,26.712 8.747,27.262C8.747,27.812 9.193,28.26 9.743,28.26Z" style="fill:currentColor;fill-rule:nonzero;"/>
            <path d="M13.232,28.694C13.782,28.694 14.229,28.247 14.229,27.697C14.229,27.149 13.782,26.7 13.232,26.7C12.682,26.7 12.234,27.149 12.234,27.697C12.234,28.247 12.682,28.694 13.232,28.694Z" style="fill:currentColor;fill-rule:nonzero;"/>
            <path d="M12.688,25.214C12.688,24.664 12.238,24.216 11.688,24.216C11.139,24.216 10.691,24.664 10.691,25.214C10.691,25.765 11.139,26.211 11.688,26.211C12.238,26.211 12.688,25.765 12.688,25.214Z" style="fill:currentColor;fill-rule:nonzero;"/>
            <path d="M13.543,24.402C14.094,24.402 14.542,23.955 14.542,23.404C14.542,22.854 14.094,22.406 13.543,22.406C12.994,22.406 12.547,22.854 12.547,23.404C12.547,23.955 12.994,24.402 13.543,24.402Z" style="fill:currentColor;fill-rule:nonzero;"/>
            <path d="M15.284,22.684C15.835,22.684 16.283,22.236 16.283,21.687C16.283,21.137 15.835,20.69 15.284,20.69C14.736,20.69 14.288,21.137 14.288,21.687C14.288,22.236 14.736,22.684 15.284,22.684Z" style="fill:currentColor;fill-rule:nonzero;"/>
            <path d="M8.572,29.321C8.572,28.77 8.123,28.323 7.573,28.323C7.024,28.323 6.577,28.77 6.577,29.321C6.577,29.87 7.024,30.318 7.573,30.318C8.123,30.318 8.572,29.87 8.572,29.321Z" style="fill:currentColor;fill-rule:nonzero;"/>
            <path d="M9.058,31.376C8.51,31.376 8.061,31.824 8.061,32.374C8.061,32.923 8.51,33.372 9.058,33.372C9.608,33.372 10.057,32.923 10.057,32.374C10.057,31.824 9.608,31.376 9.058,31.376Z" style="fill:currentColor;fill-rule:nonzero;"/>
            <path d="M5.448,30.651C4.896,30.651 4.449,31.098 4.449,31.647C4.449,32.2 4.896,32.648 5.448,32.648C5.997,32.648 6.445,32.2 6.445,31.647C6.445,31.098 5.997,30.651 5.448,30.651Z" style="fill:currentColor;fill-rule:nonzero;"/>
            <path d="M12.812,31.787C12.262,31.787 11.815,32.233 11.815,32.784C11.815,33.332 12.262,33.781 12.812,33.781C13.363,33.781 13.811,33.332 13.811,32.784C13.811,32.233 13.363,31.787 12.812,31.787Z" style="fill:currentColor;fill-rule:nonzero;"/>
            <path d="M21.727,10.505C21.178,10.505 20.73,10.954 20.73,11.504C20.73,12.054 21.178,12.5 21.727,12.5C22.277,12.5 22.725,12.054 22.725,11.504C22.725,10.954 22.277,10.505 21.727,10.505Z" style="fill:currentColor;fill-rule:nonzero;"/>
            <path d="M28.789,11.336C28.789,11.887 29.236,12.333 29.786,12.333C30.337,12.333 30.783,11.887 30.783,11.336C30.783,10.786 30.337,10.337 29.786,10.337C29.236,10.337 28.789,10.786 28.789,11.336Z" style="fill:currentColor;fill-rule:nonzero;"/>
            <path d="M27.579,12.382C27.029,12.382 26.581,12.831 26.581,13.381C26.581,13.931 27.029,14.377 27.579,14.377C28.128,14.377 28.576,13.931 28.576,13.381C28.576,12.831 28.128,12.382 27.579,12.382Z" style="fill:currentColor;fill-rule:nonzero;"/>
            <path d="M30.162,15.916C30.712,15.916 31.16,15.47 31.16,14.919C31.16,14.369 30.712,13.92 30.162,13.92C29.612,13.92 29.165,14.369 29.165,14.919C29.165,15.47 29.612,15.916 30.162,15.916Z" style="fill:currentColor;fill-rule:nonzero;"/>
            <path d="M30.318,17.517C29.768,17.517 29.321,17.965 29.321,18.516C29.321,19.066 29.768,19.513 30.318,19.513C30.869,19.513 31.315,19.066 31.315,18.516C31.315,17.965 30.869,17.517 30.318,17.517Z" style="fill:currentColor;fill-rule:nonzero;"/>
            <path d="M26.815,16.793C26.815,17.341 27.262,17.788 27.813,17.788C28.363,17.788 28.81,17.341 28.81,16.793C28.81,16.241 28.363,15.794 27.813,15.794C27.262,15.794 26.815,16.241 26.815,16.793Z" style="fill:currentColor;fill-rule:nonzero;"/>
            <path d="M25.503,16.25C26.055,16.25 26.502,15.803 26.502,15.254C26.502,14.703 26.055,14.256 25.503,14.256C24.954,14.256 24.507,14.703 24.507,15.254C24.507,15.803 24.954,16.25 25.503,16.25Z" style="fill:currentColor;fill-rule:nonzero;"/>
        </g>
    </g>
</svg>
