<?xml version="1.0" encoding="UTF-8" standalone="no"?>
<!DOCTYPE svg PUBLIC "-//W3C//DTD SVG 1.1//EN" "http://www.w3.org/Graphics/SVG/1.1/DTD/svg11.dtd">
<svg width="100%" height="100%" viewBox="0 0 385 350" version="1.1" xmlns="http://www.w3.org/2000/svg" xmlns:xlink="http://www.w3.org/1999/xlink" xml:space="preserve" xmlns:serif="http://www.serif.com/" style="fill-rule:evenodd;clip-rule:evenodd;stroke-linejoin:round;stroke-miterlimit:2;">
    <g transform="matrix(1,0,0,1,-425,-2299)">
        <g id="Side" transform="matrix(-1.20447,0,0,1.20001,1918.57,-225.347)">
            <g transform="matrix(79.9489,0,0,1.56944,-47847.6,-1397.7)">
                <rect in:fade={{ duration: 800, delay: 1000 }} x="610" y="2234.65" width="3.974" height="170.079" style="fill:currentColor;fill-opacity:0.12;stroke:currentColor;stroke-width:0.03px;"/>
            </g>
            <g transform="matrix(0.498148,0,0,0.957702,462.336,89.0267)">
                <rect in:fade={{ duration: 800, delay: 1000 }} x="921.26" y="2104.72" width="318.898" height="4.933" style="fill:currentColor;fill-opacity:0.12;stroke:currentColor;stroke-width:2.27px;"/>
            </g>
            <g transform="matrix(0.498148,0,0,0.957702,621.194,89.0267)">
                <rect in:fade={{ duration: 800, delay: 1000 }} x="921.26" y="2104.72" width="318.898" height="4.933" style="fill:currentColor;fill-opacity:0.12;stroke:currentColor;stroke-width:2.27px;"/>
            </g>
            <g transform="matrix(0.5,0,0,1.00078,619.488,-1.85909)">
                <rect in:fade={{ duration: 800, delay: 1000 }} x="921.26" y="2109.66" width="317.717" height="266.72" style="fill:currentColor;fill-opacity:0.12;stroke:currentColor;stroke-width:2.19px;"/>
            </g>
            <g transform="matrix(-6.27733e-17,0.263345,0.342105,-9.88622e-17,398.529,2076.57)">
                <rect in:fade={{ duration: 800, delay: 1000 }} x="295.276" y="2411.81" width="663.78" height="44.882" style="fill:currentColor;fill-opacity:0.12;stroke:currentColor;stroke-width:5.67px;"/>
            </g>
            <g transform="matrix(-6.2738e-17,0.26322,0.342105,-9.87691e-17,255.025,2076.69)">
                <rect in:fade={{ duration: 800, delay: 1000 }} x="295.276" y="2411.81" width="663.78" height="44.882" style="fill:currentColor;fill-opacity:0.12;stroke:currentColor;stroke-width:5.67px;"/>
            </g>
            <g transform="matrix(-6.37899e-17,0.26366,0.31462,-1.06911e-16,307.194,2076.27)">
                <rect in:fade={{ duration: 800, delay: 1000 }} x="295.276" y="2411.81" width="663.78" height="44.882" style="fill:currentColor;fill-opacity:0.12;stroke:currentColor;stroke-width:5.97px;"/>
            </g>
            <g transform="matrix(0.0333833,1.33015e-17,-9.35743e-18,0.994412,1087.6,-290.237)">
                <path in:fade={{ duration: 800, delay: 1000 }} d="M4074.58,2413.17L234.139,2413.17L234.139,2458.25L4074.58,2458.3L4074.58,2413.17Z" style="fill:currentColor;fill-opacity:0.12;stroke:currentColor;stroke-width:2.47px;"/>
            </g>
            <g transform="matrix(0.00399807,1.33015e-17,-1.12067e-18,0.994412,1222.69,-290.237)">
                <rect in:fade={{ duration: 800, delay: 1000 }} x="234.139" y="2413.17" width="3840.44" height="45.134" style="fill:currentColor;fill-opacity:0.12;stroke:currentColor;stroke-width:2.47px;"/>
            </g>
            <g transform="matrix(0.00399807,1.33015e-17,-1.12067e-18,0.994412,1079.13,-290.237)">
                <rect in:fade={{ duration: 800, delay: 1000 }} x="234.139" y="2413.17" width="3840.44" height="45.134" style="fill:currentColor;fill-opacity:0.12;stroke:currentColor;stroke-width:2.47px;"/>
            </g>
            <g transform="matrix(0.0827292,1.40016e-17,-2.31892e-17,1.04675,901.89,-196.851)">
                <path in:fade={{ duration: 800, delay: 1000 }} d="M4074.58,2413.27L234.139,2413.17L234.139,2458.25L4074.58,2458.3L4074.58,2413.27Z" style="fill:currentColor;fill-opacity:0.12;stroke:currentColor;stroke-width:2.34px;"/>
            </g>
            <g transform="matrix(0.0413498,1.32396e-17,-1.15905e-17,0.989788,911.578,-279.08)">
                <path in:fade={{ duration: 800, delay: 1000 }} d="M4074.58,2413.17L234.139,2413.17L234.139,2458.25L4074.58,2458.3L4074.58,2413.17Z" style="fill:currentColor;fill-opacity:0.12;stroke:currentColor;stroke-width:2.48px;"/>
            </g>
            <g transform="matrix(0.0413646,1.39397e-17,-1.15946e-17,1.04213,1070.43,-185.486)">
                <path in:fade={{ duration: 800, delay: 1000 }} d="M4074.58,2412.97L234.139,2412.97L234.139,2458.25L4074.58,2458.3L4074.58,2412.97Z" style="fill:currentColor;fill-opacity:0.12;stroke:currentColor;stroke-width:2.35px;"/>
            </g>
            <g transform="matrix(1,0,0,1,47.2441,0)">
                <g transform="matrix(1,0,0,0.9,44.8819,172.441)">
                    <path in:fade={{ duration: 800, delay: 1000 }} d="M869.291,2468.5L840.945,2468.5L850.384,2456.69L859.853,2456.69L869.291,2468.5Z" style="fill:currentColor;fill-opacity:0.12;stroke:currentColor;stroke-width:1.82px;"/>
                </g>
                <g transform="matrix(1,0,0,0.428571,49.6063,1328.57)">
                    <rect in:fade={{ duration: 800, delay: 1000 }} x="848.031" y="2444.88" width="4.724" height="16.535" style="fill:currentColor;fill-opacity:0.12;stroke:currentColor;stroke-width:2.25px;"/>
                </g>
            </g>
            <g transform="matrix(1,0,0,1,314.173,0)">
                <g transform="matrix(1,0,0,0.9,44.8819,172.441)">
                    <path in:fade={{ duration: 800, delay: 1000 }} d="M869.291,2468.5L840.945,2468.5L850.384,2456.69L859.853,2456.69L869.291,2468.5Z" style="fill:currentColor;fill-opacity:0.12;stroke:currentColor;stroke-width:1.82px;"/>
                </g>
                <g transform="matrix(1,0,0,0.428571,49.6063,1328.57)">
                    <rect in:fade={{ duration: 800, delay: 1000 }} x="848.031" y="2444.88" width="4.724" height="16.535" style="fill:currentColor;fill-opacity:0.12;stroke:currentColor;stroke-width:2.25px;"/>
                </g>
            </g>
            <g transform="matrix(1,0,0,1,206.247,0)">
                <g transform="matrix(1,0,0,0.9,44.8819,172.441)">
                    <path in:fade={{ duration: 800, delay: 1000 }} d="M869.291,2468.5L840.945,2468.5L850.384,2456.69L859.853,2456.69L869.291,2468.5Z" style="fill:currentColor;fill-opacity:0.12;stroke:currentColor;stroke-width:1.82px;"/>
                </g>
                <g transform="matrix(1,0,0,0.428571,49.6063,1328.57)">
                    <rect in:fade={{ duration: 800, delay: 1000 }} x="848.031" y="2444.88" width="4.724" height="16.535" style="fill:currentColor;fill-opacity:0.12;stroke:currentColor;stroke-width:2.25px;"/>
                </g>
            </g>
            <g transform="matrix(-4.75768e-17,-0.779877,-0.331645,2.03829e-17,1660.1,3331.31)">
                <rect in:fade={{ duration: 800, delay: 1000 }} x="1285.04" y="1960.63" width="224.409" height="42.578" style="fill:currentColor;fill-opacity:0.12;stroke:currentColor;stroke-width:2.9px;"/>
            </g>
            <g transform="matrix(-4.35543e-17,-0.713939,-0.996296,6.12323e-17,3019.72,3230.07)">
                <rect in:fade={{ duration: 800, delay: 1000 }} x="1268.5" y="2003.15" width="238.583" height="14.173" style="fill:currentColor;fill-opacity:0.12;stroke:currentColor;stroke-width:2px;"/>
            </g>
            <g transform="matrix(-4.75932e-17,-0.780145,-0.304008,1.86843e-17,1530.25,3331.65)">
                <rect in:fade={{ duration: 800, delay: 1000 }} x="1285.04" y="1960.63" width="224.409" height="42.578" style="fill:currentColor;fill-opacity:0.12;stroke:currentColor;stroke-width:2.93px;"/>
            </g>
            <g transform="matrix(-4.63051e-17,-0.75903,-0.331645,2.03829e-17,1598.56,3299.79)">
                <rect in:fade={{ duration: 800, delay: 1000 }} x="1285.04" y="1960.63" width="224.409" height="42.578" style="fill:currentColor;fill-opacity:0.12;stroke:currentColor;stroke-width:2.96px;"/>
            </g>
            <g transform="matrix(-0.996163,0,0,1,2121.39,-108.661)">
                <rect in:fade={{ duration: 800, delay: 1000 }} x="901.238" y="2433.07" width="128.683" height="4.724" style="fill:currentColor;fill-opacity:0.12;stroke:currentColor;stroke-width:1.74px;"/>
            </g>
            <g transform="matrix(-0.436187,0,0,1,1459.11,-108.661)">
                <rect in:fade={{ duration: 800, delay: 1000 }} x="901.238" y="2433.07" width="128.683" height="4.724" style="fill:rgb(0,159,223);fill-opacity:0.1;stroke:rgb(0,159,223);stroke-width:2.25px;stroke-miterlimit:1.5;"/>
            </g>
            <g transform="matrix(-0.478251,0,0,1,1426.77,-108.661)">
                <rect in:fade={{ duration: 800, delay: 1000 }} x="901.238" y="2433.07" width="128.683" height="4.724" style="fill:rgb(0,159,223);fill-opacity:0.1;stroke:rgb(0,159,223);stroke-width:2.21px;stroke-miterlimit:1.5;"/>
            </g>
        </g>
    </g>
</svg>
