<?xml version="1.0" encoding="UTF-8" standalone="no"?>
<!DOCTYPE svg PUBLIC "-//W3C//DTD SVG 1.1//EN" "http://www.w3.org/Graphics/SVG/1.1/DTD/svg11.dtd">
<svg viewBox="0 0 386 350" version="1.1" xmlns="http://www.w3.org/2000/svg" xmlns:xlink="http://www.w3.org/1999/xlink"
    xml:space="preserve" style="fill-rule:evenodd;clip-rule:evenodd;stroke-linejoin:round;stroke-miterlimit:2;">
    <g transform="matrix(1,0,0,1,-1658,-2299)">
        <g id="Side" transform="matrix(1.20447,0,0,1.20001,549.724,-225.347)">
            <g transform="matrix(-8.17676e-17,0.330647,0.342105,-1.48987e-16,398.529,2012.03)">
                <rect in:fade={{ duration: 800, delay: 1000 }} x="295.276" y="2411.81" width="663.78" height="44.882"
                    style="fill:currentColor;fill-opacity:0.12;stroke:currentColor;stroke-width:5.15px;" />
            </g>
            <g transform="matrix(-8.17676e-17,0.330647,0.342105,-1.48987e-16,96.1666,2012.03)">
                <rect in:fade={{ duration: 800, delay: 1000 }} x="295.276" y="2411.81" width="663.78" height="44.882"
                    style="fill:currentColor;fill-opacity:0.12;stroke:currentColor;stroke-width:5.15px;" />
            </g>
            <g transform="matrix(0.0747331,1.32396e-17,-2.09479e-17,0.989788,919.116,-278.871)">
                <path in:fade={{ duration: 800, delay: 400 }} d="M4074.58,2413.27L234.139,2413.17L234.139,2458.25L4074.58,2458.3L4074.58,2413.27Z"
                    style="fill:currentColor;fill-opacity:0.12;stroke:currentColor;stroke-width:2.47px;" />
            </g>
            <g transform="matrix(0.0827292,1.39397e-17,-2.31892e-17,1.04213,901.89,-185.486)">
                <path in:fade={{ duration: 800, delay: 400 }} d="M4074.58,2413.27L234.139,2413.17L234.139,2458.25L4074.58,2458.3L4074.58,2413.27Z"
                    style="fill:currentColor;fill-opacity:0.12;stroke:currentColor;stroke-width:2.35px;" />
            </g>
            <g transform="matrix(1,0,0,1,47.2441,0)">
                <g transform="matrix(1,0,0,0.9,44.8819,172.441)">
                    <path in:fade={{ duration: 800, delay: 400 }} d="M869.291,2468.5L840.945,2468.5L850.384,2456.69L859.853,2456.69L869.291,2468.5Z"
                        style="fill:currentColor;fill-opacity:0.12;stroke:currentColor;stroke-width:1.82px;" />
                </g>
                <g transform="matrix(1,0,0,0.428571,49.6063,1328.57)">
                    <rect in:fade={{ duration: 800, delay: 1000 }} x="848.031" y="2444.88" width="4.724" height="16.535"
                        style="fill:currentColor;fill-opacity:0.12;stroke:currentColor;stroke-width:2.25px;" />
                </g>
            </g>
            <g transform="matrix(1,0,0,1,314.173,0)">
                <g transform="matrix(1,0,0,0.9,44.8819,172.441)">
                    <path in:fade={{ duration: 800, delay: 400 }} d="M869.291,2468.5L840.945,2468.5L850.384,2456.69L859.853,2456.69L869.291,2468.5Z"
                        style="fill:currentColor;fill-opacity:0.12;stroke:currentColor;stroke-width:1.82px;" />
                </g>
                <g transform="matrix(1,0,0,0.428571,49.6063,1328.57)">
                    <rect in:fade={{ duration: 800, delay: 1000 }} x="848.031" y="2444.88" width="4.724" height="16.535"
                        style="fill:currentColor;fill-opacity:0.12;stroke:currentColor;stroke-width:2.25px;" />
                </g>
            </g>
            <rect in:fade={{ duration: 800, delay: 1000 }} x="921.26" y="2109.66" width="317.717" height="266.72"
                style="fill:currentColor;fill-opacity:0.12;stroke:currentColor;stroke-width:1.73px;" />
            <g transform="matrix(1.05541,0,0,1.05714,-80.9614,-153.071)">
                <circle cx="1105.51" cy="2265.35" r="82.677"
                    style="fill:currentColor;fill-opacity:0.12;stroke:currentColor;stroke-width:1.64px;" />
            </g>
            <g transform="matrix(0.996296,0,0,1,3.41207,0)">
                <rect in:fade={{ duration: 800, delay: 1000 }} x="921.26" y="2104.72" width="318.898" height="4.933"
                    style="fill:currentColor;fill-opacity:0.12;stroke:currentColor;stroke-width:1.74px;" />
            </g>
        </g>
    </g>
</svg>