<?xml version="1.0" encoding="UTF-8" standalone="no"?>
<!DOCTYPE svg PUBLIC "-//W3C//DTD SVG 1.1//EN" "http://www.w3.org/Graphics/SVG/1.1/DTD/svg11.dtd">
<svg width="100%" height="100%" viewBox="0 0 2001 1007" version="1.1" xmlns="http://www.w3.org/2000/svg" xmlns:xlink="http://www.w3.org/1999/xlink" xml:space="preserve"  style="fill-rule:evenodd;clip-rule:evenodd;stroke-linejoin:round;stroke-miterlimit:2;">
    <g transform="matrix(1,0,0,1,-3143,-1056)">
        <g transform="matrix(2,0,0,1.00616,-7356.16,1056.16)">
            <rect id="product-bench-top" x="5250" y="0" width="1000" height="1000" style="fill:none;"/>
            <g id="product-bench-top1" serif:id="product-bench-top">
                <g transform="matrix(0.997559,0,0,0.997559,14.0457,1.22073)">
                    <g transform="matrix(1.56982,0,0,3.12043,4825.94,-7722.45)">
                        <circle cx="321.26" cy="2499.21" r="14.173" style="fill:currentColor;fill-opacity:0.1;"/>
                    </g>
                    <g transform="matrix(1.56982,0,0,3.12043,4825.94,-7722.45)">
                        <path d="M321.26,2484.72C329.258,2484.72 335.752,2491.21 335.752,2499.21C335.752,2507.21 329.258,2513.7 321.26,2513.7C313.261,2513.7 306.767,2507.21 306.767,2499.21C306.767,2491.21 313.261,2484.72 321.26,2484.72ZM321.26,2485.36C313.614,2485.36 307.406,2491.57 307.406,2499.21C307.406,2506.86 313.614,2513.07 321.26,2513.07C328.906,2513.07 335.114,2506.86 335.114,2499.21C335.114,2491.57 328.906,2485.36 321.26,2485.36Z" style="fill:currentColor;"/>
                    </g>
                    <g transform="matrix(1.56982,0,0,3.12043,4825.94,-7722.45)">
                        <circle cx="321.26" cy="2499.21" r="2.362" style="fill:currentColor;fill-opacity:0.1;"/>
                    </g>
                    <g transform="matrix(1.56982,0,0,3.12043,4825.94,-7722.45)">
                        <path d="M321.26,2496.53C322.74,2496.53 323.941,2497.73 323.941,2499.21C323.941,2500.69 322.74,2501.89 321.26,2501.89C319.78,2501.89 318.578,2500.69 318.578,2499.21C318.578,2497.73 319.78,2496.53 321.26,2496.53ZM321.26,2497.17C320.132,2497.17 319.217,2498.09 319.217,2499.21C319.217,2500.34 320.132,2501.26 321.26,2501.26C322.387,2501.26 323.303,2500.34 323.303,2499.21C323.303,2498.09 322.387,2497.17 321.26,2497.17Z" style="fill:currentColor;"/>
                    </g>
                    <g transform="matrix(1.56982,0,0,3.12043,5675.13,-7722.45)">
                        <circle cx="321.26" cy="2499.21" r="14.173" style="fill:currentColor;fill-opacity:0.1;"/>
                    </g>
                    <g transform="matrix(1.56982,0,0,3.12043,5675.13,-7722.45)">
                        <path d="M321.26,2484.72C329.258,2484.72 335.752,2491.21 335.752,2499.21C335.752,2507.21 329.258,2513.7 321.26,2513.7C313.261,2513.7 306.767,2507.21 306.767,2499.21C306.767,2491.21 313.261,2484.72 321.26,2484.72ZM321.26,2485.36C313.614,2485.36 307.406,2491.57 307.406,2499.21C307.406,2506.86 313.614,2513.07 321.26,2513.07C328.906,2513.07 335.114,2506.86 335.114,2499.21C335.114,2491.57 328.906,2485.36 321.26,2485.36Z" style="fill:currentColor;"/>
                    </g>
                    <g transform="matrix(1.56982,0,0,3.12043,5675.13,-7722.45)">
                        <circle cx="321.26" cy="2499.21" r="2.362" style="fill:currentColor;fill-opacity:0.1;"/>
                    </g>
                    <g transform="matrix(1.56982,0,0,3.12043,5675.13,-7722.45)">
                        <path d="M321.26,2496.53C322.74,2496.53 323.941,2497.73 323.941,2499.21C323.941,2500.69 322.74,2501.89 321.26,2501.89C319.78,2501.89 318.578,2500.69 318.578,2499.21C318.578,2497.73 319.78,2496.53 321.26,2496.53ZM321.26,2497.17C320.132,2497.17 319.217,2498.09 319.217,2499.21C319.217,2500.34 320.132,2501.26 321.26,2501.26C322.387,2501.26 323.303,2500.34 323.303,2499.21C323.303,2498.09 322.387,2497.17 321.26,2497.17Z" style="fill:currentColor;"/>
                    </g>
                    <g transform="matrix(1.56982,0,0,3.12043,4825.94,-7353.9)">
                        <circle cx="321.26" cy="2499.21" r="14.173" style="fill:currentColor;fill-opacity:0.1;"/>
                    </g>
                    <g transform="matrix(1.56982,0,0,3.12043,4825.94,-7353.9)">
                        <path d="M321.26,2484.72C329.258,2484.72 335.752,2491.21 335.752,2499.21C335.752,2507.21 329.258,2513.7 321.26,2513.7C313.261,2513.7 306.767,2507.21 306.767,2499.21C306.767,2491.21 313.261,2484.72 321.26,2484.72ZM321.26,2485.36C313.614,2485.36 307.406,2491.57 307.406,2499.21C307.406,2506.86 313.614,2513.07 321.26,2513.07C328.906,2513.07 335.114,2506.86 335.114,2499.21C335.114,2491.57 328.906,2485.36 321.26,2485.36Z" style="fill:currentColor;"/>
                    </g>
                    <g transform="matrix(1.56982,0,0,3.12043,4825.94,-7353.9)">
                        <circle cx="321.26" cy="2499.21" r="2.362" style="fill:currentColor;fill-opacity:0.1;"/>
                    </g>
                    <g transform="matrix(1.56982,0,0,3.12043,4825.94,-7353.9)">
                        <path d="M321.26,2496.53C322.74,2496.53 323.941,2497.73 323.941,2499.21C323.941,2500.69 322.74,2501.89 321.26,2501.89C319.78,2501.89 318.578,2500.69 318.578,2499.21C318.578,2497.73 319.78,2496.53 321.26,2496.53ZM321.26,2497.17C320.132,2497.17 319.217,2498.09 319.217,2499.21C319.217,2500.34 320.132,2501.26 321.26,2501.26C322.387,2501.26 323.303,2500.34 323.303,2499.21C323.303,2498.09 322.387,2497.17 321.26,2497.17Z" style="fill:currentColor;"/>
                    </g>
                    <g transform="matrix(1.56982,0,0,3.12043,5675.13,-6895.09)">
                        <circle cx="321.26" cy="2499.21" r="14.173" style="fill:currentColor;fill-opacity:0.1;"/>
                    </g>
                    <g transform="matrix(1.56982,0,0,3.12043,5675.13,-6895.09)">
                        <path d="M321.26,2484.72C329.258,2484.72 335.752,2491.21 335.752,2499.21C335.752,2507.21 329.258,2513.7 321.26,2513.7C313.261,2513.7 306.767,2507.21 306.767,2499.21C306.767,2491.21 313.261,2484.72 321.26,2484.72ZM321.26,2485.36C313.614,2485.36 307.406,2491.57 307.406,2499.21C307.406,2506.86 313.614,2513.07 321.26,2513.07C328.906,2513.07 335.114,2506.86 335.114,2499.21C335.114,2491.57 328.906,2485.36 321.26,2485.36Z" style="fill:currentColor;"/>
                    </g>
                    <g transform="matrix(1.56982,0,0,3.12043,5675.13,-6895.09)">
                        <circle cx="321.26" cy="2499.21" r="2.362" style="fill:currentColor;fill-opacity:0.1;"/>
                    </g>
                    <g transform="matrix(1.56982,0,0,3.12043,5675.13,-6895.09)">
                        <path d="M321.26,2496.53C322.74,2496.53 323.941,2497.73 323.941,2499.21C323.941,2500.69 322.74,2501.89 321.26,2501.89C319.78,2501.89 318.578,2500.69 318.578,2499.21C318.578,2497.73 319.78,2496.53 321.26,2496.53ZM321.26,2497.17C320.132,2497.17 319.217,2498.09 319.217,2499.21C319.217,2500.34 320.132,2501.26 321.26,2501.26C322.387,2501.26 323.303,2500.34 323.303,2499.21C323.303,2498.09 322.387,2497.17 321.26,2497.17Z" style="fill:currentColor;"/>
                    </g>
                    <g id="Top" transform="matrix(1.56982,0,0,3.12042,4825.94,-7258.04)">
                        <path d="M295.276,2326.77L295.276,2486.22L885.827,2645.67L885.827,2326.77L885.827,2645.67L885.827,2326.77L295.276,2326.77L885.827,2326.77" style="fill:currentColor;fill-opacity:0.1;"/>
                    </g>
                    <g transform="matrix(1.56982,0,0,3.12042,4825.94,-7258.04)">
                        <path d="M885.827,2326.45C886.003,2326.45 886.146,2326.6 886.146,2326.77L886.146,2645.67C886.146,2646.12 885.827,2645.99 885.827,2645.99C885.827,2645.99 885.665,2646.06 885.572,2645.93L295.192,2486.53C295.053,2486.49 294.956,2486.37 294.956,2486.22L294.956,2326.77C294.956,2326.6 295.099,2326.45 295.276,2326.45L885.827,2326.45ZM295.595,2327.09L295.595,2485.98L885.507,2645.25L885.507,2327.09L295.595,2327.09Z" style="fill:currentColor;"/>
                    </g>
                    <g transform="matrix(0.11332,0.0603564,-0.138998,1.03114,6016.51,-1827.26)">
                        <rect x="295.276" y="2411.81" width="663.78" height="44.882" style="fill:currentColor;fill-opacity:0.1;"/>
                    </g>
                    <g transform="matrix(0.11332,0.0603564,-0.138998,1.03114,6016.51,-1827.26)">
                        <path d="M963.327,2411.81L963.327,2456.69C963.327,2457.21 961.415,2457.63 959.055,2457.63L295.276,2457.63C292.916,2457.63 291.003,2457.21 291.003,2456.69L291.003,2411.81C291.003,2411.3 292.916,2410.88 295.276,2410.88L959.055,2410.88C961.415,2410.88 963.327,2411.3 963.327,2411.81ZM954.783,2412.74C954.783,2412.74 356.087,2412.74 299.548,2412.74L299.548,2455.76C299.548,2455.76 954.783,2455.76 954.783,2455.76L954.783,2412.74Z" style="fill:currentColor;"/>
                    </g>
                    <g transform="matrix(0.11332,0.0603564,-0.138998,1.03114,6016.51,-1827.26)">
                        <path d="M958.989,2413.12L296.46,2412.78L296.46,2457.66L958.989,2458L958.989,2413.12Z" style="fill:currentColor;fill-opacity:0.1;"/>
                    </g>
                    <g transform="matrix(0.11332,0.0603564,-0.138998,1.03114,6016.51,-1827.26)">
                        <path d="M963.261,2413.12L963.261,2458C963.261,2458.25 962.809,2458.49 962.006,2458.66C961.203,2458.84 960.113,2458.94 958.979,2458.94L296.45,2458.59C294.095,2458.59 292.188,2458.17 292.188,2457.66L292.188,2412.78C292.188,2412.53 292.639,2412.29 293.443,2412.12C294.246,2411.94 295.336,2411.84 296.47,2411.84L958.999,2412.19C961.354,2412.19 963.261,2412.61 963.261,2413.12ZM954.716,2414.05C954.716,2414.05 300.733,2413.71 300.733,2413.71C300.733,2413.71 300.733,2456.73 300.733,2456.73L954.716,2457.07L954.716,2414.05Z" style="fill:currentColor;"/>
                    </g>
                    <g transform="matrix(-0.11541,1.38149e-17,-3.34194e-17,-1.06752,5400.15,2625.01)">
                        <rect x="295.276" y="2411.81" width="663.78" height="44.882" style="fill:currentColor;fill-opacity:0.1;"/>
                    </g>
                    <g transform="matrix(-0.11541,1.38149e-17,-3.34194e-17,-1.06752,5400.15,2625.01)">
                        <path d="M963.398,2411.81L963.398,2456.69C963.398,2457.21 961.454,2457.63 959.055,2457.63L295.276,2457.63C292.877,2457.63 290.933,2457.21 290.933,2456.69L290.933,2411.81C290.933,2411.3 292.877,2410.88 295.276,2410.88L959.055,2410.88C961.454,2410.88 963.398,2411.3 963.398,2411.81ZM954.712,2412.74C954.712,2412.74 299.619,2412.74 299.619,2412.74C299.619,2412.74 299.619,2455.76 299.619,2455.76C299.619,2455.76 954.712,2455.76 954.712,2455.76L954.712,2412.74Z" style="fill:currentColor;"/>
                    </g>
                    <g transform="matrix(-0.11541,1.38149e-17,-3.34194e-17,-1.06752,6250.61,2625.01)">
                        <rect x="295.276" y="2411.81" width="663.78" height="44.882" style="fill:currentColor;fill-opacity:0.1;"/>
                    </g>
                    <g transform="matrix(-0.11541,1.38149e-17,-3.34194e-17,-1.06752,6250.61,2625.01)">
                        <path d="M963.398,2411.81L963.398,2456.69C963.398,2457.21 961.454,2457.63 959.055,2457.63L295.276,2457.63C292.877,2457.63 290.933,2457.21 290.933,2456.69L290.933,2411.81C290.933,2411.3 292.877,2410.88 295.276,2410.88L959.055,2410.88C961.454,2410.88 963.398,2411.3 963.398,2411.81ZM954.712,2412.74C954.712,2412.74 356.58,2412.74 299.619,2412.74C299.619,2412.74 299.619,2455.76 299.619,2455.76C299.619,2455.76 954.712,2455.76 954.712,2455.76L954.712,2412.74Z" style="fill:currentColor;"/>
                    </g>
                    <g transform="matrix(-0.122433,1.55246e-17,-3.14507e-17,-1.06752,5825.92,2625.01)">
                        <rect x="295.276" y="2411.81" width="663.78" height="44.882" style="fill:currentColor;fill-opacity:0.1;"/>
                    </g>
                    <g transform="matrix(-0.122433,1.55246e-17,-3.14507e-17,-1.06752,5825.92,2625.01)">
                        <path d="M963.149,2411.81L963.149,2456.69C963.149,2457.21 961.316,2457.63 959.055,2457.63L295.276,2457.63C293.015,2457.63 291.182,2457.21 291.182,2456.69L291.182,2411.81C291.182,2411.3 293.015,2410.88 295.276,2410.88L959.055,2410.88C961.316,2410.88 963.149,2411.3 963.149,2411.81ZM954.961,2412.74C954.961,2412.74 299.369,2412.74 299.369,2412.74L299.369,2455.76C352.321,2455.76 902.01,2455.76 954.961,2455.76L954.961,2412.74Z" style="fill:currentColor;"/>
                    </g>
                    <g transform="matrix(1.56982,0,0,3.12043,4825.94,-5820.71)">
                        <path d="M295.276,2025.59L885.827,2185.04L885.827,2169.08L295.276,2009.63L295.276,2025.59Z" style="fill:currentColor;fill-opacity:0.1;"/>
                    </g>
                    <g transform="matrix(1.56982,0,0,3.12043,4825.94,-5820.71)">
                        <path d="M294.956,2025.59L294.956,2009.63C294.956,2009.53 295.003,2009.44 295.081,2009.38C295.16,2009.32 295.263,2009.3 295.359,2009.33L885.91,2168.77C886.049,2168.81 886.146,2168.94 886.146,2169.08L886.146,2185.04C886.146,2185.14 886.1,2185.23 886.021,2185.29C885.942,2185.35 885.839,2185.37 885.744,2185.35L295.192,2025.9C295.053,2025.86 294.956,2025.74 294.956,2025.59ZM295.595,2025.35C295.595,2025.35 868.156,2179.94 885.507,2184.62L885.507,2169.32C872.141,2165.72 295.595,2010.05 295.595,2010.05L295.595,2025.35Z" style="fill:currentColor;"/>
                    </g>
                    <g transform="matrix(1.56357,0,0,2.89754,4827.78,-5404.77)">
                        <rect x="295.276" y="1866.14" width="592.913" height="16.535" style="fill:currentColor;fill-opacity:0.1;"/>
                    </g>
                    <g transform="matrix(1.56357,0,0,2.89754,4827.78,-5404.77)">
                        <path d="M888.51,1866.14L888.51,1882.68C888.51,1882.87 888.366,1883.02 888.189,1883.02L295.276,1883.02C295.099,1883.02 294.955,1882.87 294.955,1882.68L294.955,1866.14C294.955,1865.95 295.099,1865.8 295.276,1865.8L888.189,1865.8C888.366,1865.8 888.51,1865.95 888.51,1866.14ZM887.868,1866.49C872.518,1866.49 310.946,1866.49 295.596,1866.49L295.596,1882.33C311.155,1882.33 887.868,1882.33 887.868,1882.33L887.868,1866.49Z" style="fill:currentColor;"/>
                    </g>
                    <g transform="matrix(0.11332,0.0603564,-0.138998,1.03114,5597.48,-2052.45)">
                        <path d="M917.972,2413.22L241.696,2412.93L296.869,2457.99L918.936,2458.25L917.972,2413.22Z" style="fill:currentColor;fill-opacity:0.1;"/>
                    </g>
                    <g transform="matrix(0.11332,0.0603564,-0.138998,1.03114,5597.48,-2052.45)">
                        <path d="M922.244,2413.22L923.208,2458.25C923.213,2458.5 922.764,2458.74 921.961,2458.91C921.157,2459.09 920.066,2459.19 918.928,2459.18L296.861,2458.93C294.929,2458.93 293.241,2458.64 292.742,2458.23L237.569,2413.18C237.225,2412.89 237.499,2412.6 238.31,2412.37C239.12,2412.14 240.375,2412 241.704,2412L917.98,2412.29C920.329,2412.29 922.233,2412.7 922.244,2413.22ZM913.72,2414.15L247.264,2413.87C247.264,2413.87 300.15,2457.06 300.15,2457.06L914.643,2457.32L913.72,2414.15Z" style="fill:currentColor;"/>
                    </g>
                    <g transform="matrix(0,-0.233199,-0.537045,0,6609.66,517.748)">
                        <path d="M2003.25,2413.22L233.896,2413.17L289.612,2458.25L2004.22,2458.25L2003.25,2413.22Z" style="fill:currentColor;fill-opacity:0.1;"/>
                    </g>
                    <g transform="matrix(0,-0.233199,-0.537045,0,6609.66,517.748)">
                        <path d="M2003.25,2412.29L233.897,2412.24C232.567,2412.24 231.313,2412.37 230.504,2412.6C229.696,2412.83 229.425,2413.13 229.772,2413.41L285.487,2458.49C285.99,2458.9 287.681,2459.18 289.612,2459.18L2004.22,2459.18C2005.35,2459.18 2006.44,2459.08 2007.25,2458.91C2008.05,2458.73 2008.5,2458.49 2008.49,2458.25L2007.53,2413.22C2007.52,2412.7 2005.61,2412.29 2003.25,2412.29ZM1999,2414.15C1999,2414.15 1999.92,2457.32 1999.92,2457.32C1999.92,2457.32 292.884,2457.32 292.884,2457.32L239.475,2414.11L1999,2414.15Z" style="fill:currentColor;"/>
                    </g>
                    <g transform="matrix(0,-0.233199,-0.537045,0,7512.51,1000.55)">
                        <path d="M4074.58,2413.27L226.42,2413.17L282.135,2458.25L4074.58,2458.3L4074.58,2413.27Z" style="fill:currentColor;fill-opacity:0.1;"/>
                    </g>
                    <g transform="matrix(0,-0.233199,-0.537045,0,7512.51,1000.55)">
                        <path d="M4074.58,2412.34L226.42,2412.24C225.09,2412.24 223.836,2412.37 223.028,2412.6C222.219,2412.83 221.948,2413.13 222.295,2413.41L278.01,2458.49C278.514,2458.9 280.204,2459.18 282.135,2459.18L4074.58,2459.24C4075.71,2459.24 4076.8,2459.14 4077.6,2458.97C4078.4,2458.79 4078.85,2458.55 4078.85,2458.3L4078.85,2413.27C4078.85,2412.76 4076.94,2412.34 4074.58,2412.34ZM4070.31,2414.21C4070.31,2414.21 4070.31,2457.37 4070.31,2457.37L285.407,2457.32C285.407,2457.32 231.999,2414.11 231.999,2414.11L4070.31,2414.21Z" style="fill:currentColor;"/>
                    </g>
                    <g transform="matrix(-0.114199,-0.0608244,0.138998,-1.03114,5908.73,3499.74)">
                        <path d="M912.504,2412.7L241.056,2412.41L296.229,2457.47L913.083,2457.73L912.504,2412.7Z" style="fill:currentColor;fill-opacity:0.1;"/>
                    </g>
                    <g transform="matrix(-0.114199,-0.0608244,0.138998,-1.03114,5908.73,3499.74)">
                        <path d="M916.743,2412.7L917.322,2457.73C917.325,2457.97 916.879,2458.21 916.082,2458.39C915.285,2458.56 914.203,2458.66 913.075,2458.66L296.221,2458.4C294.308,2458.4 292.634,2458.12 292.136,2457.71L236.963,2412.66C236.619,2412.37 236.889,2412.07 237.693,2411.84C238.497,2411.61 239.744,2411.48 241.064,2411.48L912.512,2411.77C914.846,2411.77 916.737,2412.18 916.743,2412.7ZM908.276,2413.63L246.593,2413.35L299.479,2456.54C347.328,2456.56 908.831,2456.79 908.831,2456.79L908.276,2413.63Z" style="fill:currentColor;"/>
                    </g>
                </g>
            </g>
        </g>
    </g>
</svg>
