<?xml version="1.0" encoding="UTF-8" standalone="no"?>
<!DOCTYPE svg PUBLIC "-//W3C//DTD SVG 1.1//EN" "http://www.w3.org/Graphics/SVG/1.1/DTD/svg11.dtd">
<svg width="100%" height="100%" viewBox="0 0 1000 1000" version="1.1" xmlns="http://www.w3.org/2000/svg" xmlns:xlink="http://www.w3.org/1999/xlink" xml:space="preserve" xmlns:serif="http://www.serif.com/" style="fill-rule:evenodd;clip-rule:evenodd;stroke-linejoin:round;stroke-miterlimit:2;">
    <g transform="matrix(1,0,0,1,-1050,0)">
        <rect id="product-table-front" x="1050" y="0" width="1000" height="1000" style="fill:none;"/>
        <g id="product-table-front1" serif:id="product-table-front">
            <g transform="matrix(1.95571,0,0,1.95571,662.987,-290.431)">
                <rect x="510.2" y="290.3" width="198.5" height="7.1" style="fill:rgb(13,40,242);fill-opacity:0.1;"/>
            </g>
            <g transform="matrix(1.95571,0,0,1.95571,662.987,-290.431)">
                <path d="M510.2,297.911C509.918,297.911 509.689,297.682 509.689,297.4L509.689,290.3C509.689,290.018 509.918,289.789 510.2,289.789L708.7,289.789C708.982,289.789 709.211,290.018 709.211,290.3L709.211,297.4C709.211,297.682 708.982,297.911 708.7,297.911L510.2,297.911ZM708.189,296.889C708.189,296.889 708.189,290.811 708.189,290.811L510.711,290.811L510.711,296.889L708.189,296.889Z" style="fill:rgb(13,40,242);"/>
            </g>
            <g transform="matrix(1.45515,0,0,1.97442,867.02,-382.198)">
                <rect x="147.4" y="341.06" width="121.9" height="218.54" style="fill:rgb(13,40,242);fill-opacity:0.1;"/>
            </g>
            <g transform="matrix(1.45515,0,0,1.97442,867.02,-382.198)">
                <path d="M269.3,560.106L147.4,560.106C147.02,560.106 146.713,559.88 146.713,559.6L146.713,341.06C146.713,340.78 147.02,340.554 147.4,340.554L269.3,340.554C269.68,340.554 269.987,340.78 269.987,341.06L269.987,559.6C269.987,559.88 269.68,560.106 269.3,560.106ZM268.613,559.094C268.613,559.094 268.613,341.567 268.613,341.567C268.613,341.567 148.087,341.567 148.087,341.567C148.087,353.137 148.087,559.094 148.087,559.094L268.613,559.094Z" style="fill:rgb(13,40,242);"/>
            </g>
            <g transform="matrix(1.95571,0,0,1.95571,662.987,153.125)">
                <rect x="532.9" y="70.6" width="170.1" height="219.7" style="fill:rgb(13,40,242);fill-opacity:0.1;"/>
            </g>
            <g transform="matrix(1.95571,0,0,1.95571,662.987,153.125)">
                <path d="M532.9,290.811C532.618,290.811 532.389,290.582 532.389,290.3L532.389,70.6C532.389,70.318 532.618,70.089 532.9,70.089L703,70.089C703.282,70.089 703.511,70.318 703.511,70.6L703.511,290.3C703.511,290.582 703.282,290.811 703,290.811L532.9,290.811ZM618,289.789L702.489,289.789L702.489,71.111L533.411,71.111L533.411,289.789L618,289.789Z" style="fill:rgb(13,40,242);"/>
            </g>
            <g transform="matrix(3.20077,0,0,1.95571,415.967,-290.431)">
                <rect x="198.4" y="290.3" width="311.8" height="7.1" style="fill:rgb(13,40,242);fill-opacity:0.1;"/>
            </g>
            <g transform="matrix(3.20077,0,0,1.95571,415.967,-290.431)">
                <path d="M198.4,297.911C198.227,297.911 198.088,297.682 198.088,297.4L198.088,290.3C198.088,290.018 198.227,289.789 198.4,289.789L510.2,289.789C510.373,289.789 510.512,290.018 510.512,290.3L510.512,297.4C510.512,297.682 510.373,297.911 510.2,297.911L198.4,297.911ZM509.888,296.889L509.888,290.811L198.712,290.811C198.712,290.811 198.712,296.889 198.712,296.889L509.888,296.889Z" style="fill:rgb(13,40,242);"/>
            </g>
            <g transform="matrix(1.95571,0,0,1.96399,662.987,152.54)">
                <rect x="206.9" y="70.6" width="7.1" height="219.7" style="fill:rgb(13,40,242);fill-opacity:0.1;"/>
            </g>
            <g transform="matrix(1.95571,0,0,1.96399,662.987,152.54)">
                <path d="M206.9,290.809C206.618,290.809 206.389,290.581 206.389,290.3L206.389,70.6C206.389,70.319 206.618,70.091 206.9,70.091L214,70.091C214.282,70.091 214.511,70.319 214.511,70.6L214.511,290.3C214.511,290.581 214.282,290.809 214,290.809L206.9,290.809ZM210.5,289.791C210.5,289.791 213.489,289.791 213.489,289.791L213.489,71.109C213.489,71.109 207.411,71.109 207.411,71.109L207.411,289.791L210.5,289.791Z" style="fill:rgb(13,40,242);"/>
            </g>
            <g transform="matrix(2.86755e-15,46.8307,-1.39312,8.53041e-17,2484.78,-6663.33)">
                <rect x="148.8" y="339.9" width="7.1" height="219.7" style="fill:rgb(13,40,242);fill-opacity:0.1;"/>
            </g>
            <g transform="matrix(2.86755e-15,46.8307,-1.39312,8.53041e-17,2484.78,-6663.33)">
                <path d="M155.9,560.318L148.8,560.318C148.788,560.318 148.779,559.996 148.779,559.6L148.779,339.9C148.779,339.504 148.788,339.182 148.8,339.182L155.9,339.182C155.912,339.182 155.921,339.504 155.921,339.9L155.921,559.6C155.921,559.996 155.912,560.318 155.9,560.318ZM155.879,558.882L155.879,340.618L148.821,340.618L148.821,558.882L155.879,558.882Z" style="fill:rgb(13,40,242);"/>
            </g>
            <g transform="matrix(1.95571,0,0,1.96399,662.987,152.54)">
                <rect x="304.7" y="70.6" width="7.1" height="219.7" style="fill:rgb(13,40,242);fill-opacity:0.1;"/>
            </g>
            <g transform="matrix(1.95571,0,0,1.96399,662.987,152.54)">
                <path d="M304.7,290.809C304.418,290.809 304.189,290.581 304.189,290.3L304.189,70.6C304.189,70.319 304.418,70.091 304.7,70.091L311.8,70.091C312.082,70.091 312.311,70.319 312.311,70.6L312.311,290.3C312.311,290.581 312.082,290.809 311.8,290.809L304.7,290.809ZM308.3,289.791C308.3,289.791 311.289,289.791 311.289,289.791L311.289,71.109C311.289,71.109 305.211,71.109 305.211,71.109L305.211,289.791L308.3,289.791Z" style="fill:rgb(13,40,242);"/>
            </g>
            <g transform="matrix(1.95571,0,0,1.95571,662.987,-11.5461)">
                <rect x="214" y="220" width="90.7" height="5.1" style="fill:rgb(13,40,242);fill-opacity:0.1;"/>
            </g>
            <g transform="matrix(1.95571,0,0,1.95571,662.987,-11.5461)">
                <path d="M214,225.611C213.718,225.611 213.489,225.382 213.489,225.1L213.489,220C213.489,219.718 213.718,219.489 214,219.489L304.7,219.489C304.982,219.489 305.211,219.718 305.211,220L305.211,225.1C305.211,225.382 304.982,225.611 304.7,225.611L214,225.611ZM259.4,224.589L304.189,224.589C304.189,224.589 304.189,220.511 304.189,220.511L214.511,220.511C214.511,220.511 214.511,224.589 214.511,224.589L259.4,224.589Z" style="fill:rgb(13,40,242);"/>
            </g>
            <g transform="matrix(1.95571,0,0,1.6759,662.987,162.968)">
                <rect x="689.4" y="84.8" width="5.1" height="198.4" style="fill:rgb(13,40,242);fill-opacity:0.1;"/>
            </g>
            <g transform="matrix(1.95571,0,0,1.6759,662.987,162.968)">
                <path d="M689.4,283.797C689.118,283.797 688.889,283.53 688.889,283.2L688.889,84.8C688.889,84.47 689.118,84.203 689.4,84.203L694.5,84.203C694.782,84.203 695.011,84.47 695.011,84.8L695.011,283.2C695.011,283.53 694.782,283.797 694.5,283.797L689.4,283.797ZM693.989,282.603L693.989,85.397L689.911,85.397L689.911,282.603L693.989,282.603Z" style="fill:rgb(13,40,242);"/>
            </g>
            <g transform="matrix(1.95571,0,0,1.95571,662.987,263.427)">
                <rect x="214" y="149.7" width="90.7" height="5.1" style="fill:rgb(13,40,242);fill-opacity:0.1;"/>
            </g>
            <g transform="matrix(1.95571,0,0,1.95571,662.987,263.427)">
                <path d="M214,155.311C213.718,155.311 213.489,155.082 213.489,154.8L213.489,149.7C213.489,149.418 213.718,149.189 214,149.189L304.7,149.189C304.982,149.189 305.211,149.418 305.211,149.7L305.211,154.8C305.211,155.082 304.982,155.311 304.7,155.311L214,155.311ZM259.4,154.289L304.189,154.289C304.189,154.289 304.189,150.211 304.189,150.211L214.511,150.211C214.511,150.211 214.511,154.289 214.511,154.289L259.4,154.289Z" style="fill:rgb(13,40,242);"/>
            </g>
            <g transform="matrix(1.95571,0,0,1.95571,662.987,538.4)">
                <rect x="214" y="79.4" width="90.7" height="5.1" style="fill:rgb(13,40,242);fill-opacity:0.1;"/>
            </g>
            <g transform="matrix(1.95571,0,0,1.95571,662.987,538.4)">
                <path d="M214,85.011C213.718,85.011 213.489,84.782 213.489,84.5L213.489,79.4C213.489,79.118 213.718,78.889 214,78.889L304.7,78.889C304.982,78.889 305.211,79.118 305.211,79.4L305.211,84.5C305.211,84.782 304.982,85.011 304.7,85.011L214,85.011ZM259.4,83.989L304.189,83.989C304.189,83.989 304.189,79.911 304.189,79.911L214.511,79.911C214.511,79.911 214.511,83.989 214.511,83.989L259.4,83.989Z" style="fill:rgb(13,40,242);"/>
            </g>
            <g transform="matrix(8.61388e-17,1.40675,-1.39312,8.53041e-17,2484.78,418.269)">
                <rect x="148.8" y="339.9" width="7.1" height="219.7" style="fill:rgb(13,40,242);fill-opacity:0.1;"/>
            </g>
            <g transform="matrix(8.61388e-17,1.40675,-1.39312,8.53041e-17,2484.78,418.269)">
                <path d="M155.9,560.318L148.8,560.318C148.407,560.318 148.089,559.996 148.089,559.6L148.089,339.9C148.089,339.504 148.407,339.182 148.8,339.182L155.9,339.182C156.293,339.182 156.611,339.504 156.611,339.9L156.611,559.6C156.611,559.996 156.293,560.318 155.9,560.318ZM155.189,558.882C155.189,558.882 155.189,340.618 155.189,340.618L149.511,340.618C149.511,340.618 149.511,558.882 149.511,558.882L155.189,558.882Z" style="fill:rgb(13,40,242);"/>
            </g>
            <g transform="matrix(8.61388e-17,1.40675,-1.39312,8.53041e-17,2484.78,166.621)">
                <rect x="148.8" y="339.9" width="7.1" height="219.7" style="fill:rgb(13,40,242);fill-opacity:0.1;"/>
            </g>
            <g transform="matrix(8.61388e-17,1.40675,-1.39312,8.53041e-17,2484.78,166.621)">
                <path d="M155.9,560.318L148.8,560.318C148.407,560.318 148.089,559.996 148.089,559.6L148.089,339.9C148.089,339.504 148.407,339.182 148.8,339.182L155.9,339.182C156.293,339.182 156.611,339.504 156.611,339.9L156.611,559.6C156.611,559.996 156.293,560.318 155.9,560.318ZM155.189,558.882L155.189,340.618L149.511,340.618C149.511,340.618 149.511,558.882 149.511,558.882L155.189,558.882Z" style="fill:rgb(13,40,242);"/>
            </g>
        </g>
    </g>
</svg>
