
<svg class="text-primary-900 dark:text-primary-50" viewBox="0 0 985 497" version="1.1" xmlns="http://www.w3.org/2000/svg" xmlns:xlink="http://www.w3.org/1999/xlink" style="fill-rule:evenodd;clip-rule:evenodd;stroke-linejoin:round;stroke-miterlimit:2;">
    <g transform="matrix(1,0,0,1,-1185,-2184)">
        <g transform="matrix(1.81223,0,0,1.81223,686.79,1690.34)">
            <g transform="matrix(1,0,0,1,77.3633,0)">
                <g transform="matrix(1,0,0,1,0,7.3)">
                    <path d="M708.7,297.4L510.2,297.4L510.2,290.3L708.7,290.3L708.7,297.4Z" style="fill:rgb(0,155,223);fill-opacity:0.12;stroke:rgb(0,155,223);stroke-width:1.15px;"/>
                </g>
                <g transform="matrix(0.744053,0,0,1.00957,104.327,-39.6225)">
                    <rect x="147.4" y="341.06" width="121.9" height="218.54" style="fill:rgb(0,155,223);fill-opacity:0.12;stroke:rgb(0,155,223);stroke-width:1.3px;"/>
                </g>
                <g transform="matrix(1,0,0,1,0,234.1)">
                    <path d="M703,290.3L532.9,290.3L532.9,70.6L703,70.6L703,290.3Z" style="fill:rgb(0,155,223);fill-opacity:0.12;stroke:rgb(0,155,223);stroke-width:1.15px;"/>
                </g>
                <g transform="matrix(1,0,0,1,0,7.3)">
                    <path d="M510.2,297.4L198.4,297.4L198.4,290.3L510.2,290.3L510.2,297.4Z" style="fill:rgb(0,155,223);fill-opacity:0.12;stroke:rgb(0,155,223);stroke-width:1.15px;"/>
                </g>
                <g transform="matrix(1,0,0,1.00423,0,233.801)">
                    <path d="M214,290.3L206.9,290.3L206.9,70.6L214,70.6L214,290.3Z" style="fill:rgb(0,155,223);fill-opacity:0.12;stroke:rgb(0,155,223);stroke-width:1.15px;"/>
                </g>
                <g transform="matrix(1,0,0,1.00423,0,233.801)">
                    <path d="M311.8,290.3L304.7,290.3L304.7,70.6L311.8,70.6L311.8,290.3Z" style="fill:rgb(0,155,223);fill-opacity:0.12;stroke:rgb(0,155,223);stroke-width:1.15px;"/>
                </g>
                <g transform="matrix(1,0,0,1,0,149.9)">
                    <path d="M304.7,225.1L214,225.1L214,220L304.7,220L304.7,225.1Z" style="fill:rgb(0,155,223);fill-opacity:0.12;stroke:rgb(0,155,223);stroke-width:1.15px;"/>
                </g>
                <g transform="matrix(1,0,0,0.858041,0,239.038)">
                    <path d="M694.5,283.2L689.4,283.2L689.4,84.8L694.5,84.8L694.5,283.2Z" style="fill:rgb(0,155,223);fill-opacity:0.12;stroke:rgb(0,155,223);stroke-width:1.23px;"/>
                </g>
                <g transform="matrix(1,0,0,1,0,290.5)">
                    <path d="M304.7,154.8L214,154.8L214,149.7L304.7,149.7L304.7,154.8Z" style="fill:rgb(0,155,223);fill-opacity:0.12;stroke:rgb(0,155,223);stroke-width:1.15px;"/>
                </g>
                <g transform="matrix(1,0,0,1,0,431.1)">
                    <path d="M304.7,84.5L214,84.5L214,79.4L304.7,79.4L304.7,84.5Z" style="fill:rgb(0,155,223);fill-opacity:0.12;stroke:rgb(0,155,223);stroke-width:1.15px;"/>
                </g>
                <g transform="matrix(4.40447e-17,0.719305,-0.712335,4.36179e-17,931.523,369.674)">
                    <rect x="148.8" y="339.9" width="7.1" height="219.7" style="fill:rgb(0,155,223);fill-opacity:0.12;stroke:rgb(0,155,223);stroke-width:1.61px;"/>
                </g>
                <g transform="matrix(4.40447e-17,0.719305,-0.712335,4.36179e-17,931.523,241.001)">
                    <rect x="148.8" y="339.9" width="7.1" height="219.7" style="fill:rgb(0,155,223);fill-opacity:0.12;stroke:rgb(0,155,223);stroke-width:1.61px;"/>
                </g>
                <g transform="matrix(1.46625e-15,23.9456,-0.712335,4.36179e-17,931.523,-3251.31)">
                    <rect x="148.8" y="339.9" width="7.1" height="219.7" style="fill:rgb(0,155,223);fill-opacity:0.12;stroke:rgb(0,155,223);stroke-width:0.07px;"/>
                </g>
            </g>
            <!-- <g transform="matrix(1,0,0,1,77.3633,0)">
                <g transform="matrix(2.36142,0,0,0.5,-159.262,278.561)">
                    <path d="M156.572,12L156.572,15L152.35,11L156.572,7L156.572,10L279.278,10L279.278,7L283.5,11L279.278,15L279.278,12L156.572,12Z" style="fill:rgb(0,155,223);"/>
                </g>
                <g transform="matrix(0.943951,0,0,0.943951,157.731,263.98)">
                    <text x="192.2px" y="18.107px" style="font-family:'LucidaGrande', 'Lucida Grande', sans-serif;font-weight:500;font-size:12px;fill:rgb(0,155,223);">110</text>
                    <text x="192.2px" y="33.107px" style="font-family:'LucidaGrande', 'Lucida Grande', sans-serif;font-weight:500;font-size:12px;fill:rgb(0,155,223);">cm</text>
                </g>
                <g transform="matrix(1.51506,0,0,0.5,279.381,278.561)">
                    <path d="M158.93,12L158.93,15L152.35,11L158.93,7L158.93,10L276.92,10L276.92,7L283.5,11L276.92,15L276.92,12L158.93,12Z" style="fill:rgb(0,155,223);"/>
                </g>
                <g transform="matrix(0.943951,0,0,0.943951,411.931,263.98)">
                    <text x="192.2px" y="18.107px" style="font-family:'LucidaGrande', 'Lucida Grande', sans-serif;font-weight:500;font-size:12px;fill:rgb(0,155,223);">70</text>
                    <text x="192.2px" y="33.107px" style="font-family:'LucidaGrande', 'Lucida Grande', sans-serif;font-weight:500;font-size:12px;fill:rgb(0,155,223);">cm</text>
                </g>
                <g transform="matrix(1.29862,0,0,0.5,335.055,501.57)">
                    <path d="M160.027,12L160.027,15L152.35,11L160.027,7L160.027,10L275.823,10L275.823,7L283.5,11L275.823,15L275.823,12L160.027,12Z" style="fill:rgb(0,155,223);"/>
                </g>
                <g transform="matrix(0.943951,0,0,0.943951,422.639,500.711)">
                    <text x="192.2px" y="18.107px" style="font-family:'LucidaGrande', 'Lucida Grande', sans-serif;font-weight:500;font-size:12px;fill:rgb(0,155,223);">60</text>
                    <text x="192.2px" y="48.107px" style="font-family:'LucidaGrande', 'Lucida Grande', sans-serif;font-weight:500;font-size:12px;fill:rgb(0,155,223);">cm</text>
                </g>
                <g transform="matrix(0.69254,0,0,0.5,108.391,415.259)">
                    <path d="M166.745,12L166.745,15L152.35,11L166.745,7L166.745,10L269.105,10L269.105,7L283.5,11L269.105,15L269.105,12L166.745,12Z" style="fill:rgb(0,155,223);"/>
                </g>
                <g transform="matrix(0.943951,0,0,0.943951,64.2853,414.4)">
                    <text x="192.2px" y="18.107px" style="font-family:'LucidaGrande', 'Lucida Grande', sans-serif;font-weight:500;font-size:12px;fill:rgb(0,155,223);">32</text>
                    <text x="192.2px" y="33.107px" style="font-family:'LucidaGrande', 'Lucida Grande', sans-serif;font-weight:500;font-size:12px;fill:rgb(0,155,223);">cm</text>
                </g>
                <g transform="matrix(1.02575e-16,1.67518,-0.5,3.06162e-17,718.321,49.7862)">
                    <path d="M158.301,12L158.301,15L152.35,11L158.301,7L158.301,10L277.549,10L277.549,7L283.5,11L277.549,15L277.549,12L158.301,12Z" style="fill:rgb(0,155,223);"/>
                </g>
                <g transform="matrix(0.943951,0,0,0.943951,535.715,401.63)">
                    <text x="192.2px" y="18.107px" style="font-family:'LucidaGrande', 'Lucida Grande', sans-serif;font-weight:500;font-size:12px;fill:rgb(0,155,223);">77,5</text>
                    <text x="192.2px" y="33.107px" style="font-family:'LucidaGrande', 'Lucida Grande', sans-serif;font-weight:500;font-size:12px;fill:rgb(0,155,223);">cm</text>
                </g>
                <g transform="matrix(1,0,0,1,-157.105,0)">
                    <g transform="matrix(7.94808e-17,1.29802,-0.5,3.06162e-17,687.321,114.247)">
                        <path d="M160.03,12L160.03,15L152.35,11L160.03,7L160.03,10L275.82,10L275.82,7L283.5,11L275.82,15L275.82,12L160.03,12Z" style="fill:rgb(0,155,223);"/>
                    </g>
                    <g transform="matrix(0.943951,0,0,0.943951,467.715,383.898)">
                        <text x="192.2px" y="18.107px" style="font-family:'LucidaGrande', 'Lucida Grande', sans-serif;font-weight:500;font-size:12px;fill:rgb(0,155,223);">60</text>
                        <text x="192.2px" y="33.107px" style="font-family:'LucidaGrande', 'Lucida Grande', sans-serif;font-weight:500;font-size:12px;fill:rgb(0,155,223);">cm</text>
                    </g>
                </g>
                <g transform="matrix(3.04411e-17,0.497141,-0.5,3.06162e-17,228.6,299.261)">
                    <path d="M172.403,12L172.403,15L152.35,11L172.403,7L172.403,10L263.447,10L263.447,7L283.5,11L263.447,15L263.447,12L172.403,12Z" style="fill:rgb(0,155,223);"/>
                </g>
                <g transform="matrix(0.943951,0,0,0.943951,45.994,394.38)">
                    <text x="192.2px" y="18.107px" style="font-family:'LucidaGrande', 'Lucida Grande', sans-serif;font-weight:500;font-size:12px;fill:rgb(0,155,223);">23</text>
                    <text x="192.2px" y="33.107px" style="font-family:'LucidaGrande', 'Lucida Grande', sans-serif;font-weight:500;font-size:12px;fill:rgb(0,155,223);">cm</text>
                </g>
                <g transform="matrix(3.04411e-17,0.497141,-0.5,3.06162e-17,228.6,228.961)">
                    <path d="M172.403,12L172.403,15L152.35,11L172.403,7L172.403,10L263.447,10L263.447,7L283.5,11L263.447,15L263.447,12L172.403,12Z" style="fill:rgb(0,155,223);"/>
                </g>
                <g transform="matrix(0.943951,0,0,0.943951,45.994,324.08)">
                    <text x="192.2px" y="18.107px" style="font-family:'LucidaGrande', 'Lucida Grande', sans-serif;font-weight:500;font-size:12px;fill:rgb(0,155,223);">23</text>
                    <text x="192.2px" y="33.107px" style="font-family:'LucidaGrande', 'Lucida Grande', sans-serif;font-weight:500;font-size:12px;fill:rgb(0,155,223);">cm</text>
                </g>
                <g transform="matrix(3.04411e-17,0.497141,-0.5,3.06162e-17,228.6,369.639)">
                    <path d="M172.403,12L172.403,15L152.35,11L172.403,7L172.403,10L263.447,10L263.447,7L283.5,11L263.447,15L263.447,12L172.403,12Z" style="fill:rgb(0,155,223);"/>
                </g>
                <g transform="matrix(0.943951,0,0,0.943951,45.994,464.759)">
                    <text x="192.2px" y="18.107px" style="font-family:'LucidaGrande', 'Lucida Grande', sans-serif;font-weight:500;font-size:12px;fill:rgb(0,155,223);">23</text>
                    <text x="192.2px" y="33.107px" style="font-family:'LucidaGrande', 'Lucida Grande', sans-serif;font-weight:500;font-size:12px;fill:rgb(0,155,223);">cm</text>
                </g>
            </g>
            <g transform="matrix(0.480442,0,0,0.480442,487.184,417.028)">
                <text x="0.001px" y="27px" style="font-family:'Oswald-Regular', 'Oswald';font-size:33.333px;fill:rgb(0,159,223);">SEITENANSICHT</text>
            </g> -->
        </g>
    </g>
</svg>
