<?xml version="1.0" encoding="UTF-8" standalone="no"?>
<!DOCTYPE svg PUBLIC "-//W3C//DTD SVG 1.1//EN" "http://www.w3.org/Graphics/SVG/1.1/DTD/svg11.dtd">
<svg width="100%" height="100%" viewBox="0 0 991 805" version="1.1" xmlns="http://www.w3.org/2000/svg" xmlns:xlink="http://www.w3.org/1999/xlink" xml:space="preserve"  style="fill-rule:evenodd;clip-rule:evenodd;stroke-linejoin:round;stroke-miterlimit:2;">
    <g transform="matrix(1,0,0,1,-1184,-1365)">
        <g id="top-view" serif:id="top view" transform="matrix(0.870671,0,0,0.870671,208.935,-642.446)">
            <g>
                <g transform="matrix(0.5,0,0,0.5,974.409,1634.44)">
                    <path d="M295.276,1417.32L2421.26,1417.32L2421.26,3188.98C2130.92,3188.99 1746.98,3183.7 1746.98,3183.7C1390.27,3183.7 1750.8,2350.88 1591,2127.64C1388.75,1845.08 918.738,2155.14 410.678,2149.21C346.823,2148.55 295.405,2096.59 295.405,2032.73C295.276,1830.24 295.276,1417.32 295.276,1417.32Z" style="fill:rgb(0,155,223);fill-opacity:0.12;stroke:rgb(0,155,223);stroke-width:4.79px;"/>
                </g>
                <g transform="matrix(2.08142,0,0,41.1165,709.866,-6658.38)">
                    <path d="M304.7,225.1L214,225.1L214,220L304.7,220L304.7,225.1Z" style="fill:rgb(0,155,223);fill-opacity:0.12;stroke:rgb(0,155,223);stroke-width:0.08px;"/>
                </g>
                <g transform="matrix(2.08142,0,0,1.21366,709.866,2257.41)">
                    <path d="M214,290.3L206.9,290.3L206.9,70.6L214,70.6L214,290.3Z" style="fill:rgb(0,155,223);fill-opacity:0.12;stroke:rgb(0,155,223);stroke-width:1.4px;"/>
                </g>
                <g transform="matrix(2.08142,0,0,1.21366,709.866,2257.41)">
                    <path d="M311.8,290.3L304.7,290.3L304.7,70.6L311.8,70.6L311.8,290.3Z" style="fill:rgb(0,155,223);fill-opacity:0.12;stroke:rgb(0,155,223);stroke-width:1.4px;"/>
                </g>
                <g transform="matrix(2.08142,0,0,4.07899,709.866,2041.35)">
                    <path d="M694.5,283.2L689.4,283.2L689.4,84.8L694.5,84.8L694.5,283.2Z" style="fill:rgb(0,155,223);fill-opacity:0.12;stroke:rgb(0,155,223);stroke-width:0.74px;"/>
                </g>
                <g transform="matrix(1.18404e-16,1.93368,-0.859283,5.26159e-17,1636.14,2085.79)">
                    <rect x="148.8" y="339.9" width="7.1" height="219.7" style="fill:rgb(0,155,223);fill-opacity:0.12;stroke:rgb(0,155,223);stroke-width:1.6px;"/>
                </g>
                <g transform="matrix(1.18404e-16,1.93368,-1.61151,9.86766e-17,2720.85,2085.79)">
                    <rect x="148.8" y="339.9" width="7.1" height="219.7" style="fill:rgb(0,155,223);fill-opacity:0.12;stroke:rgb(0,155,223);stroke-width:1.34px;"/>
                </g>
                <g transform="matrix(1.18404e-16,1.93368,-1.61151,9.86766e-17,2720.85,2908.79)">
                    <rect x="148.8" y="339.9" width="7.1" height="219.7" style="fill:rgb(0,155,223);fill-opacity:0.12;stroke:rgb(0,155,223);stroke-width:1.34px;"/>
                </g>
                <g transform="matrix(1.18404e-16,1.93368,-1.48267,9.07871e-17,2648.75,2836)">
                    <rect x="148.8" y="339.9" width="7.1" height="219.7" style="fill:rgb(0,155,223);fill-opacity:0.12;stroke:rgb(0,155,223);stroke-width:1.39px;"/>
                </g>
                <g transform="matrix(5.09307e-16,8.31762,-1.48267,9.07871e-17,2648.75,1899.8)">
                    <rect x="148.8" y="339.9" width="7.1" height="219.7" style="fill:rgb(0,155,223);fill-opacity:0.12;stroke:rgb(0,155,223);stroke-width:0.4px;"/>
                </g>
                <g transform="matrix(5.09307e-16,8.31762,-1.48267,9.07871e-17,2648.75,1899.8)">
                    <rect x="148.8" y="339.9" width="7.1" height="219.7" style="fill:rgb(0,155,223);fill-opacity:0.12;stroke:rgb(0,155,223);stroke-width:0.4px;"/>
                </g>
            </g>
            <g transform="matrix(1.27539e-16,2.08287,-2.08287,1.27539e-16,1705.15,2047.96)">
                <g transform="matrix(1.0812,0,0,0.5,-23.0215,17.2787)">
                    <path d="M161.571,12L161.571,15L152.35,11L161.571,7L161.571,10L274.279,10L274.279,7L283.5,11L274.279,15L274.279,12L161.571,12Z" style="fill:rgb(0,155,223);"/>
                </g>
                <g transform="matrix(0.944077,0,0,0.944077,17.3197,2.69753)">
                    <text x="192.2px" y="18.107px" style="font-family:'LucidaGrande', 'Lucida Grande', sans-serif;font-weight:500;font-size:12px;fill:rgb(0,155,223);">50</text>
                    <text x="192.2px" y="33.107px" style="font-family:'LucidaGrande', 'Lucida Grande', sans-serif;font-weight:500;font-size:12px;fill:rgb(0,155,223);">cm</text>
                </g>
                <g transform="matrix(4.23763e-17,-0.692057,0.499651,3.05948e-17,209.737,369.529)">
                    <path d="M166.745,12L166.745,15L152.35,11L166.745,7L166.745,10L269.105,10L269.105,7L283.5,11L269.105,15L269.105,12L166.745,12Z" style="fill:rgb(0,155,223);"/>
                </g>
                <g transform="matrix(5.776e-17,-0.943292,0.943292,5.776e-17,208.879,413.604)">
                    <text x="192.2px" y="18.107px" style="font-family:'LucidaGrande', 'Lucida Grande', sans-serif;font-weight:500;font-size:12px;fill:rgb(0,155,223);">32</text>
                    <text x="192.2px" y="33.107px" style="font-family:'LucidaGrande', 'Lucida Grande', sans-serif;font-weight:500;font-size:12px;fill:rgb(0,155,223);">cm</text>
                </g>
                <g transform="matrix(-0.976109,-1.19539e-16,6.12323e-17,-0.5,418.427,161.732)">
                    <path d="M162.563,12L162.563,15L152.35,11L162.563,7L162.563,10L273.287,10L273.287,7L283.5,11L273.287,15L273.287,12L162.563,12Z" style="fill:rgb(0,155,223);"/>
                </g>
                <g transform="matrix(5.78081e-17,-0.944077,0.944077,5.78081e-17,192.702,335.684)">
                    <text x="192.2px" y="18.107px" style="font-family:'LucidaGrande', 'Lucida Grande', sans-serif;font-weight:500;font-size:12px;fill:rgb(0,155,223);">45</text>
                    <text x="192.2px" y="33.107px" style="font-family:'LucidaGrande', 'Lucida Grande', sans-serif;font-weight:500;font-size:12px;fill:rgb(0,155,223);">cm</text>
                </g>
                <g transform="matrix(2.37194e-16,-3.87367,0.499651,3.05948e-17,129.794,867.79)">
                    <path d="M154.922,12L154.922,15L152.35,11L154.922,7L154.922,10L280.928,10L280.928,7L283.5,11L280.928,15L280.928,12L154.922,12Z" style="fill:rgb(0,155,223);"/>
                </g>
                <g transform="matrix(5.776e-17,-0.943292,0.943292,5.776e-17,115.224,231.482)">
                    <text x="198.465px" y="18.107px" style="font-family:'LucidaGrande', 'Lucida Grande', sans-serif;font-weight:500;font-size:12px;fill:rgb(0,155,223);">180 c<tspan x="231.048px " y="18.107px ">m</tspan></text>
                </g>
                <g transform="matrix(3.24279,3.47163e-32,-2.31046e-33,0.499651,-352.339,-243.052)">
                    <path d="M155.422,12L155.422,15L152.35,11L155.422,7L155.422,10L280.428,10L280.428,7L283.5,11L280.428,15L280.428,12L155.422,12Z" style="fill:rgb(0,155,223);"/>
                </g>
                <g transform="matrix(5.776e-17,-0.943292,0.943292,5.776e-17,341.135,-63.414)">
                    <text x="192.2px" y="18.107px" style="font-family:'LucidaGrande', 'Lucida Grande', sans-serif;font-weight:500;font-size:12px;fill:rgb(0,155,223);">110</text>
                    <text x="192.2px" y="33.107px" style="font-family:'LucidaGrande', 'Lucida Grande', sans-serif;font-weight:500;font-size:12px;fill:rgb(0,155,223);">cm</text>
                </g>
                <g transform="matrix(7.94622e-17,-1.29772,0.499651,3.05948e-17,169.647,143.175)">
                    <path d="M160.027,12L160.027,15L152.35,11L160.027,7L160.027,10L275.823,10L275.823,7L283.5,11L275.823,15L275.823,12L160.027,12Z" style="fill:rgb(0,155,223);"/>
                </g>
                <g transform="matrix(5.776e-17,-0.943292,0.943292,5.776e-17,168.789,55.6519)">
                    <text x="192.2px" y="18.107px" style="font-family:'LucidaGrande', 'Lucida Grande', sans-serif;font-weight:500;font-size:12px;fill:rgb(0,155,223);">60</text>
                    <text x="192.2px" y="33.107px" style="font-family:'LucidaGrande', 'Lucida Grande', sans-serif;font-weight:500;font-size:12px;fill:rgb(0,155,223);">cm</text>
                </g>
                <g transform="matrix(9.27059e-17,-1.514,0.499651,3.05948e-17,459.064,198.661)">
                    <path d="M158.93,12L158.93,15L152.35,11L158.93,7L158.93,10L276.92,10L276.92,7L283.5,11L276.92,15L276.92,12L158.93,12Z" style="fill:rgb(0,155,223);"/>
                </g>
                <g transform="matrix(5.776e-17,-0.943292,0.943292,5.776e-17,444.494,66.2041)">
                    <text x="192.2px" y="18.107px" style="font-family:'LucidaGrande', 'Lucida Grande', sans-serif;font-weight:500;font-size:12px;fill:rgb(0,155,223);">70</text>
                    <text x="192.2px" y="33.107px" style="font-family:'LucidaGrande', 'Lucida Grande', sans-serif;font-weight:500;font-size:12px;fill:rgb(0,155,223);">cm</text>
                </g>
            </g>
            <g transform="matrix(1,0,0,1,1542.32,2767.14)">
                <text x="17.067px" y="27px" style="font-family:'Oswald-Regular', 'Oswald';font-size:33.333px;fill:rgb(0,159,223);">DRAUFSICHT</text>
            </g>
        </g>
    </g>
</svg>
