<?xml version="1.0" encoding="UTF-8" standalone="no"?><!DOCTYPE svg PUBLIC "-//W3C//DTD SVG 1.1//EN" "http://www.w3.org/Graphics/SVG/1.1/DTD/svg11.dtd"><svg width="100%" height="100%" viewBox="0 0 1360 822" version="1.1" xmlns="http://www.w3.org/2000/svg" xmlns:xlink="http://www.w3.org/1999/xlink" xml:space="preserve" xmlns:serif="http://www.serif.com/" style="fill-rule:evenodd;clip-rule:evenodd;stroke-linejoin:round;stroke-miterlimit:2;"><g><path d="M1323.77,575.119l-35.778,-13.693l-0,-219.149l35.78,-13.692l-0.002,246.534Z" style="fill:#a63603;"/><path d="M1323.77,328.585l-608.255,232.769l0.078,246.263l-35.78,13.692l0,-301.002l679.814,-260.154l0.258,54.611l-0.336,246.662l-35.778,13.621l-0.001,-246.462Z" style="fill:#7d2907;"/><path d="M35.929,575.133l35.715,-13.717l-0.062,-219.053l-35.655,-13.692l0.002,246.462Z" style="fill:#7d2907;"/><path d="M0,260.153l679.813,-260.153l679.814,260.153l-679.891,260.124l-679.736,-260.124Z" style="fill:#d54f01;"/><path d="M643.956,561.291l-608.029,-232.623l-0.002,246.417l-35.842,-13.793l0.001,-246.337l0,-54.769l679.729,260.121l0,54.703l-0.067,-0.026l0.124,246.174l-35.858,-13.722l-0.056,-246.145Z" style="fill:#a63603;"/></g></svg>