<?xml version="1.0" encoding="utf-8"?>
<svg class="text-primary-900 dark:text-primary-50 fill-current justify-center" version="1.1" id="Ebene_1"
	xmlns="http://www.w3.org/2000/svg" xmlns:xlink="http://www.w3.org/1999/xlink" x="0px" y="0px" viewBox="0 0 195 70.9"
	style="enable-background:new 0 0 195 70.9; fill-rule:evenodd;clip-rule:evenodd;stroke-linejoin:round;stroke-miterlimit:2;stroke:currentColor"
	xml:space="preserve">

	<g>
		<path style="fill:currentColor; stroke:currentColor;	" class="st0" d="M192.1,34.2c0-0.4-0.1-0.8-0.1-1.1h0H146v37.6c0.3,0,0.7,0.1,1.1,0.1c0.4,0,0.8,0,1.2,0c0.4,0,0.8,0,1.2,0
		c0.4,0,0.8-0.1,1.1-0.1v0h0v-33h41.3v0h0c0-0.3,0.1-0.7,0.1-1.1c0-0.4,0-0.8,0-1.2C192.1,35.1,192.1,34.7,192.1,34.2z" />
		<path style="fill:currentColor; stroke:currentColor;	" class="st0"
			d="M78.4,0.2L78.4,0.2L78.4,0.2c-0.3-0.1-0.7-0.1-1.1-0.1c-0.4,0-0.8,0-1.2,0c-0.4,0-0.8,0-1.2,0
		c-0.4,0-0.8,0.1-1.1,0.1v0h0v70.5h0v0c0.3,0,0.7,0.1,1.1,0.1c0.4,0,0.8,0,1.2,0c0.4,0,0.8,0,1.2,0c0.4,0,0.8-0.1,1.1-0.1v0h0V0.2z" />
		<path style="fill:currentColor; stroke:currentColor;	" class="st0" d="M49.3,9.1c-3.8-3.3-7.8-5.7-12-7c-3.9-1.3-9.2-1.9-16.2-1.9h-21v0h0c0,0.3-0.1,0.6-0.1,1C0,1.6,0,2,0,2.3
		c0,0.3,0,0.7,0,1.2c0,0.4,0.1,0.8,0.1,1.1l21,0c6.4,0,11.4,0.6,14.8,1.7c3.6,1.1,7.1,3.2,10.4,6.1c6.6,5.9,9.9,13.4,9.9,22.9
		c0,9.5-3.1,17-9.5,22.8c-3.1,2.8-6.6,4.9-10.4,6.1c-3.7,1.2-8.7,1.9-15.1,1.9l-21.2,0c0,0.3-0.1,0.6-0.1,1c0,0.4,0,0.8,0,1.2
		c0,0.3,0,0.7,0,1.2c0,0.4,0.1,0.8,0.1,1.1l21.2,0c6.8,0,12.4-0.7,16.4-2.1c4.4-1.4,8.4-3.7,12-7c7.3-6.6,10.9-15.4,10.9-26.1
		C60.7,24.6,56.9,15.7,49.3,9.1z" />
		<path style="fill:currentColor; stroke:currentColor;	" class="st0"
			d="M92.4,0.2L92.4,0.2L92.4,0.2c-0.1,0.3-0.1,0.7-0.1,1.1c0,0.4,0,0.8,0,1.2c0,0.4,0,0.8,0,1.2
		c0,0.4,0.1,0.8,0.1,1.1l27.6,0v66c0.3,0,0.7,0.1,1.1,0.1c0.4,0,0.8,0,1.2,0c0.4,0,0.8,0,1.2,0c0.4,0,0.8-0.1,1.1-0.1V0.2H92.4z" />
		<g>
			<path style="fill:currentColor; stroke:currentColor;	" class="st0" d="M194.9,0.2c0,0.3,0.1,0.7,0.1,1.1c0,0.4,0,0.8,0,1.2c0,0.4,0,0.8,0,1.2c0,0.4-0.1,0.8-0.1,1.1H146
			c0-0.3-0.1-0.7-0.1-1.1c0-0.4,0-0.8,0-1.2c0-0.4,0-0.9,0-1.3c0-0.4,0.1-0.8,0.1-1H194.9z" />
		</g>
	</g>
</svg>