<?xml version="1.0" encoding="UTF-8" standalone="no"?>
<!DOCTYPE svg PUBLIC "-//W3C//DTD SVG 1.1//EN" "http://www.w3.org/Graphics/SVG/1.1/DTD/svg11.dtd">
<svg width="100%" height="100%" viewBox="0 0 231 231" version="1.1" xmlns="http://www.w3.org/2000/svg" xmlns:xlink="http://www.w3.org/1999/xlink" xml:space="preserve" xmlns:serif="http://www.serif.com/" style="fill-rule:evenodd;clip-rule:evenodd;stroke-linejoin:round;stroke-miterlimit:2;">
    <g transform="matrix(1,0,0,1,-2772,-1745)">
        <g transform="matrix(0.360486,0,0,0.360486,2556.13,1408.1)">
            <g transform="matrix(3.24282,0,0,3.42408,-3838.87,-4025.88)">
                <path d="M1556.94,1627.43C1550.07,1642.58 1513.98,1631.42 1509.74,1630.89C1504.49,1630.23 1499.26,1628.37 1493.98,1628.84C1486.43,1629.52 1478.7,1626.67 1471.09,1625.37C1463.09,1624 1455.08,1620.73 1447.14,1619.06C1442.85,1618.15 1438.58,1619.03 1434.33,1617.94C1420.76,1614.45 1407,1610.7 1395.23,1602.89C1386.83,1597.32 1379.35,1589.34 1374.56,1580.23C1368.65,1569 1366.81,1556.05 1372.31,1543.7C1377.66,1531.68 1388.65,1524.48 1400.93,1521.42C1403.67,1520.74 1409.75,1521.78 1412.57,1521.51C1418.28,1520.94 1420.79,1519.67 1426.24,1520.67C1434.96,1522.27 1441.09,1523.72 1447.38,1529.81C1454.31,1536.52 1468.04,1540.39 1475.48,1546.05C1479.46,1549.09 1484.14,1551.42 1487.34,1555.28C1489.86,1558.32 1493.26,1560.94 1497.29,1563.25C1502.87,1566.47 1507.27,1571.39 1512.25,1575.46C1516.71,1579.11 1521,1582.97 1525.28,1586.83C1527.27,1588.62 1564.28,1611.24 1556.94,1627.43ZM1531.52,1618.5C1536.13,1619.19 1521.91,1606.45 1521.15,1605.55C1519.52,1603.62 1517.57,1601.97 1515.57,1600.43C1509.83,1596 1502.54,1595.15 1497.13,1590.95C1494.21,1588.68 1492.19,1585.34 1489.13,1583.25C1485.52,1580.78 1481.06,1579.78 1477.36,1577.43C1472.46,1574.32 1468.3,1570.16 1463.47,1566.95C1461.8,1565.84 1459.81,1570.55 1457.32,1569.12C1451.09,1565.53 1450.13,1561.15 1443.89,1557.24C1438.03,1553.57 1431.53,1551.03 1425.3,1548.05C1422.24,1546.59 1419.33,1544.66 1416.05,1543.82C1410.86,1542.5 1408.69,1545.74 1403.49,1544.51C1401.22,1543.98 1399.41,1542.24 1397.33,1541.17C1396.68,1540.84 1393.59,1538.69 1392.64,1540.75C1387.52,1551.82 1396.03,1560.99 1406.16,1564.79C1409.54,1566.05 1416.74,1563.32 1419.82,1566.65C1425.21,1572.49 1422.4,1573.98 1426.96,1580.23C1432.77,1588.2 1438.7,1588.13 1447.14,1589.75C1449.68,1590.24 1448.8,1594.71 1450.14,1596.93C1451.35,1598.93 1452.71,1601.06 1454.73,1602.25C1461.08,1605.96 1473.15,1608.33 1480.11,1610.14C1483.25,1610.96 1488.14,1613.12 1489.37,1612.36C1490.6,1611.59 1488.02,1607.85 1487.49,1605.56C1486.28,1600.34 1490.46,1600.62 1495.51,1600.43C1508.98,1599.92 1522.42,1617.12 1531.52,1618.5Z" style="fill:rgb(251,251,250);"/>
            </g>
            <g transform="matrix(3.24282,0,0,3.42408,-3838.87,-4025.88)">
                <path d="M1386.1,1523.96C1398.94,1504.11 1439.04,1506.89 1459.23,1513.25C1466.11,1515.41 1468.67,1522.8 1474.69,1526.11C1486.43,1532.57 1488.22,1531.7 1494,1536.68C1493.54,1539.88 1506.58,1549.47 1506.88,1551.49C1507.21,1553.66 1505.7,1558.22 1506.58,1560.2C1507.04,1561.25 1507.5,1562.29 1507.93,1563.34C1503.96,1560.07 1499.05,1558.44 1496.02,1553.94C1493.66,1550.44 1489.46,1548.69 1486.12,1547.02C1474.3,1541.1 1464.43,1532.65 1456.18,1527.63C1452.1,1525.14 1450.01,1521.23 1446.27,1519.69C1433.51,1514.42 1427.5,1512.65 1418.16,1515.21C1413.13,1516.58 1407.36,1516.02 1402.7,1516.14C1396.37,1516.31 1390.93,1520.45 1386.1,1523.96ZM1534.9,1572.53C1540.99,1578.64 1547.57,1587.1 1552.43,1593.24C1553.58,1594.69 1559.26,1597.6 1561.74,1600.75C1564.16,1603.8 1563.38,1607.09 1564.94,1608.77C1568.56,1612.63 1562.11,1621.11 1561.74,1621.6C1561.06,1617.75 1561.44,1611.58 1558.46,1608.77C1550.98,1601.7 1542.25,1593.62 1532.87,1585.24C1534.34,1581.52 1534.53,1575.87 1534.9,1572.53Z" style="fill:rgb(251,251,250);"/>
            </g>
            <g transform="matrix(1.80312,0,0,1.80312,-2423.52,-981.918)">
                <path d="M1976.46,1144.55C1964.74,1150.65 1951.79,1149.66 1944.6,1141.09C1942.73,1138.86 1941.39,1136.29 1940.57,1133.5C1937.39,1122.8 1941.78,1108.95 1952.39,1099.16C1957.52,1094.42 1965.16,1089.29 1973.86,1084.21C1974.82,1083.65 1975.8,1083.09 1976.78,1082.52C1990.4,1074.78 2026.94,1055.73 2031.14,1065.92C2034.74,1074.63 2009.7,1097.12 2002.5,1108.56C1997.22,1116.95 1992.91,1129 1987.95,1134.55C1984.55,1138.36 1979.51,1142.95 1976.46,1144.55Z" style="fill:rgb(242,218,94);"/>
            </g>
            <g transform="matrix(-0.871386,0.370961,0.391697,0.920094,2408.91,-4085.88)">
                <path d="M3524.89,4241.56C3507.47,4258.74 3483.51,4264.5 3465.32,4254C3460.59,4251.26 3456.61,4247.64 3453.43,4243.36C3441.19,4226.9 3440.68,4200.7 3453.87,4177.87C3460.24,4166.83 3470.91,4153.65 3483.51,4139.96C3484.91,4138.44 3486.32,4136.92 3487.76,4135.4C3507.62,4114.33 3551.9,4067.34 3575.52,4074.52C3594.89,4080.4 3555.99,4141.17 3549.99,4165.06C3545.63,4182.46 3545.13,4205.52 3539.55,4217.86C3535.73,4226.32 3529.44,4237.07 3524.89,4241.56Z" style="fill:rgb(242,218,94);"/>
            </g>
            <g transform="matrix(1.80312,0,0,1.80312,-2409.72,-991.332)">
                <path d="M1952.63,1164.14L1967.03,1178.96C1970.94,1183.14 1970.36,1191.69 1972.84,1196.84C1977.62,1206.74 1979.01,1216.46 1977.87,1226.8C1976.82,1236.4 1972.67,1244.42 1966.56,1252.61L1962.65,1257.85C1960.2,1260.38 1957.92,1267.87 1957.32,1276.14L1959.14,1288.53L1958.81,1309.18C1958.92,1312.49 1957.92,1315.58 1956.15,1318.09C1955.77,1317.77 1955.39,1317.43 1955.01,1317.04C1949.29,1311.33 1942.48,1306.8 1936.27,1300.58C1933.74,1298.05 1932.05,1295.31 1929.09,1293.08L1926.93,1277.66C1926.59,1275.25 1926.71,1272.79 1927.3,1270.43C1928.13,1267.09 1929.57,1263.78 1930.47,1260.61C1932.08,1254.98 1935.72,1245.17 1939.27,1240.41L1943.18,1235.17C1950.86,1224.88 1950.06,1210.57 1941.29,1201.19L1930.2,1182.89C1928.7,1181.3 1927.63,1179.45 1926.99,1177.5C1928.22,1176.29 1929.35,1174.97 1930.37,1173.55C1932.9,1170 1934.62,1166.01 1935.53,1161.76C1935.71,1160.93 1935.86,1160.08 1935.97,1159.22C1940.84,1162.28 1946.57,1163.95 1952.63,1164.14Z" style="fill:rgb(217,200,180);"/>
            </g>
        </g>
    </g>
</svg>
