<svg width="100%" height="100%" viewBox="0 0 343 210" version="1.1" xmlns="http://www.w3.org/2000/svg"
  xmlns:xlink="http://www.w3.org/1999/xlink" xml:space="preserve" xmlns:serif="http://www.serif.com/"
  style="fill-rule:evenodd;clip-rule:evenodd;stroke-linecap:round;stroke-linejoin:round;stroke-miterlimit:10;">
  <g id="Mechanism">
    <path d="M149.468,200.726c1.222,0.533 2.852,0.644 4.258,0.289"
      style="fill:none;fill-rule:nonzero;stroke:currentColor;stroke-width:1.44px;" />
    <path d="M54.181,71.691c-2.37,2.821 -4.432,5.725 -6.175,8.694"
      style="fill:none;fill-rule:nonzero;stroke:currentColor;stroke-width:1.44px;" />
    <path d="M110.028,38.155c-4.79,1.478 -9.416,3.128 -13.849,4.939"
      style="fill:none;fill-rule:nonzero;stroke:currentColor;stroke-width:1.44px;" />
    <path d="M189.373,29.968c-5.381,-0.429 -10.803,-0.663 -16.235,-0.702"
      style="fill:none;fill-rule:nonzero;stroke:currentColor;stroke-width:1.44px;" />
    <path d="M261.864,50.245c-3.906,-2.165 -8.042,-4.188 -12.383,-6.056"
      style="fill:none;fill-rule:nonzero;stroke:currentColor;stroke-width:1.44px;" />
    <path d="M299.597,90.341c-0.919,-2.764 -2.107,-5.497 -3.557,-8.185"
      style="fill:none;fill-rule:nonzero;stroke:currentColor;stroke-width:1.44px;" />
    <path
      d="M300.008,96.061c-11.087,-36.241 -65.952,-62.541 -129.711,-62.177c-63.758,0.363 -117.713,27.283 -127.558,63.644"
      style="fill:none;fill-rule:nonzero;stroke:currentColor;stroke-width:1.44px;" />
    <path
      d="M1.398,103.956c-0.357,35.216 31.991,67.845 84.775,85.513c52.784,17.668 117.92,17.668 170.704,0c52.784,-17.668 85.132,-50.297 84.775,-85.513"
      style="fill:none;fill-rule:nonzero;stroke:currentColor;stroke-width:1.44px;" />
    <path d="M1.455,109.15c0,54.229 76.17,98.19 170.13,98.19c93.96,-0 170.13,-43.961 170.13,-98.19"
      style="fill:none;fill-rule:nonzero;stroke:currentColor;stroke-width:1.44px;" />
    <path d="M1.395,109.18l-0,-4.62" style="fill:none;fill-rule:nonzero;stroke:currentColor;stroke-width:1.44px;" />
    <path d="M341.655,109.18l-0,-4.62" style="fill:none;fill-rule:nonzero;stroke:currentColor;stroke-width:1.44px;" />
    <path d="M3.489,114.547c13.088,47.706 84.348,82.833 168.036,82.833c83.688,0 154.948,-35.127 168.036,-82.833"
      style="fill:none;fill-rule:nonzero;stroke:currentColor;stroke-width:0.72px;" />
    <path
      d="M51.709,167.929c66.206,38.228 173.546,38.228 239.752,-0c66.205,-38.229 66.205,-100.209 -0,-138.438c-66.206,-38.228 -173.546,-38.228 -239.752,0c-66.205,38.229 -66.205,100.209 0,138.438"
      style="fill:none;fill-rule:nonzero;stroke:currentColor;stroke-width:0.72px;" />
    <path d="M136.289,11.504c0.881,-0.619 1.014,-1.485 0.336,-2.184"
      style="fill:none;fill-rule:nonzero;stroke:currentColor;stroke-width:0.72px;" />
    <path d="M129.323,13.861c-17.243,5.758 -32.454,13.338 -44.84,22.342"
      style="fill:none;fill-rule:nonzero;stroke:currentColor;stroke-width:0.72px;" />
    <path d="M76.799,35.627c-0.789,0.845 -0.393,1.895 0.934,2.475c1.327,0.581 3.192,0.52 4.396,-0.143"
      style="fill:none;fill-rule:nonzero;stroke:currentColor;stroke-width:0.72px;" />
    <path d="M125.145,10.697c-17.673,5.979 -33.271,13.8 -46.002,23.066"
      style="fill:none;fill-rule:nonzero;stroke:currentColor;stroke-width:0.72px;" />
    <path
      d="M264.223,45.232c-51.163,-29.536 -134.113,-29.536 -185.276,-0c-51.163,29.535 -51.163,77.421 -0,106.956c51.163,29.536 134.113,29.536 185.276,0c51.163,-29.535 51.163,-77.421 0,-106.956"
      style="fill:none;fill-rule:nonzero;stroke:currentColor;stroke-width:0.72px;" />
    <path d="M18.791,95.964c4.185,11.157 11.944,21.764 22.878,31.275"
      style="fill:none;fill-rule:nonzero;stroke:currentColor;stroke-width:0.72px;" />
    <path d="M38.276,131.258c1.153,0.693 3.011,0.801 4.381,0.254c1.37,-0.546 1.846,-1.585 1.121,-2.449"
      style="fill:none;fill-rule:nonzero;stroke:currentColor;stroke-width:0.72px;" />
    <path d="M12.154,96.775c4.362,11.648 12.456,22.723 23.865,32.654"
      style="fill:none;fill-rule:nonzero;stroke:currentColor;stroke-width:0.72px;" />
    <path d="M288.916,157.407c-0.024,0.627 0.477,1.222 1.347,1.6c0.871,0.377 2.004,0.491 3.045,0.306"
      style="fill:none;fill-rule:nonzero;stroke:currentColor;stroke-width:0.72px;" />
    <path d="M292.991,151.899c7.553,-10.198 11.837,-21.101 12.644,-32.181"
      style="fill:none;fill-rule:nonzero;stroke:currentColor;stroke-width:0.72px;" />
    <path d="M312.524,117.647c-0.225,-0.95 -1.618,-1.666 -3.285,-1.687c-1.667,-0.02 -3.113,0.659 -3.41,1.603"
      style="fill:none;fill-rule:nonzero;stroke:currentColor;stroke-width:0.72px;" />
    <path d="M298.728,154.12c8.175,-10.815 12.813,-22.41 13.678,-34.2"
      style="fill:none;fill-rule:nonzero;stroke:currentColor;stroke-width:0.72px;" />
    <path d="M231.916,16.165c0.941,-0.155 1.72,-0.536 2.137,-1.045c0.416,-0.51 0.43,-1.098 0.036,-1.614"
      style="fill:none;fill-rule:nonzero;stroke:currentColor;stroke-width:0.72px;" />
    <path d="M223.803,15.774c-19.813,-1.192 -39.838,-0.221 -59.029,2.861"
      style="fill:none;fill-rule:nonzero;stroke:currentColor;stroke-width:0.72px;" />
    <path d="M159.132,15.534c-1.502,0.416 -2.254,1.399 -1.773,2.318c0.48,0.918 2.051,1.5 3.703,1.37"
      style="fill:none;fill-rule:nonzero;stroke:currentColor;stroke-width:0.72px;" />
    <path d="M222.689,11.731c-20.108,-1.08 -40.388,-0.028 -59.84,3.106"
      style="fill:none;fill-rule:nonzero;stroke:currentColor;stroke-width:0.72px;" />
    <path d="M206.364,186.397c-0.403,0.505 -0.412,1.086 -0.024,1.595c0.387,0.509 1.135,0.899 2.054,1.072"
      style="fill:none;fill-rule:nonzero;stroke:currentColor;stroke-width:0.72px;" />
    <path d="M215.599,182.945c16.533,-5.691 31.135,-13.07 43.095,-21.777"
      style="fill:none;fill-rule:nonzero;stroke:currentColor;stroke-width:0.72px;" />
    <path d="M266.311,161.853c0.789,-0.845 0.393,-1.895 -0.934,-2.475c-1.327,-0.581 -3.192,-0.52 -4.396,0.143"
      style="fill:none;fill-rule:nonzero;stroke:currentColor;stroke-width:0.72px;" />
    <path d="M217.746,186.797c17.757,-5.986 33.428,-13.831 46.211,-23.132"
      style="fill:none;fill-rule:nonzero;stroke:currentColor;stroke-width:0.72px;" />
    <path d="M50.822,44.646c-7.976,10.446 -12.502,21.659 -13.343,33.064"
      style="fill:none;fill-rule:nonzero;stroke:currentColor;stroke-width:0.72px;" />
    <path d="M30.586,79.833c0.225,0.95 1.618,1.666 3.285,1.687c1.667,0.02 3.113,-0.659 3.41,-1.603"
      style="fill:none;fill-rule:nonzero;stroke:currentColor;stroke-width:0.72px;" />
    <path d="M44.631,43.033c-8.325,10.901 -13.048,22.605 -13.926,34.508"
      style="fill:none;fill-rule:nonzero;stroke:currentColor;stroke-width:0.72px;" />
    <path d="M44.987,148.191c14.779,7.643 31.91,13.619 50.504,17.619"
      style="fill:none;fill-rule:nonzero;stroke:currentColor;stroke-width:0.72px;" />
    <path d="M96.882,170.289c1.641,0.171 3.254,-0.371 3.803,-1.276c0.55,-0.906 -0.127,-1.907 -1.595,-2.361"
      style="fill:none;fill-rule:nonzero;stroke:currentColor;stroke-width:0.72px;" />
    <path d="M40.747,151.287c15.35,7.905 33.117,14.09 52.391,18.236"
      style="fill:none;fill-rule:nonzero;stroke:currentColor;stroke-width:0.72px;" />
    <path d="M326.228,106.352c0.616,0.517 1.628,0.833 2.718,0.847c1.09,0.015 2.125,-0.273 2.783,-0.773"
      style="fill:none;fill-rule:nonzero;stroke:currentColor;stroke-width:0.72px;" />
    <path d="M324.248,101.327c-4.203,-11.091 -11.939,-21.634 -22.815,-31.094"
      style="fill:none;fill-rule:nonzero;stroke:currentColor;stroke-width:0.72px;" />
    <path d="M304.834,66.222c-1.153,-0.693 -3.011,-0.801 -4.381,-0.254c-1.37,0.546 -1.846,1.585 -1.121,2.449"
      style="fill:none;fill-rule:nonzero;stroke:currentColor;stroke-width:0.72px;" />
    <path d="M330.518,99.568c-4.463,-11.253 -12.418,-21.946 -23.48,-31.562"
      style="fill:none;fill-rule:nonzero;stroke:currentColor;stroke-width:0.72px;" />
    <path d="M300.911,45.393c-15.044,-7.566 -32.331,-13.5 -51.029,-17.516"
      style="fill:none;fill-rule:nonzero;stroke:currentColor;stroke-width:0.72px;" />
    <path d="M304.483,52.426c1.024,0.211 2.16,0.126 3.057,-0.227c0.897,-0.353 1.445,-0.932 1.474,-1.557"
      style="fill:none;fill-rule:nonzero;stroke:currentColor;stroke-width:0.72px;" />
    <path d="M298.305,49.323c-14.817,-7.686 -32.006,-13.693 -50.672,-17.709"
      style="fill:none;fill-rule:nonzero;stroke:currentColor;stroke-width:0.72px;" />
    <path d="M246.228,27.191c-1.641,-0.171 -3.254,0.371 -3.803,1.276c-0.55,0.906 0.127,1.907 1.595,2.361"
      style="fill:none;fill-rule:nonzero;stroke:currentColor;stroke-width:0.72px;" />
    <path d="M109.169,182.235c-0.663,0.679 -0.56,1.52 0.262,2.139"
      style="fill:none;fill-rule:nonzero;stroke:currentColor;stroke-width:0.72px;" />
    <path d="M120.519,181.777c19.446,1.082 39.072,0.084 57.891,-2.944"
      style="fill:none;fill-rule:nonzero;stroke:currentColor;stroke-width:0.72px;" />
    <path d="M183.978,181.946c1.502,-0.416 2.254,-1.399 1.773,-2.318c-0.48,-0.918 -2.051,-1.5 -3.703,-1.37"
      style="fill:none;fill-rule:nonzero;stroke:currentColor;stroke-width:0.72px;" />
    <path d="M119.252,185.683c20.466,1.185 41.134,0.157 60.948,-3.031"
      style="fill:none;fill-rule:nonzero;stroke:currentColor;stroke-width:0.72px;" />
    <path d="M1.455,103.33c0,54.229 76.17,98.19 170.13,98.19c93.96,0 170.13,-43.961 170.13,-98.19"
      style="fill:none;fill-rule:nonzero;stroke:currentColor;stroke-width:1.44px;" />
    <path d="M82.477,37.688c-0.122,-0.045 -0.238,-0.038 -0.323,0.018"
      style="fill:none;fill-rule:nonzero;stroke:currentColor;stroke-width:0.72px;" />
    <path d="M77.488,35.984c-0.012,-0.24 -0.188,-0.5 -0.415,-0.612"
      style="fill:none;fill-rule:nonzero;stroke:currentColor;stroke-width:0.72px;" />
    <path d="M77.462,36.015c-0.325,0.264 -0.507,0.577 -0.525,0.901"
      style="fill:none;fill-rule:nonzero;stroke:currentColor;stroke-width:0.72px;" />
    <path d="M125.159,11.575c-17.514,5.947 -32.974,13.71 -45.603,22.899"
      style="fill:none;fill-rule:nonzero;stroke:currentColor;stroke-width:0.72px;" />
    <path d="M181.662,179.025c-0.002,-0.241 -0.067,-0.545 -0.154,-0.716"
      style="fill:none;fill-rule:nonzero;stroke:currentColor;stroke-width:0.72px;" />
    <path d="M120.878,182.637c19.384,1.051 38.938,0.041 57.691,-2.98"
      style="fill:none;fill-rule:nonzero;stroke:currentColor;stroke-width:0.72px;" />
    <path d="M183.469,182.053c-0.034,-0.057 -0.068,-0.087 -0.097,-0.085"
      style="fill:none;fill-rule:nonzero;stroke:currentColor;stroke-width:0.72px;" />
    <path d="M185.343,180.516c-0.076,-0.465 -0.489,-0.891 -1.138,-1.17c-0.648,-0.279 -1.471,-0.386 -2.264,-0.293"
      style="fill:none;fill-rule:nonzero;stroke:currentColor;stroke-width:0.72px;" />
    <path d="M181.635,182.14l0,-2.88" style="fill:none;fill-rule:nonzero;stroke:currentColor;stroke-width:0.72px;" />
    <path d="M300.33,87.418c-10.033,-36.57 -64.655,-63.498 -128.805,-63.498c-64.15,-0 -118.772,26.928 -128.805,63.498"
      style="fill:none;fill-rule:nonzero;stroke:currentColor;stroke-width:0.72px;" />
    <path d="M301.945,101.245c-1.956,-40.743 -59.744,-73.185 -130.36,-73.185c-70.616,-0 -128.404,32.442 -130.36,73.185"
      style="fill:none;fill-rule:nonzero;stroke:currentColor;stroke-width:1.44px;" />
    <path d="M246.752,27.291c-0.09,0.17 -0.163,0.473 -0.171,0.713"
      style="fill:none;fill-rule:nonzero;stroke:currentColor;stroke-width:0.72px;" />
    <path d="M299.886,45.81c-14.85,-7.385 -31.862,-13.184 -50.236,-17.125"
      style="fill:none;fill-rule:nonzero;stroke:currentColor;stroke-width:0.72px;" />
    <path d="M244.653,30.891c-0.029,-0.003 -0.064,0.027 -0.1,0.084"
      style="fill:none;fill-rule:nonzero;stroke:currentColor;stroke-width:0.72px;" />
    <path d="M246.304,27.988c-0.804,-0.115 -1.654,-0.021 -2.329,0.257c-0.675,0.277 -1.108,0.711 -1.187,1.188"
      style="fill:none;fill-rule:nonzero;stroke:currentColor;stroke-width:0.72px;" />
    <path d="M307.575,52.06l0,-0.24" style="fill:none;fill-rule:nonzero;stroke:currentColor;stroke-width:0.72px;" />
    <path d="M246.555,31.12l0,-2.88" style="fill:none;fill-rule:nonzero;stroke:currentColor;stroke-width:0.72px;" />
    <path d="M300.627,50.321c-0.405,-0.204 -0.812,-0.407 -1.221,-0.609"
      style="fill:none;fill-rule:nonzero;stroke:currentColor;stroke-width:1.44px;" />
    <path d="M43.503,128.797c-0.231,0.108 -0.413,0.363 -0.429,0.6"
      style="fill:none;fill-rule:nonzero;stroke:currentColor;stroke-width:0.72px;" />
    <path d="M18.254,96.434c4.196,11.21 11.985,21.868 22.965,31.424"
      style="fill:none;fill-rule:nonzero;stroke:currentColor;stroke-width:0.72px;" />
    <path d="M38.256,131.021c-0.086,-0.062 -0.206,-0.072 -0.334,-0.028"
      style="fill:none;fill-rule:nonzero;stroke:currentColor;stroke-width:0.72px;" />
    <path d="M43.574,130.34c-0.016,-0.302 -0.175,-0.596 -0.459,-0.849"
      style="fill:none;fill-rule:nonzero;stroke:currentColor;stroke-width:0.72px;" />
    <path d="M17.179,97.502c3.818,12.24 11.893,23.905 23.737,34.291"
      style="fill:none;fill-rule:nonzero;stroke:currentColor;stroke-width:1.44px;" />
    <path d="M43.035,131.08l-0,-1.5" style="fill:none;fill-rule:nonzero;stroke:currentColor;stroke-width:0.72px;" />
    <path d="M299.916,68.681c-0.086,-0.062 -0.206,-0.072 -0.334,-0.028"
      style="fill:none;fill-rule:nonzero;stroke:currentColor;stroke-width:0.72px;" />
    <path d="M305.163,66.457c-0.231,0.108 -0.413,0.363 -0.429,0.6"
      style="fill:none;fill-rule:nonzero;stroke:currentColor;stroke-width:0.72px;" />
    <path d="M304.503,66.886c-0.746,-0.48 -1.906,-0.663 -2.969,-0.471c-1.063,0.193 -1.835,0.727 -1.976,1.366"
      style="fill:none;fill-rule:nonzero;stroke:currentColor;stroke-width:0.72px;" />
    <path d="M329.697,99.399c-4.506,-10.96 -12.345,-21.372 -23.153,-30.752"
      style="fill:none;fill-rule:nonzero;stroke:currentColor;stroke-width:0.72px;" />
    <path d="M306.313,118.302c-0.022,-0.221 -0.244,-0.399 -0.524,-0.42"
      style="fill:none;fill-rule:nonzero;stroke:currentColor;stroke-width:0.72px;" />
    <path d="M294.005,151.753c7.268,-10.049 11.39,-20.763 12.173,-31.644"
      style="fill:none;fill-rule:nonzero;stroke:currentColor;stroke-width:0.72px;" />
    <path d="M312.481,117.941c-0.274,0.013 -0.493,0.178 -0.523,0.393"
      style="fill:none;fill-rule:nonzero;stroke:currentColor;stroke-width:0.72px;" />
    <path d="M311.98,118.074c-0.216,-0.796 -1.393,-1.385 -2.784,-1.394c-1.391,-0.009 -2.59,0.565 -2.836,1.358"
      style="fill:none;fill-rule:nonzero;stroke:currentColor;stroke-width:0.72px;" />
    <path d="M289.755,158.5l0,-0.12" style="fill:none;fill-rule:nonzero;stroke:currentColor;stroke-width:0.72px;" />
    <path d="M295.457,153.875c6.751,-10.013 10.413,-20.631 10.82,-31.374"
      style="fill:none;fill-rule:nonzero;stroke:currentColor;stroke-width:1.44px;" />
    <path d="M306.255,122.32l-0,-3.78" style="fill:none;fill-rule:nonzero;stroke:currentColor;stroke-width:0.72px;" />
    <path d="M98.552,166.491c-0.09,0.17 -0.163,0.473 -0.171,0.713"
      style="fill:none;fill-rule:nonzero;stroke:currentColor;stroke-width:0.72px;" />
    <path d="M44.957,149.11c14.759,7.593 31.837,13.534 50.36,17.52"
      style="fill:none;fill-rule:nonzero;stroke:currentColor;stroke-width:0.72px;" />
    <path d="M96.453,170.091c-0.029,-0.003 -0.064,0.027 -0.1,0.084"
      style="fill:none;fill-rule:nonzero;stroke:currentColor;stroke-width:0.72px;" />
    <path d="M100.33,168.688c-0.067,-0.626 -0.742,-1.176 -1.741,-1.419"
      style="fill:none;fill-rule:nonzero;stroke:currentColor;stroke-width:0.72px;" />
    <path d="M41.38,151.412c0.735,0.402 1.478,0.801 2.226,1.195"
      style="fill:none;fill-rule:nonzero;stroke:currentColor;stroke-width:1.44px;" />
    <path d="M98.355,170.02l0,-2.58" style="fill:none;fill-rule:nonzero;stroke:currentColor;stroke-width:0.72px;" />
    <path d="M233.835,14.765c-0,-0.03 -0.002,-0.06 -0.005,-0.09"
      style="fill:none;fill-rule:nonzero;stroke:currentColor;stroke-width:0.72px;" />
    <path d="M161.629,19.153c-0.034,-0.057 -0.068,-0.087 -0.097,-0.085"
      style="fill:none;fill-rule:nonzero;stroke:currentColor;stroke-width:0.72px;" />
    <path d="M159.822,16.125c-0.002,-0.241 -0.067,-0.545 -0.154,-0.716"
      style="fill:none;fill-rule:nonzero;stroke:currentColor;stroke-width:0.72px;" />
    <path d="M159.611,16.164c-1.054,0.227 -1.778,0.791 -1.85,1.441"
      style="fill:none;fill-rule:nonzero;stroke:currentColor;stroke-width:0.72px;" />
    <path d="M222.245,12.549c-19.92,-1.042 -40.001,0.014 -59.266,3.118"
      style="fill:none;fill-rule:nonzero;stroke:currentColor;stroke-width:0.72px;" />
    <path d="M37.321,79.601c-0.274,0.013 -0.493,0.178 -0.523,0.393"
      style="fill:none;fill-rule:nonzero;stroke:currentColor;stroke-width:0.72px;" />
    <path d="M31.153,79.962c-0.022,-0.221 -0.244,-0.399 -0.524,-0.42"
      style="fill:none;fill-rule:nonzero;stroke:currentColor;stroke-width:0.72px;" />
    <path d="M31.096,80.016c-0.001,0.011 -0.001,0.021 -0.001,0.032"
      style="fill:none;fill-rule:nonzero;stroke:currentColor;stroke-width:0.72px;" />
    <path d="M45.061,43.741c-8.26,10.84 -12.946,22.474 -13.817,34.305"
      style="fill:none;fill-rule:nonzero;stroke:currentColor;stroke-width:0.72px;" />
    <path d="M206.602,187.575c-0.004,0.037 -0.007,0.073 -0.007,0.109"
      style="fill:none;fill-rule:nonzero;stroke:currentColor;stroke-width:0.72px;" />
    <path d="M261.088,160.364c-0.012,-0.24 -0.188,-0.5 -0.415,-0.612"
      style="fill:none;fill-rule:nonzero;stroke:currentColor;stroke-width:0.72px;" />
    <path d="M216.583,183.489c16.313,-5.685 30.729,-13.014 42.562,-21.638"
      style="fill:none;fill-rule:nonzero;stroke:currentColor;stroke-width:0.72px;" />
    <path d="M266.077,162.068c-0.122,-0.045 -0.238,-0.038 -0.323,0.018"
      style="fill:none;fill-rule:nonzero;stroke:currentColor;stroke-width:0.72px;" />
    <path d="M266.153,161.205c-0.136,-0.628 -0.881,-1.156 -1.918,-1.359c-1.036,-0.202 -2.181,-0.043 -2.947,0.41"
      style="fill:none;fill-rule:nonzero;stroke:currentColor;stroke-width:0.72px;" />
    <path d="M241.604,176.847c7.128,-3.753 13.651,-7.871 19.489,-12.305"
      style="fill:none;fill-rule:nonzero;stroke:currentColor;stroke-width:1.44px;" />
    <path d="M261.075,164.38l-0,-3.72" style="fill:none;fill-rule:nonzero;stroke:currentColor;stroke-width:0.72px;" />
    <path d="M58.774,18.468c-0.025,-0.014 -0.05,-0.026 -0.077,-0.035"
      style="fill:none;fill-rule:nonzero;stroke:currentColor;stroke-width:0.72px;" />
    <path d="M58.755,18.46l0.12,0.06l0.12,-0l0.12,0.06l0.06,0.06"
      style="fill:none;fill-rule:nonzero;stroke:currentColor;stroke-width:0.72px;" />
    <path d="M56.624,18.748c-0.105,-0.062 -0.207,-0.077 -0.289,-0.044"
      style="fill:none;fill-rule:nonzero;stroke:currentColor;stroke-width:0.72px;" />
    <path
      d="M56.595,18.76l0.12,-0.06l0.18,-0.06l0.12,-0.06l0.18,-0.06l0.12,-0.06l0.12,0l0.18,-0.06l0.9,0l0.12,0.06l0.12,0"
      style="fill:none;fill-rule:nonzero;stroke:currentColor;stroke-width:0.72px;" />
    <path d="M37.719,29.486c-0.133,-0.057 -0.261,-0.058 -0.358,-0.002"
      style="fill:none;fill-rule:nonzero;stroke:currentColor;stroke-width:0.72px;" />
    <path d="M55.565,19.264c-6.036,2.993 -11.718,6.217 -17.006,9.649"
      style="fill:none;fill-rule:nonzero;stroke:currentColor;stroke-width:0.72px;" />
    <path d="M35.779,31.466c-0.142,-0.069 -0.236,-0.099 -0.258,-0.082"
      style="fill:none;fill-rule:nonzero;stroke:currentColor;stroke-width:0.72px;" />
    <path
      d="M35.475,37.6l-0.12,-0.06l-0.06,-0.06l-0.12,-0.06l-0.18,-0.36l0,-0.12l-0.06,-0.12l-0,-0.12l-0.06,-0.18l0,-1.98l0.06,-0.12l-0,-0.24l0.06,-0.24l0,-0.24l0.06,-0.3l0.18,-0.72l0.12,-0.24l0.06,-0.24l0.3,-0.6l0.06,-0.06l0.24,-0.36l0.06,-0.12l0.12,-0.18l0.24,-0.24l0.12,-0.18l0.72,-0.72l0.18,-0.06l0.12,-0.12l0.12,-0.06"
      style="fill:none;fill-rule:nonzero;stroke:currentColor;stroke-width:0.72px;" />
    <path d="M59.535,20.5l-2.82,-1.62" style="fill:none;fill-rule:nonzero;stroke:currentColor;stroke-width:0.72px;" />
    <path d="M63.093,23.343c0.192,-1.252 -0.073,-2.287 -0.722,-2.819c-0.65,-0.533 -1.616,-0.508 -2.634,0.067"
      style="fill:none;fill-rule:nonzero;stroke:currentColor;stroke-width:1.44px;" />
    <path
      d="M43.095,34.6l0,-0.12l-0.06,-0.06l-0,-0.42l0.06,-0.12l0,-0.18l0.06,-0.12l-0,-0.06l0.06,-0.12l0.06,-0.06l-0,-0.12l0.06,-0.12l0.06,-0.06l0.06,-0.12l-0,-0.06l0.06,-0.12l0.12,-0.12l0.06,-0.12l0.12,-0.12l0.12,-0.06l0.06,-0.12l0.12,-0.12l0.06,0l0.06,-0.06"
      style="fill:none;fill-rule:nonzero;stroke:currentColor;stroke-width:1.44px;" />
    <path d="M50.279,28.391c-2.058,1.168 -4.064,2.366 -6.018,3.592"
      style="fill:none;fill-rule:nonzero;stroke:currentColor;stroke-width:1.44px;" />
    <path d="M56.588,24.984c-2.152,1.105 -4.256,2.241 -6.309,3.407"
      style="fill:none;fill-rule:nonzero;stroke:currentColor;stroke-width:1.44px;" />
    <path d="M56.595,25l0.06,0l0.06,-0.06l0.06,0l0.06,-0.06l0.54,0l0.06,0.06l0.06,0l0.06,0.06"
      style="fill:none;fill-rule:nonzero;stroke:currentColor;stroke-width:1.44px;" />
    <path d="M57.855,25.84l-1.2,-0.78" style="fill:none;fill-rule:nonzero;stroke:currentColor;stroke-width:0.72px;" />
    <path d="M45.735,32.8l-1.38,-0.72" style="fill:none;fill-rule:nonzero;stroke:currentColor;stroke-width:0.72px;" />
    <path d="M77.475,37.72l0,-1.62" style="fill:none;fill-rule:nonzero;stroke:currentColor;stroke-width:0.72px;" />
    <path d="M101.604,25.412c-7.931,3.914 -15.201,8.253 -21.713,12.959"
      style="fill:none;fill-rule:nonzero;stroke:currentColor;stroke-width:1.44px;" />
    <path d="M304.695,71.08l0,-3.78" style="fill:none;fill-rule:nonzero;stroke:currentColor;stroke-width:0.72px;" />
    <path d="M328.628,101.086c-4.91,-10.674 -13,-20.774 -23.906,-29.848"
      style="fill:none;fill-rule:nonzero;stroke:currentColor;stroke-width:1.44px;" />
    <path d="M304.727,71.25c-0.587,-0.49 -1.583,-0.758 -2.607,-0.703"
      style="fill:none;fill-rule:nonzero;stroke:currentColor;stroke-width:1.44px;" />
    <path d="M311.77,121.861c-0.541,-0.706 -1.856,-1.101 -3.165,-0.949c-1.309,0.152 -2.26,0.809 -2.289,1.582"
      style="fill:none;fill-rule:nonzero;stroke:currentColor;stroke-width:1.44px;" />
    <path d="M159.795,18.94l-0,-2.58" style="fill:none;fill-rule:nonzero;stroke:currentColor;stroke-width:0.72px;" />
    <path d="M31.095,80.08l0,-0.06" style="fill:none;fill-rule:nonzero;stroke:currentColor;stroke-width:0.72px;" />
    <path d="M47.362,44.994c-9.274,11.146 -14.7,23.226 -15.975,35.568"
      style="fill:none;fill-rule:nonzero;stroke:currentColor;stroke-width:1.44px;" />
    <path d="M263.269,163.9c-0.87,0.01 -1.686,0.25 -2.213,0.651"
      style="fill:none;fill-rule:nonzero;stroke:currentColor;stroke-width:1.44px;" />
    <path d="M40.635,31.24l-2.82,-1.68" style="fill:none;fill-rule:nonzero;stroke:currentColor;stroke-width:0.72px;" />
    <path d="M40.815,31.36l18.9,-10.74" style="fill:none;fill-rule:nonzero;stroke:currentColor;stroke-width:1.44px;" />
    <path d="M40.837,31.331c-1.125,0.636 -2.177,1.866 -2.81,3.287c-0.634,1.422 -0.767,2.851 -0.357,3.821"
      style="fill:none;fill-rule:nonzero;stroke:currentColor;stroke-width:1.44px;" />
    <path
      d="M341.655,103.36l-0,-5.34l-0.06,-1.2l-0.06,-1.26l-0.12,-1.2l-0.06,-1.2l-0.54,-3.6l-0.24,-1.26l-0.48,-2.4l-0.6,-2.4l-0.36,-1.2l-0.36,-1.14l-1.26,-3.6l-0.48,-1.2l-0.54,-1.14l-0.48,-1.2l-0.54,-1.14l-0.6,-1.2l-1.2,-2.28l-0.66,-1.14l-0.66,-1.2l-1.44,-2.28l-0.72,-1.08l-1.56,-2.28l-0.84,-1.08l-0.84,-1.14l-0.84,-1.08l-0.9,-1.14l-1.8,-2.16l-0.96,-1.08l-0.96,-1.02l-2.04,-2.16l-2.1,-2.1l-1.08,-1.02l-1.14,-1.02l-1.08,-1.02l-1.2,-1.02l-1.14,-0.96l-1.2,-1.02l-1.2,-0.96l-3.78,-2.88l-2.64,-1.92l-2.64,-1.8l-1.38,-0.96l-1.44,-0.9l-1.38,-0.84l-1.44,-0.9l-1.44,-0.84l-1.5,-0.9l-1.44,-0.84l-1.5,-0.84l-1.56,-0.84l-1.5,-0.78l-1.56,-0.84l-1.56,-0.78l-3.24,-1.56l-1.62,-0.72l-1.62,-0.78l-1.68,-0.72l-1.62,-0.72l-1.68,-0.72l-1.74,-0.72l-1.68,-0.66l-5.22,-1.98l-1.8,-0.66l-7.2,-2.4l-1.86,-0.6l-1.8,-0.54l-3.72,-1.08l-1.92,-0.54l-1.86,-0.48l-1.92,-0.54l-1.92,-0.48l-1.92,-0.42l-1.92,-0.48l-1.92,-0.42l-3.96,-0.84l-1.92,-0.42l-1.98,-0.36l-1.98,-0.42l-2.04,-0.36l-1.98,-0.3l-1.98,-0.36l-2.04,-0.3l-1.98,-0.3l-2.04,-0.3l-10.2,-1.2l-2.1,-0.18l-4.08,-0.36l-2.1,-0.18l-2.04,-0.12l-4.2,-0.24l-2.04,-0.06l-2.1,-0.12l-2.1,-0.06l-2.04,-0.06l-2.1,0l-2.1,-0.06l-4.14,0l-2.1,0.06l-2.1,0l-2.04,0.06l-2.1,0.06l-2.1,0.12l-2.04,0.06l-4.2,0.24l-2.04,0.12l-2.1,0.18l-4.08,0.36l-2.1,0.18l-10.2,1.2l-1.98,0.3l-4.08,0.6l-1.98,0.36l-1.98,0.3l-2.04,0.36l-1.98,0.42l-1.98,0.36l-1.92,0.42l-3.96,0.84l-1.92,0.42l-1.92,0.48l-1.92,0.42l-1.92,0.48l-1.92,0.54l-1.86,0.48l-1.92,0.54l-3.72,1.08l-1.8,0.54l-1.86,0.6l-7.2,2.4l-1.8,0.66l-5.22,1.98l-1.68,0.66l-1.74,0.72l-1.68,0.72l-1.62,0.72l-1.68,0.72l-1.62,0.78l-1.62,0.72l-3.24,1.56l-1.56,0.78l-1.56,0.84l-1.5,0.78l-1.56,0.84l-1.5,0.84l-1.44,0.84l-1.5,0.9l-1.44,0.84l-1.44,0.9l-1.38,0.84l-1.44,0.9l-1.38,0.96l-2.64,1.8l-2.64,1.92l-3.78,2.88l-1.2,0.96l-1.2,1.02l-1.14,0.96l-1.2,1.02l-1.08,1.02l-1.14,1.02l-1.08,1.02l-2.1,2.1l-2.04,2.16l-0.96,1.02l-0.96,1.08l-1.8,2.16l-0.9,1.14l-0.84,1.08l-0.84,1.14l-0.84,1.08l-1.56,2.28l-0.72,1.08l-1.44,2.28l-0.66,1.2l-0.66,1.14l-1.2,2.28l-0.6,1.2l-0.54,1.14l-0.48,1.2l-0.54,1.14l-0.48,1.2l-0.84,2.4l-0.42,1.14l-0.72,2.4l-0.6,2.4l-0.48,2.4l-0.24,1.26l-0.54,3.6l-0.06,1.2l-0.12,1.2l-0.06,1.26l-0.06,1.2l-0,5.34"
      style="fill:none;fill-rule:nonzero;stroke:currentColor;stroke-width:1.44px;" />
    <path
      d="M131.835,12.94l-5.4,1.8l-0.84,0.3l-0.9,0.3l-0.9,0.36l-0.84,0.3l-0.9,0.3l-0.84,0.36l-0.84,0.3l-0.9,0.36l-0.84,0.3l-2.52,1.08l-0.84,0.3l-2.52,1.08l-0.78,0.36l-1.68,0.72l-0.78,0.42l-0.84,0.36l-1.56,0.72l-0.78,0.42l-0.84,0.36l-0.78,0.42l-0.78,0.36l-1.56,0.84l-0.72,0.36l-1.56,0.84l-0.72,0.42l-0.78,0.36l-1.44,0.84l-0.78,0.42l-1.44,0.84l-0.72,0.48l-2.16,1.26l-0.66,0.48l-0.72,0.42l-0.66,0.42l-0.72,0.48l-0.66,0.42l-0.66,0.48l-0.72,0.48l-0.66,0.42l-1.32,0.96l-0.6,0.42l-1.32,0.96l-0.6,0.48l-0.66,0.48l-0.06,0l-0.12,0.12l-0.12,0.06l-0.06,0l-0.06,0.06l-0.12,0.06l-0.06,0l-0.24,0.12l-0.06,0l-0.12,0.06l-0.12,0l-0.12,0.06l-0.18,0l-0.12,0.06l-0.36,0l-0.12,0.06l-0.6,0l-0.12,-0.06l-0.48,0l-0.12,-0.06l-0.12,0l-0.06,-0.06l-0.12,0l-0.12,-0.06l-0.12,0l-0.06,-0.06l-0.12,0l-0.06,-0.06l-0.12,-0.06l-0.06,0l-0.12,-0.06l-0.12,-0.12l-0.06,0l-0.12,-0.06l-0.06,-0.06l0,-0.06l-0.06,0l-0.18,-0.18l0,-0.06l-0.06,0l0,-0.06l-0.06,-0.06l0,-0.12l-0.06,-0.06l0,-0.12"
      style="fill:none;fill-rule:nonzero;stroke:currentColor;stroke-width:1.44px;" />
    <path
      d="M185.295,180.7l-0,0.12l-0.06,0.06l0,0.12l-0.06,-0l-0,0.06l-0.06,0.06l0,0.06l-0.06,0.06l-0.06,-0l-0.06,0.06l-0,0.06l-0.06,0.06l-0.12,0.06l-0.06,-0l-0.12,0.12l-0.12,0.06l-0.06,-0l-0.12,0.06l-0.06,0.06l-0.12,-0l-0.06,0.06l-0.12,0.06l-0.12,-0l-0.12,0.06l-0.24,-0l-0.06,0.06l-2.04,0.36l-1.02,0.12l-1.08,0.18l-1.02,0.18l-1.02,0.12l-1.02,0.18l-1.02,0.12l-1.02,0.18l-1.08,0.12l-1.02,0.12l-1.02,0.18l-1.08,0.12l-2.04,0.24l-1.08,0.12l-1.02,0.12l-1.08,0.12l-1.02,0.06l-1.02,0.12l-1.08,0.12l-1.02,0.06l-1.08,0.12l-1.08,0.06l-1.02,0.12l-1.08,0.06l-1.02,0.06l-1.08,0.06l-1.02,0.06l-2.16,0.12l-1.02,0.06l-2.16,0.12l-1.02,0.06l-1.08,-0l-1.08,0.06l-1.02,-0l-1.08,0.06l-1.08,-0l-1.08,0.06l-9.54,-0l-1.08,-0.06l-1.02,-0l-1.08,-0.06l-1.08,-0l-1.08,-0.06l-1.02,-0l-2.16,-0.12l-1.02,-0.06l-2.16,-0.12l-1.02,-0.06l-1.08,-0.06l-1.02,-0.06"
      style="fill:none;fill-rule:nonzero;stroke:currentColor;stroke-width:1.44px;" />
    <path
      d="M301.935,99.22l-0,1.86l-0.12,1.8l-0.12,0.9l-0.12,0.96l-0.24,1.8l-0.54,2.7l-0.24,0.96l-0.48,1.8l-0.9,2.7l-1.08,2.7l-0.42,0.84l-0.84,1.8l-0.48,0.9l-0.42,0.84l-0.54,0.9l-0.48,0.84l-0.54,0.9l-1.08,1.68l-0.6,0.9l-1.2,1.68l-1.98,2.52l-1.44,1.68l-0.72,0.78l-0.72,0.84l-0.78,0.78l-0.78,0.84l-1.56,1.56l-1.68,1.56l-0.9,0.78l-0.84,0.78l-0.9,0.78l-0.9,0.72l-0.96,0.78l-0.96,0.72l-0.96,0.78l-1.92,1.44l-2.04,1.44l-1.08,0.66l-1.02,0.72l-1.08,0.66l-1.08,0.72l-1.08,0.66l-1.14,0.66l-1.08,0.66l-1.14,0.66l-1.2,0.66l-1.14,0.6l-1.2,0.66l-3.6,1.8l-1.26,0.6l-1.2,0.6l-2.52,1.08l-1.32,0.6l-1.26,0.54l-2.64,1.08l-1.32,0.48l-1.32,0.54l-1.38,0.48l-1.32,0.48l-4.14,1.44l-1.44,0.42l-1.38,0.48l-2.88,0.84l-1.38,0.42l-1.5,0.36l-1.44,0.42l-1.44,0.36l-1.5,0.36l-1.44,0.36l-3,0.72l-1.5,0.3l-1.5,0.36l-3,0.6l-1.56,0.24l-1.5,0.3l-3.12,0.48l-1.5,0.24l-3.12,0.48l-1.56,0.18l-1.56,0.24l-1.62,0.18l-1.56,0.18l-1.56,0.12l-1.62,0.18l-1.56,0.12l-1.56,0.18l-1.62,0.12l-1.56,0.06l-1.62,0.12l-1.62,0.06l-1.56,0.12l-1.62,0.06l-1.62,-0l-1.56,0.06l-1.62,0.06l-6.42,-0l-1.62,-0.06l-1.56,-0l-3.24,-0.12l-1.56,-0.12l-1.62,-0.06l-1.62,-0.12l-1.56,-0.06l-1.62,-0.12l-1.56,-0.18l-1.56,-0.12l-1.62,-0.18l-1.56,-0.12l-1.56,-0.18l-1.62,-0.18l-1.56,-0.24l-1.56,-0.18l-3.12,-0.48l-1.5,-0.24l-3.12,-0.48l-1.5,-0.3l-1.56,-0.24l-3,-0.6l-1.5,-0.36l-1.5,-0.3l-3,-0.72l-1.44,-0.36l-1.5,-0.36l-1.44,-0.36l-1.44,-0.42l-1.5,-0.36l-1.38,-0.42l-2.88,-0.84l-1.38,-0.48l-1.44,-0.42l-4.14,-1.44l-1.32,-0.48l-1.38,-0.48l-1.32,-0.54l-1.32,-0.48l-2.64,-1.08l-1.26,-0.54l-1.32,-0.6l-2.52,-1.08l-1.26,-0.6l-4.8,-2.4l-1.2,-0.66l-1.14,-0.6l-1.2,-0.66l-1.14,-0.66l-1.08,-0.66l-1.14,-0.66l-1.08,-0.66l-1.08,-0.72l-1.08,-0.66l-1.02,-0.72l-1.08,-0.66l-1.02,-0.72l-0.96,-0.72l-1.02,-0.72l-0.96,-0.72l-0.96,-0.78l-0.96,-0.72l-0.96,-0.78l-0.9,-0.72l-0.9,-0.78l-0.84,-0.78l-0.9,-0.78l-1.68,-1.56l-1.56,-1.56l-0.78,-0.84l-0.78,-0.78l-0.72,-0.84l-0.72,-0.78l-1.44,-1.68l-1.98,-2.52l-1.2,-1.68l-0.6,-0.9l-1.08,-1.68l-0.54,-0.9l-0.48,-0.84l-0.54,-0.9l-0.42,-0.84l-0.48,-0.9l-0.84,-1.8l-0.42,-0.84l-1.08,-2.7l-0.9,-2.7l-0.48,-1.8l-0.24,-0.96l-0.54,-2.7l-0.24,-1.8l-0.12,-0.96l-0.12,-0.9l-0.12,-1.8l-0,-1.86"
      style="fill:none;fill-rule:nonzero;stroke:currentColor;stroke-width:1.44px;" />
    <path
      d="M308.355,51.28l0,0.06l-0.06,0.06l-0,0.06l-0.3,0.3l-0.12,0.06l-0.06,0.06l-0.12,0.06l-0.06,0.06l-0.48,0.24l-0.12,-0l-0.12,0.06l-0.18,0.06l-0.24,-0l-0.18,0.06l-0.3,-0l-0.12,0.06l-0.66,-0l-0.12,-0.06l-0.3,-0"
      style="fill:none;fill-rule:nonzero;stroke:currentColor;stroke-width:1.44px;" />
    <path
      d="M300.615,50.38l-0.78,-0.36l-0.72,-0.42l-0.78,-0.42l-0.78,-0.36l-0.78,-0.42l-0.78,-0.36l-0.78,-0.42l-1.56,-0.72l-0.78,-0.42l-0.84,-0.36l-0.78,-0.36l-0.84,-0.36l-0.78,-0.36l-0.84,-0.36l-0.78,-0.36l-4.2,-1.8l-0.84,-0.3l-0.84,-0.36l-0.84,-0.3l-0.84,-0.36l-0.9,-0.3l-0.84,-0.36l-0.84,-0.3l-0.9,-0.36l-0.84,-0.3l-1.8,-0.6l-0.84,-0.3l-5.4,-1.8l-0.9,-0.24l-1.8,-0.6l-0.96,-0.24l-0.9,-0.3l-0.9,-0.24l-0.96,-0.24l-0.9,-0.3l-0.96,-0.24l-0.9,-0.24l-0.96,-0.24l-0.9,-0.24l-1.92,-0.48l-0.9,-0.24l-1.92,-0.48l-0.96,-0.18l-1.92,-0.48l-0.96,-0.18l-0.96,-0.24l-1.92,-0.36l-0.96,-0.24l-0.12,-0l-0.12,-0.06l-0.24,-0l-0.06,-0.06l-0.12,-0.06l-0.06,-0l-0.12,-0.06l-0.06,-0l-0.12,-0.06l-0.12,-0.12l-0.12,-0l-0.24,-0.24l-0.06,0l-0,-0.06l-0.18,-0.18l-0,-0.06l-0.06,-0.06l-0.06,-0.12l-0,-0.12"
      style="fill:none;fill-rule:nonzero;stroke:currentColor;stroke-width:1.44px;" />
    <path
      d="M43.515,130.42l-0,0.12l-0.06,0.12l-0,0.06l-0.06,0.06l-0,0.06l-0.06,0.06l-0.06,0l-0,0.06l-0.18,0.18l-0.06,0l-0.12,0.12l-0.12,0.06l-0.06,0.06l-0.12,0l-0.06,0.06l-0.12,0.06l-0.06,0l-0.12,0.06l-0.12,0l-0.06,0.06l-0.12,0l-0.12,0.06l-0.12,0l-0.12,0.06l-0.36,0l-0.12,0.06l-0.96,0l-0.12,-0.06l-0.24,0l-0.06,-0.06l-0.24,0l-0.12,-0.06l-0.12,0l-0.12,-0.06l-0.06,-0.06l-0.12,0l-0.06,-0.06l-0.12,-0.06l-0.06,0l-0.12,-0.06l-0.06,-0.06l-0.06,0l-0.18,-0.18l-0.66,-0.48l-0.6,-0.54l-0.54,-0.48l-1.2,-1.08l-0.6,-0.48l-0.54,-0.54l-0.6,-0.54l-0.54,-0.48l-3.24,-3.24l-0.48,-0.54l-0.54,-0.54l-0.48,-0.54l-0.54,-0.54l-2.4,-2.7l-0.42,-0.6l-0.48,-0.54l-0.42,-0.54l-0.48,-0.6l-0.84,-1.08l-0.42,-0.6l-0.42,-0.54l-0.42,-0.6l-0.42,-0.54l-0.36,-0.6l-0.42,-0.54l-0.36,-0.6l-0.42,-0.54l-0.72,-1.2l-0.36,-0.54l-0.72,-1.2l-0.3,-0.54l-0.36,-0.6l-0.3,-0.6l-0.36,-0.6l-0.3,-0.54l-1.2,-2.4l-0.24,-0.6l-0.3,-0.54l-0.24,-0.6l-0.3,-0.6l-1.2,-3l-0.18,-0.6l-0.24,-0.6l-0.18,-0.6"
      style="fill:none;fill-rule:nonzero;stroke:currentColor;stroke-width:1.44px;" />
    <path
      d="M331.155,106.6l-0.12,0.06l-0.06,0.06l-0.36,0.18l-0.18,0.06l-0.12,0l-0.12,0.06l-0.18,0l-0.12,0.06l-0.18,0l-0.18,0.06l-1.08,-0l-0.18,-0.06l-0.3,0l-0.12,-0.06l-0.18,-0.06l-0.12,0l-0.24,-0.12l-0.18,-0.06l-0.06,-0.06l-0.36,-0.18"
      style="fill:none;fill-rule:nonzero;stroke:currentColor;stroke-width:1.44px;" />
    <path
      d="M325.155,102.7l-0.24,-0.6l-0.18,-0.54l-0.24,-0.6l-0.48,-1.08l-0.24,-0.6l-0.24,-0.54l-0.24,-0.6l-0.24,-0.54l-0.3,-0.54l-0.24,-0.6l-0.3,-0.54l-0.24,-0.6l-0.9,-1.62l-0.3,-0.6l-0.6,-1.08l-0.36,-0.54l-0.3,-0.54l-0.36,-0.6l-0.36,-0.54l-0.3,-0.54l-1.08,-1.62l-0.42,-0.54l-0.72,-1.08l-0.42,-0.54l-0.36,-0.54l-0.84,-1.08l-0.36,-0.48l-0.84,-1.08l-0.48,-0.54l-0.42,-0.48l-0.42,-0.54l-0.48,-0.54l-0.42,-0.54l-0.48,-0.48l-0.42,-0.54l-0.48,-0.48l-0.48,-0.54l-0.48,-0.48l-0.48,-0.54l-2.52,-2.52l-0.54,-0.48l-1.02,-1.02l-2.7,-2.4l-0.6,-0.48l-0.54,-0.48l-0.6,-0.48l-0.06,-0.06l0,-0.06l-0.06,-0.06l-0.06,0l0,-0.06l-0.06,-0.06l0,-0.06l-0.06,0l0,-0.06l-0.06,-0.06l0,-0.24"
      style="fill:none;fill-rule:nonzero;stroke:currentColor;stroke-width:1.44px;" />
    <path
      d="M292.935,159.28l-0.18,0.06l-0.9,0l-0.18,-0.06l-0.3,-0l-0.12,-0.06l-0.12,0l-0.18,-0.06l-0.12,-0l-0.6,-0.3l-0.12,0l-0.06,-0.06l-0.12,-0.06l-0.12,-0.12l-0.06,-0.12l-0.3,-0.3l0,-0.06"
      style="fill:none;fill-rule:nonzero;stroke:currentColor;stroke-width:1.44px;" />
    <path
      d="M311.955,118.36l-0,0.06l-0.06,0.6l0,0.6l-0.12,1.2l0,0.6l-0.12,1.2l-0.12,0.6l-0.06,0.6l-0.06,0.54l-0.24,1.2l-0.06,0.6l-0.48,2.4l-0.18,0.6l-0.12,0.6l-0.18,0.6l-0.12,0.54l-0.9,3l-0.18,0.54l-0.18,0.6l-0.24,0.6l-0.18,0.6l-0.24,0.6l-0.24,0.54l-0.72,1.8l-0.24,0.54l-0.3,0.6l-0.24,0.6l-0.3,0.54l-0.24,0.6l-0.3,0.54l-0.6,1.2l-0.3,0.54l-0.3,0.6l-0.3,0.54l-0.36,0.6l-0.3,0.54l-0.36,0.6l-0.3,0.54l-0.36,0.6l-0.72,1.08l-0.36,0.6l-0.42,0.54l-0.36,0.54l-0.36,0.6l-0.42,0.54l-0.36,0.54l-0.42,0.54l-0.42,0.6l-1.26,1.62"
      style="fill:none;fill-rule:nonzero;stroke:currentColor;stroke-width:1.44px;" />
    <path
      d="M100.275,168.82l-0,0.12l-0.06,0.06l-0,0.06l-0.06,0.12l-0,0.06l-0.36,0.36l-0.6,0.3l-0.18,0.06l-0.12,0.06l-0.36,0.12l-0.12,-0l-0.18,0.06l-0.36,-0l-0.18,0.06l-0.54,-0l-0.18,-0.06l-0.36,-0l-0.18,-0.06l-1.02,-0.18l-1.02,-0.24l-0.96,-0.18l-1.02,-0.24l-0.96,-0.24l-1.02,-0.18l-1.02,-0.24l-1.92,-0.48l-1.02,-0.24l-1.92,-0.48l-1.02,-0.24l-0.96,-0.24l-0.96,-0.3l-1.92,-0.48l-0.96,-0.3l-0.96,-0.24l-0.96,-0.3l-0.96,-0.24l-0.9,-0.3l-1.92,-0.6l-0.9,-0.24l-0.96,-0.3l-0.9,-0.3l-0.96,-0.3l-0.9,-0.3l-0.96,-0.36l-2.7,-0.9l-0.9,-0.36l-0.9,-0.3l-0.9,-0.36l-0.9,-0.3l-0.9,-0.36l-0.9,-0.3l-0.9,-0.36l-0.84,-0.36l-0.9,-0.36l-0.84,-0.36l-0.9,-0.3l-0.84,-0.36l-0.9,-0.36l-0.84,-0.42l-3.36,-1.44l-0.84,-0.42l-0.84,-0.36l-0.84,-0.42l-0.84,-0.36l-0.78,-0.42l-0.84,-0.36l-0.78,-0.42l-0.84,-0.36l-2.34,-1.26l-0.84,-0.42l-0.78,-0.42"
      style="fill:none;fill-rule:nonzero;stroke:currentColor;stroke-width:1.44px;" />
    <path
      d="M233.775,14.8l-0,0.12l-0.06,0.06l-0,0.12l-0.06,0.06l-0,0.06l-0.06,-0l-0.06,0.06l-0,0.06l-0.06,0.06l-0.06,-0l-0.18,0.18l-0.06,-0l-0.12,0.12l-0.06,-0l-0.06,0.06l-0.12,0.06l-0.06,-0l-0.06,0.06l-0.12,-0l-0.06,0.06l-0.12,-0l-0.12,0.06l-0.06,-0"
      style="fill:none;fill-rule:nonzero;stroke:currentColor;stroke-width:1.44px;" />
    <path
      d="M226.815,15.88l-2.04,-0.12l-1.02,-0.12l-1.08,-0.06l-1.02,0l-4.08,-0.24l-1.02,0l-1.08,-0.06l-1.02,0l-1.02,-0.06l-3.12,0l-1.02,-0.06l-4.14,0l-1.02,0.06l-2.04,0l-1.02,0.06l-2.1,0l-2.04,0.12l-1.02,0l-2.04,0.12l-1.08,0.06l-6.12,0.36l-1.02,0.12l-2.04,0.12l-2.04,0.24l-1.02,0.06l-2.04,0.24l-1.02,0.06l-3.06,0.36l-0.96,0.12l-1.02,0.18l-2.04,0.24l-0.96,0.12l-1.02,0.18l-1.02,0.12l-0.96,0.18l-1.02,0.12l-1.02,0.18l-0.96,0.18l-1.02,0.12l-0.96,0.18l-0.18,0.06l-0.54,0l-0.18,0.06l-0.18,-0.06l-0.54,0l-0.12,-0.06l-0.18,0l-0.36,-0.12l-0.12,0l-0.18,-0.06l-0.48,-0.24l-0.12,-0.12l-0.12,-0.06l-0.24,-0.24l-0.06,-0.12l-0.06,-0.06l0,-0.06l-0.06,-0.06l0,-0.18"
      style="fill:none;fill-rule:nonzero;stroke:currentColor;stroke-width:1.44px;" />
    <path
      d="M51.675,43.06l-2.1,2.7l-0.36,0.54l-0.42,0.6l-0.42,0.54l-0.72,1.08l-0.42,0.6l-0.72,1.08l-0.3,0.6l-0.72,1.08l-0.36,0.6l-0.3,0.54l-0.3,0.6l-0.36,0.54l-0.3,0.6l-0.3,0.54l-0.3,0.6l-0.3,0.54l-0.24,0.6l-0.3,0.6l-0.24,0.54l-0.3,0.6l-0.24,0.6l-0.24,0.54l-0.48,1.2l-0.24,0.54l-0.48,1.2l-0.18,0.6l-0.24,0.54l-0.72,2.4l-0.18,0.54l-0.36,1.2l-0.24,1.2l-0.18,0.6l-0.24,1.2l-0.12,0.54l-0.24,1.2l-0.06,0.6l-0.12,0.6l-0.06,0.6l-0.12,0.6l-0.3,3l-0,0.6l-0.06,0.6l-0,0.66l-0.06,0.06l-0,0.12l-0.06,0.06l-0,0.06l-0.36,0.36l-0.12,0.06l-0.06,0.06l-0.12,0.06l-0.06,0.06l-0.12,0.06l-0.12,-0l-0.36,0.18l-0.12,-0l-0.18,0.06l-0.12,-0l-0.12,0.06l-0.3,-0l-0.18,0.06l-0.72,-0l-0.18,-0.06l-0.24,-0l-0.18,-0.06l-0.24,-0l-0.18,-0.06l-0.12,-0.06l-0.12,-0l-0.48,-0.24l-0.06,-0.06l-0.12,-0.06l-0.06,-0.06l-0.06,-0l-0.42,-0.42l-0,-0.12l-0.06,-0.06l-0,-0.12"
      style="fill:none;fill-rule:nonzero;stroke:currentColor;stroke-width:1.44px;" />
    <path
      d="M208.035,188.92l-0.06,-0.06l-0.12,0l-0.06,-0.06l-0.12,0l-0.06,-0.06l-0.06,0l-0.12,-0.06l-0.06,-0.06l-0.06,0l-0.12,-0.12l-0.06,0l-0.12,-0.12l-0.06,0l-0.06,-0.06l0,-0.06l-0.06,-0.06l-0.06,0l0,-0.06l-0.06,-0.06l-0.06,-0.12l0,-0.06l-0.06,-0.06l-0,-0.12"
      style="fill:none;fill-rule:nonzero;stroke:currentColor;stroke-width:1.44px;" />
    <path
      d="M266.175,161.44l-0,0.06l-0.06,0.06l0,0.12l-0.12,0.12l0,0.06l-0.06,0.06l-0,0.06l-0.06,0l-0.18,0.18l-4.62,3.36l-0.66,0.42l-0.72,0.48l-0.66,0.48l-0.72,0.48l-0.72,0.42l-0.66,0.48l-0.72,0.42l-0.72,0.48l-0.72,0.42l-0.72,0.48l-0.78,0.42l-0.72,0.42l-0.72,0.48l-0.78,0.42l-0.72,0.42l-1.56,0.84l-0.72,0.42l-4.68,2.52l-0.84,0.36l-0.78,0.42l-0.84,0.42l-0.78,0.36l-0.84,0.42l-0.78,0.36l-0.84,0.42l-1.68,0.72l-0.84,0.42l-3.36,1.44l-0.9,0.36l-1.68,0.72l-0.9,0.36l-0.84,0.36l-0.9,0.3l-0.9,0.36l-0.84,0.36l-0.9,0.3l-0.9,0.36l-0.9,0.3l-0.9,0.36l-2.7,0.9l-0.96,0.36l-1.8,0.6l-0.96,0.3"
      style="fill:none;fill-rule:nonzero;stroke:currentColor;stroke-width:1.44px;" />
    <path
      d="M62.115,20.38l-2.94,-1.74l-0.48,-0.24l-0.18,0l-0.12,-0.06l-0.3,0l-0.18,-0.06l-0.12,0l-0.18,0.06l-0.3,0l-0.12,0.06l-0.18,0l-0.12,0.06l-0.18,0.06l-0.12,0.06l-0.18,0.06l-0.12,0.06l-0.66,0.3l-0.6,0.36l-0.66,0.3l-0.6,0.3l-0.66,0.3l-0.6,0.36l-0.6,0.3l-0.66,0.3l-0.6,0.36l-0.6,0.3l-0.6,0.36l-0.6,0.3l-0.6,0.36l-0.6,0.3l-0.6,0.36l-0.6,0.3l-1.2,0.72l-0.6,0.3l-0.54,0.36l-1.2,0.72l-0.54,0.3l-0.6,0.36l-0.54,0.36l-0.6,0.36l-0.54,0.36l-0.6,0.36l-1.62,1.08l-0.6,0.36l-0.12,0.06l-0.12,0.12l-0.12,0.06l-0.84,0.84l-0.06,0.12l-0.12,0.18l-0.24,0.24l-0.06,0.18l-0.12,0.12l-0.36,0.72l-0.12,0.48l-0.12,0.24l-0,0.24l-0.12,0.48l-0,0.24l-0.06,0.18l-0,0.48l-0.06,0.24l-0,1.14l0.06,0.18l-0,0.48l0.06,0.12l0.06,0.18l-0,0.06l0.06,0.06l-0,0.12l0.24,0.24l0.06,0.12l0.18,0.18l0.12,0"
      style="fill:none;fill-rule:nonzero;stroke:currentColor;stroke-width:1.44px;" />
    <path d="M57.555,25l0.96,0.6" style="fill:none;fill-rule:nonzero;stroke:currentColor;stroke-width:1.44px;" />
    <path d="M37.275,38.68l-1.8,-1.08" style="fill:none;fill-rule:nonzero;stroke:currentColor;stroke-width:1.44px;" />
    <path d="M48.221,78.832c-0.179,1.121 -0.319,2.243 -0.421,3.366"
      style="fill:none;fill-rule:nonzero;stroke:currentColor;stroke-width:1.44px;" />
    <path d="M47.814,82.193c-3.628,6.902 -5.519,14.068 -5.615,21.28"
      style="fill:none;fill-rule:nonzero;stroke:currentColor;stroke-width:1.44px;" />
    <path d="M47.355,45.37c-0,0.607 0.576,1.165 1.499,1.453"
      style="fill:none;fill-rule:nonzero;stroke:currentColor;stroke-width:1.44px;" />
    <path d="M47.775,82.24l0,-1.14" style="fill:none;fill-rule:nonzero;stroke:currentColor;stroke-width:1.44px;" />
    <path d="M47.814,81.053c-5.466,10.397 -6.968,21.353 -4.402,32.116"
      style="fill:none;fill-rule:nonzero;stroke:currentColor;stroke-width:1.44px;" />
    <path d="M48.001,79.222c-0.078,0.612 -0.145,1.224 -0.201,1.836"
      style="fill:none;fill-rule:nonzero;stroke:currentColor;stroke-width:1.44px;" />
    <path d="M47.355,45.4l-0,-2.82" style="fill:none;fill-rule:nonzero;stroke:currentColor;stroke-width:1.44px;" />
    <path d="M41.355,151.48l-0,-2.22" style="fill:none;fill-rule:nonzero;stroke:currentColor;stroke-width:1.44px;" />
    <path d="M189.393,28.787c0.419,0.47 1.202,0.795 2.105,0.874"
      style="fill:none;fill-rule:nonzero;stroke:currentColor;stroke-width:1.44px;" />
    <path d="M189.075,29.17c-0,0.816 1.03,1.509 2.423,1.631"
      style="fill:none;fill-rule:nonzero;stroke:currentColor;stroke-width:1.44px;" />
    <path d="M191.475,30.76l-0,-1.02" style="fill:none;fill-rule:nonzero;stroke:currentColor;stroke-width:0.72px;" />
    <path d="M255.137,45.521c-2.825,-0.746 -5.689,-1.441 -8.589,-2.084"
      style="fill:none;fill-rule:nonzero;stroke:currentColor;stroke-width:1.44px;" />
    <path d="M246.524,43.503c-16.421,-6.607 -35.257,-10.944 -55.048,-12.674"
      style="fill:none;fill-rule:nonzero;stroke:currentColor;stroke-width:1.44px;" />
    <path d="M246.495,43.48l0,-1.14" style="fill:none;fill-rule:nonzero;stroke:currentColor;stroke-width:1.44px;" />
    <path d="M246.524,42.363c-16.421,-6.607 -35.257,-10.944 -55.048,-12.674"
      style="fill:none;fill-rule:nonzero;stroke:currentColor;stroke-width:1.44px;" />
    <path d="M249.511,42.975c-0.984,-0.232 -1.971,-0.458 -2.963,-0.678"
      style="fill:none;fill-rule:nonzero;stroke:currentColor;stroke-width:1.44px;" />
    <path d="M189.075,29.2l0,-0.42" style="fill:none;fill-rule:nonzero;stroke:currentColor;stroke-width:1.44px;" />
    <path d="M307.395,52.12l0,-0.24" style="fill:none;fill-rule:nonzero;stroke:currentColor;stroke-width:1.44px;" />
    <path d="M54.206,70.518c0.902,-0.085 1.678,-0.416 2.087,-0.889"
      style="fill:none;fill-rule:nonzero;stroke:currentColor;stroke-width:1.44px;" />
    <path d="M53.253,71.655c1.24,0.126 2.476,-0.234 3.04,-0.886"
      style="fill:none;fill-rule:nonzero;stroke:currentColor;stroke-width:1.44px;" />
    <path d="M56.235,70.78l-0,-1.08" style="fill:none;fill-rule:nonzero;stroke:currentColor;stroke-width:0.72px;" />
    <path d="M100.603,40.174c-2.237,1.394 -4.393,2.831 -6.465,4.309"
      style="fill:none;fill-rule:nonzero;stroke:currentColor;stroke-width:1.44px;" />
    <path d="M94.209,44.51c-15.962,6.972 -28.929,15.971 -37.896,26.3"
      style="fill:none;fill-rule:nonzero;stroke:currentColor;stroke-width:1.44px;" />
    <path d="M94.155,44.5l-0,-1.14" style="fill:none;fill-rule:nonzero;stroke:currentColor;stroke-width:1.44px;" />
    <path d="M94.209,43.31c-15.962,6.972 -28.929,15.971 -37.896,26.3"
      style="fill:none;fill-rule:nonzero;stroke:currentColor;stroke-width:1.44px;" />
    <path d="M96.17,41.865c-0.686,0.468 -1.363,0.941 -2.032,1.418"
      style="fill:none;fill-rule:nonzero;stroke:currentColor;stroke-width:1.44px;" />
    <path d="M129.555,13.66l-0,-1.32" style="fill:none;fill-rule:nonzero;stroke:currentColor;stroke-width:1.44px;" />
    <path d="M116.355,185.38l0,-0.18" style="fill:none;fill-rule:nonzero;stroke:currentColor;stroke-width:1.44px;" />
    <path d="M110.065,36.944c0.816,0.238 1.78,0.234 2.591,-0.009"
      style="fill:none;fill-rule:nonzero;stroke:currentColor;stroke-width:1.44px;" />
    <path d="M108.774,37.382c0.333,0.403 0.934,0.711 1.666,0.853c0.731,0.141 1.531,0.106 2.216,-0.1"
      style="fill:none;fill-rule:nonzero;stroke:currentColor;stroke-width:1.44px;" />
    <path d="M112.575,38.08l0,-1.02" style="fill:none;fill-rule:nonzero;stroke:currentColor;stroke-width:0.72px;" />
    <path d="M180.916,28.244c-3.638,0.398 -7.248,0.874 -10.824,1.427"
      style="fill:none;fill-rule:nonzero;stroke:currentColor;stroke-width:1.44px;" />
    <path d="M170.055,29.694c-20.01,0.226 -39.661,3.107 -57.431,8.42"
      style="fill:none;fill-rule:nonzero;stroke:currentColor;stroke-width:1.44px;" />
    <path d="M170.055,29.68l-0,-1.14" style="fill:none;fill-rule:nonzero;stroke:currentColor;stroke-width:1.44px;" />
    <path d="M170.055,28.554c-20.01,0.226 -39.661,3.107 -57.431,8.42"
      style="fill:none;fill-rule:nonzero;stroke:currentColor;stroke-width:1.44px;" />
    <path d="M173.179,28.074c-1.032,0.146 -2.061,0.299 -3.087,0.457"
      style="fill:none;fill-rule:nonzero;stroke:currentColor;stroke-width:1.44px;" />
    <path d="M226.695,15.88l0,-0.06" style="fill:none;fill-rule:nonzero;stroke:currentColor;stroke-width:1.44px;" />
    <path
      d="M233.055,15.94l-0.06,-0.3l-0.18,-0.24l-0.3,-0.12l-0.24,0l-0.3,0.12l-0.18,0.24l-0.06,0.3l0.06,0.3l0.18,0.24l0.3,0.12l0.24,0l0.3,-0.12l0.18,-0.24l0.06,-0.3Z"
      style="fill-rule:nonzero;stroke:currentColor;stroke-width:0.1px;" />
    <path d="M13.533,99.215c0.86,0.144 1.788,0.046 2.504,-0.266c0.717,-0.312 1.138,-0.8 1.138,-1.319"
      style="fill:none;fill-rule:nonzero;stroke:currentColor;stroke-width:1.44px;" />
    <path d="M17.115,97.66l-0,-2.82" style="fill:none;fill-rule:nonzero;stroke:currentColor;stroke-width:1.44px;" />
    <path d="M207.855,188.86l-0,-0.06" style="fill:none;fill-rule:nonzero;stroke:currentColor;stroke-width:1.44px;" />
    <path d="M299.939,90.11c-0.643,0.376 -0.935,0.907 -0.786,1.429"
      style="fill:none;fill-rule:nonzero;stroke:currentColor;stroke-width:1.44px;" />
    <path d="M299.115,92.41c0,0.09 0.013,0.18 0.038,0.269"
      style="fill:none;fill-rule:nonzero;stroke:currentColor;stroke-width:1.44px;" />
    <path d="M299.115,92.68l-0,-1.08" style="fill:none;fill-rule:nonzero;stroke:currentColor;stroke-width:0.72px;" />
    <path d="M300.911,104.373c-0.052,-3.921 -0.635,-7.833 -1.743,-11.701"
      style="fill:none;fill-rule:nonzero;stroke:currentColor;stroke-width:1.44px;" />
    <path d="M300.26,111.346c1.151,-6.604 0.784,-13.266 -1.092,-19.814"
      style="fill:none;fill-rule:nonzero;stroke:currentColor;stroke-width:1.44px;" />
    <path d="M299.115,92.44l-0,-1.14" style="fill:none;fill-rule:nonzero;stroke:currentColor;stroke-width:1.44px;" />
    <path d="M290.055,158.8l0,-0.24" style="fill:none;fill-rule:nonzero;stroke:currentColor;stroke-width:1.44px;" />
    <path d="M261.948,49.081c-0.138,0.523 0.165,1.052 0.815,1.424"
      style="fill:none;fill-rule:nonzero;stroke:currentColor;stroke-width:1.44px;" />
    <path d="M261.915,50.47c-0,0.441 0.306,0.864 0.848,1.175"
      style="fill:none;fill-rule:nonzero;stroke:currentColor;stroke-width:1.44px;" />
    <path d="M262.695,51.64l0,-1.08" style="fill:none;fill-rule:nonzero;stroke:currentColor;stroke-width:0.72px;" />
    <path d="M297.241,83.215c-0.923,-0.889 -1.874,-1.769 -2.852,-2.639"
      style="fill:none;fill-rule:nonzero;stroke:currentColor;stroke-width:1.44px;" />
    <path d="M294.38,80.593c-6.556,-10.913 -17.376,-20.81 -31.622,-28.923"
      style="fill:none;fill-rule:nonzero;stroke:currentColor;stroke-width:1.44px;" />
    <path d="M294.375,80.62l-0,-1.14" style="fill:none;fill-rule:nonzero;stroke:currentColor;stroke-width:1.44px;" />
    <path d="M294.38,79.453c-6.556,-10.913 -17.376,-20.81 -31.622,-28.923"
      style="fill:none;fill-rule:nonzero;stroke:currentColor;stroke-width:1.44px;" />
    <path d="M296.096,80.99c-0.559,-0.521 -1.128,-1.039 -1.707,-1.554"
      style="fill:none;fill-rule:nonzero;stroke:currentColor;stroke-width:1.44px;" />
    <path d="M261.855,50.5l0,-1.14" style="fill:none;fill-rule:nonzero;stroke:currentColor;stroke-width:1.44px;" />
    <path d="M225.487,13.71c0.325,1.181 2.097,2.05 4.178,2.05c2.081,0 3.853,-0.869 4.178,-2.05"
      style="fill:none;fill-rule:nonzero;stroke:currentColor;stroke-width:0.72px;" />
    <path
      d="M227.056,14.356c1.441,0.832 3.777,0.832 5.218,0c1.441,-0.832 1.441,-2.18 0,-3.012c-1.441,-0.832 -3.777,-0.832 -5.218,-0c-1.441,0.832 -1.441,2.18 -0,3.012"
      style="fill:none;fill-rule:nonzero;stroke:currentColor;stroke-width:0.72px;" />
    <path d="M225.435,14.05c-0,1.342 1.894,2.43 4.23,2.43c2.336,0 4.23,-1.088 4.23,-2.43"
      style="fill:none;fill-rule:nonzero;stroke:currentColor;stroke-width:1.44px;" />
    <path
      d="M233.895,14.08l-0,-1.02l-0.06,-0.18l-0,-0.12l-0.06,-0.12l-0.06,-0.18l-0.12,-0.12l-0.06,-0.12l-0.12,-0.12l-0.06,-0.12l-0.36,-0.36l-0.18,-0.06l-0.12,-0.12l-0.12,-0.06l-0.18,-0.12l-0.18,-0.06l-0.12,-0.06l-1.08,-0.36l-0.18,-0l-0.18,-0.06l-0.18,0l-0.24,-0.06l-1.14,-0l-0.24,0.06l-0.18,0l-0.18,0.06l-0.18,-0l-1.26,0.42l-0.12,0.06l-0.18,0.12l-0.12,0.06l-0.12,0.12l-0.18,0.06l-0.36,0.36l-0.06,0.12l-0.12,0.12l-0.06,0.12l-0.12,0.12l-0.06,0.18l-0.06,0.12l0,0.12l-0.06,0.18l0,1.02"
      style="fill:none;fill-rule:nonzero;stroke:currentColor;stroke-width:1.44px;" />
    <path d="M128.167,10.17c0.325,1.181 2.097,2.05 4.178,2.05c2.081,0 3.853,-0.869 4.178,-2.05"
      style="fill:none;fill-rule:nonzero;stroke:currentColor;stroke-width:0.72px;" />
    <path
      d="M129.736,10.816c1.441,0.832 3.777,0.832 5.218,0c1.441,-0.832 1.441,-2.18 0,-3.012c-1.441,-0.832 -3.777,-0.832 -5.218,-0c-1.441,0.832 -1.441,2.18 -0,3.012"
      style="fill:none;fill-rule:nonzero;stroke:currentColor;stroke-width:0.72px;" />
    <path d="M128.115,10.45c-0,1.342 1.894,2.43 4.23,2.43c2.336,0 4.23,-1.088 4.23,-2.43"
      style="fill:none;fill-rule:nonzero;stroke:currentColor;stroke-width:1.44px;" />
    <path
      d="M136.575,10.48l-0,-0.96l-0.06,-0.18l-0.06,-0.12l-0.06,-0.18l-0.18,-0.36l-0.6,-0.6l-0.12,-0.06l-0.12,-0.12l-0.18,-0.06l-0.12,-0.12l-0.36,-0.12l-0.12,-0.12l-0.36,-0.12l-0.18,0l-0.36,-0.12l-0.18,0l-0.24,-0.06l-0.18,0l-0.18,-0.06l-1.2,0l-0.18,0.06l-0.18,0l-0.18,0.06l-0.18,0l-0.24,0.06l-0.18,0.06l-0.18,0l-0.12,0.06l-0.18,0.06l-0.18,0.12l-0.18,0.06l-0.12,0.06l-0.18,0.12l-0.12,0.06l-0.18,0.12l-0.12,0.06l-0.48,0.48l-0.06,0.12l-0.12,0.12l-0.12,0.24l-0.06,0.18l-0.06,0.12l0,0.18l-0.06,0.12l0,0.84"
      style="fill:none;fill-rule:nonzero;stroke:currentColor;stroke-width:1.44px;" />
    <path d="M288.967,156.51c0.325,1.181 2.097,2.05 4.178,2.05c2.081,-0 3.853,-0.869 4.178,-2.05"
      style="fill:none;fill-rule:nonzero;stroke:currentColor;stroke-width:0.72px;" />
    <path
      d="M290.536,157.156c1.441,0.832 3.777,0.832 5.218,0c1.441,-0.832 1.441,-2.18 0,-3.012c-1.441,-0.832 -3.777,-0.832 -5.218,-0c-1.441,0.832 -1.441,2.18 -0,3.012"
      style="fill:none;fill-rule:nonzero;stroke:currentColor;stroke-width:0.72px;" />
    <path d="M288.915,156.79c-0,1.342 1.894,2.43 4.23,2.43c2.336,0 4.23,-1.088 4.23,-2.43"
      style="fill:none;fill-rule:nonzero;stroke:currentColor;stroke-width:1.44px;" />
    <path
      d="M297.375,156.82l0,-0.66l-0.06,-0.18l-0,-0.3l-0.06,-0.12l-0.06,-0.18l-0.12,-0.24l-0.24,-0.24l-0.06,-0.12l-0.36,-0.36l-0.12,-0.06l-0.18,-0.12l-0.12,-0.06l-0.18,-0.12l-0.12,-0.06l-0.36,-0.12l-0.18,-0.12l-0.18,0l-0.54,-0.18l-0.18,0l-0.18,-0.06l-0.18,0l-0.24,-0.06l-1.14,0l-0.18,0.06l-0.24,0l-0.18,0.06l-0.18,0l-0.54,0.18l-0.18,0l-0.18,0.12l-0.18,0.06l-0.12,0.06l-0.18,0.06l-0.18,0.12l-0.12,0.06l-0.12,0.12l-0.18,0.06l-0.24,0.24l-0.06,0.12l-0.24,0.24l-0.06,0.12l-0.12,0.12l-0.06,0.12l-0.06,0.18l0,0.12l-0.06,0.18l0,0.96"
      style="fill:none;fill-rule:nonzero;stroke:currentColor;stroke-width:1.44px;" />
    <path d="M300.667,49.59c0.325,1.181 2.097,2.05 4.178,2.05c2.081,0 3.853,-0.869 4.178,-2.05"
      style="fill:none;fill-rule:nonzero;stroke:currentColor;stroke-width:0.72px;" />
    <path
      d="M302.236,50.296c1.441,0.832 3.777,0.832 5.218,0c1.441,-0.832 1.441,-2.18 0,-3.012c-1.441,-0.832 -3.777,-0.832 -5.218,-0c-1.441,0.832 -1.441,2.18 -0,3.012"
      style="fill:none;fill-rule:nonzero;stroke:currentColor;stroke-width:0.72px;" />
    <path d="M300.615,49.93c-0,1.342 1.894,2.43 4.23,2.43c2.336,0 4.23,-1.088 4.23,-2.43"
      style="fill:none;fill-rule:nonzero;stroke:currentColor;stroke-width:1.44px;" />
    <path
      d="M309.075,49.96l-0,-0.72l-0.06,-0.12l0,-0.3l-0.06,-0.18l-0.12,-0.24l-0.06,-0.18l-0.24,-0.24l-0.06,-0.12l-0.24,-0.24l-0.12,-0.06l-0.12,-0.12l-0.18,-0.06l-0.12,-0.12l-0.18,-0.06l-0.12,-0.12l-1.08,-0.36l-0.18,0l-0.18,-0.06l-0.18,-0l-0.18,-0.06l-0.42,0l-0.18,-0.06l-0.42,-0l-0.18,0.06l-0.36,0l-0.24,0.06l-0.18,-0l-0.18,0.06l-0.18,0l-0.9,0.3l-0.12,0.06l-0.18,0.12l-0.18,0.06l-0.12,0.12l-0.12,0.06l-0.18,0.12l-0.12,0.06l-0.12,0.12l-0.06,0.12l-0.24,0.24l-0.06,0.12l-0.12,0.18l-0.12,0.24l0,0.18l-0.06,0.12l0,1.02"
      style="fill:none;fill-rule:nonzero;stroke:currentColor;stroke-width:1.44px;" />
    <path d="M34.087,147.21c0.325,1.181 2.097,2.05 4.178,2.05c2.081,0 3.853,-0.869 4.178,-2.05"
      style="fill:none;fill-rule:nonzero;stroke:currentColor;stroke-width:0.72px;" />
    <path
      d="M35.656,147.856c1.441,0.832 3.777,0.832 5.218,0c1.441,-0.832 1.441,-2.18 0,-3.012c-1.441,-0.832 -3.777,-0.832 -5.218,-0c-1.441,0.832 -1.441,2.18 -0,3.012"
      style="fill:none;fill-rule:nonzero;stroke:currentColor;stroke-width:0.72px;" />
    <path d="M34.035,147.49c-0,1.342 1.894,2.43 4.23,2.43c2.336,0 4.23,-1.088 4.23,-2.43"
      style="fill:none;fill-rule:nonzero;stroke:currentColor;stroke-width:1.44px;" />
    <path
      d="M42.495,147.52l0,-0.96l-0.06,-0.18l-0,-0.12l-0.06,-0.12l-0.06,-0.18l-0.12,-0.12l-0.06,-0.12l-0.12,-0.12l-0.06,-0.12l-0.36,-0.36l-0.18,-0.06l-0.12,-0.12l-0.12,-0.06l-0.18,-0.12l-0.12,-0.06l-1.26,-0.42l-0.18,0l-0.18,-0.06l-0.18,0l-0.24,-0.06l-1.14,0l-0.24,0.06l-0.18,0l-0.18,0.06l-0.18,0l-1.26,0.42l-0.12,0.06l-0.18,0.12l-0.12,0.06l-0.12,0.12l-0.18,0.06l-0.36,0.36l-0.06,0.12l-0.12,0.12l-0.06,0.12l-0.12,0.12l-0.06,0.18l-0.06,0.12l0,0.12l-0.06,0.18l-0,0.96"
      style="fill:none;fill-rule:nonzero;stroke:currentColor;stroke-width:1.44px;" />
    <path d="M206.587,186.63c0.325,1.181 2.097,2.05 4.178,2.05c2.081,-0 3.853,-0.869 4.178,-2.05"
      style="fill:none;fill-rule:nonzero;stroke:currentColor;stroke-width:0.72px;" />
    <path
      d="M208.156,187.336c1.441,0.832 3.777,0.832 5.218,0c1.441,-0.832 1.441,-2.18 0,-3.012c-1.441,-0.832 -3.777,-0.832 -5.218,-0c-1.441,0.832 -1.441,2.18 -0,3.012"
      style="fill:none;fill-rule:nonzero;stroke:currentColor;stroke-width:0.72px;" />
    <path d="M206.535,186.97c-0,1.342 1.894,2.43 4.23,2.43c2.336,0 4.23,-1.088 4.23,-2.43"
      style="fill:none;fill-rule:nonzero;stroke:currentColor;stroke-width:1.44px;" />
    <path
      d="M214.995,187l0,-0.84l-0.06,-0.18l-0,-0.12l-0.06,-0.18l-0.18,-0.36l-0.12,-0.18l-0.06,-0.12l-0.24,-0.24l-0.12,-0.06l-0.24,-0.24l-0.12,-0.06l-0.18,-0.12l-0.12,-0.06l-0.18,-0.12l-0.36,-0.12l-0.12,-0.06l-0.54,-0.18l-0.18,0l-0.24,-0.06l-0.18,0l-0.18,-0.06l-1.56,0l-0.18,0.06l-0.24,0l-0.18,0.06l-0.18,0l-0.72,0.24l-0.12,0.06l-0.18,0.06l-0.18,0.12l-0.12,0.06l-0.18,0.12l-0.12,0.06l-0.24,0.24l-0.12,0.06l-0.24,0.24l-0.06,0.12l-0.12,0.18l-0.18,0.36l-0.06,0.18l-0.06,0.12l0,1.02"
      style="fill:none;fill-rule:nonzero;stroke:currentColor;stroke-width:1.44px;" />
    <path d="M324.847,104.13c0.325,1.181 2.097,2.05 4.178,2.05c2.081,0 3.853,-0.869 4.178,-2.05"
      style="fill:none;fill-rule:nonzero;stroke:currentColor;stroke-width:0.72px;" />
    <path
      d="M326.416,104.836c1.441,0.832 3.777,0.832 5.218,0c1.441,-0.832 1.441,-2.18 0,-3.012c-1.441,-0.832 -3.777,-0.832 -5.218,-0c-1.441,0.832 -1.441,2.18 -0,3.012"
      style="fill:none;fill-rule:nonzero;stroke:currentColor;stroke-width:0.72px;" />
    <path d="M324.795,104.47c-0,1.342 1.894,2.43 4.23,2.43c2.336,0 4.23,-1.088 4.23,-2.43"
      style="fill:none;fill-rule:nonzero;stroke:currentColor;stroke-width:1.44px;" />
    <path
      d="M333.255,104.5l-0,-1.02l-0.06,-0.12l-0,-0.18l-0.12,-0.24l-0.12,-0.18l-0.06,-0.12l-0.12,-0.12l-0.06,-0.12l-0.12,-0.12l-0.12,-0.06l-0.12,-0.12l-0.18,-0.12l-0.12,-0.06l-0.12,-0.12l-0.18,-0.06l-0.18,-0.12l-0.12,-0.06l-0.9,-0.3l-0.18,0l-0.18,-0.06l-0.18,0l-0.18,-0.06l-0.6,0l-0.24,-0.06l-0.18,0.06l-0.6,0l-0.18,0.06l-0.18,0l-0.18,0.06l-0.18,0l-1.08,0.36l-0.12,0.12l-0.18,0.06l-0.12,0.12l-0.12,0.06l-0.18,0.12l-0.12,0.12l-0.12,0.06l-0.12,0.12l-0.06,0.12l-0.12,0.12l-0.06,0.12l-0.12,0.18l-0.12,0.24l0,0.18l-0.06,0.12l0,1.02"
      style="fill:none;fill-rule:nonzero;stroke:currentColor;stroke-width:1.44px;" />
    <path d="M46.027,40.41c0.325,1.181 2.097,2.05 4.178,2.05c2.081,-0 3.853,-0.869 4.178,-2.05"
      style="fill:none;fill-rule:nonzero;stroke:currentColor;stroke-width:0.72px;" />
    <path
      d="M47.596,41.056c1.441,0.832 3.777,0.832 5.218,0c1.441,-0.832 1.441,-2.18 0,-3.012c-1.441,-0.832 -3.777,-0.832 -5.218,-0c-1.441,0.832 -1.441,2.18 -0,3.012"
      style="fill:none;fill-rule:nonzero;stroke:currentColor;stroke-width:0.72px;" />
    <path d="M45.975,40.75c-0,1.342 1.894,2.43 4.23,2.43c2.336,0 4.23,-1.088 4.23,-2.43"
      style="fill:none;fill-rule:nonzero;stroke:currentColor;stroke-width:1.44px;" />
    <path
      d="M54.435,40.78l-0,-0.72l-0.06,-0.12l0,-0.3l-0.06,-0.18l-0.06,-0.12l-0.06,-0.18l-0.06,-0.12l-0.12,-0.12l-0.06,-0.12l-0.36,-0.36l-0.12,-0.06l-0.12,-0.12l-0.18,-0.12l-0.12,-0.06l-0.18,-0.06l-0.12,-0.12l-1.08,-0.36l-0.18,0l-0.36,-0.12l-0.36,0l-0.24,-0.06l-0.78,0l-0.18,0.06l-0.42,0l-0.36,0.12l-0.18,0l-0.9,0.3l-0.12,0.06l-0.18,0.12l-0.12,0.06l-0.18,0.06l-0.24,0.24l-0.18,0.06l-0.12,0.12l-0.06,0.12l-0.24,0.24l-0.12,0.24l-0.12,0.18l-0,0.12l-0.06,0.18l-0.06,0.12l-0,1.02"
      style="fill:none;fill-rule:nonzero;stroke:currentColor;stroke-width:1.44px;" />
    <path d="M109.267,183.09c0.325,1.181 2.097,2.05 4.178,2.05c2.081,0 3.853,-0.869 4.178,-2.05"
      style="fill:none;fill-rule:nonzero;stroke:currentColor;stroke-width:0.72px;" />
    <path
      d="M110.836,183.796c1.441,0.832 3.777,0.832 5.218,0c1.441,-0.832 1.441,-2.18 0,-3.012c-1.441,-0.832 -3.777,-0.832 -5.218,-0c-1.441,0.832 -1.441,2.18 -0,3.012"
      style="fill:none;fill-rule:nonzero;stroke:currentColor;stroke-width:0.72px;" />
    <path d="M109.215,183.43c-0,1.342 1.894,2.43 4.23,2.43c2.336,0 4.23,-1.088 4.23,-2.43"
      style="fill:none;fill-rule:nonzero;stroke:currentColor;stroke-width:1.44px;" />
    <path
      d="M117.675,183.46l-0,-0.72l-0.06,-0.12l0,-0.3l-0.06,-0.18l-0.12,-0.24l-0.06,-0.18l-0.12,-0.12l-0.06,-0.12l-0.36,-0.36l-0.12,-0.06l-0.12,-0.12l-0.18,-0.12l-0.12,-0.06l-0.18,-0.06l-0.12,-0.12l-1.08,-0.36l-0.18,0l-0.18,-0.06l-0.18,0l-0.18,-0.06l-0.42,0l-0.18,-0.06l-0.42,0l-0.18,0.06l-0.36,0l-0.24,0.06l-0.18,0l-0.18,0.06l-0.18,0l-0.9,0.3l-0.12,0.06l-0.18,0.12l-0.12,0.06l-0.18,0.06l-0.24,0.24l-0.18,0.06l-0.12,0.12l-0.06,0.12l-0.24,0.24l-0.06,0.12l-0.06,0.18l-0.12,0.12l-0.06,0.12l0,0.18l-0.06,0.12l0,1.02"
      style="fill:none;fill-rule:nonzero;stroke:currentColor;stroke-width:1.44px;" />
    <path d="M10.147,92.67c0.325,1.181 2.097,2.05 4.178,2.05c2.081,0 3.853,-0.869 4.178,-2.05"
      style="fill:none;fill-rule:nonzero;stroke:currentColor;stroke-width:0.72px;" />
    <path
      d="M11.716,93.316c1.441,0.832 3.777,0.832 5.218,0c1.441,-0.832 1.441,-2.18 0,-3.012c-1.441,-0.832 -3.777,-0.832 -5.218,-0c-1.441,0.832 -1.441,2.18 -0,3.012"
      style="fill:none;fill-rule:nonzero;stroke:currentColor;stroke-width:0.72px;" />
    <path d="M10.095,93.01c-0,1.342 1.894,2.43 4.23,2.43c2.336,-0 4.23,-1.088 4.23,-2.43"
      style="fill:none;fill-rule:nonzero;stroke:currentColor;stroke-width:1.44px;" />
    <path
      d="M18.555,93.04l-0,-1.02l-0.06,-0.12l-0.06,-0.18l-0.06,-0.12l-0.06,-0.18l-0.12,-0.24l-0.48,-0.48l-0.12,-0.06l-0.24,-0.24l-0.18,-0.06l-0.12,-0.06l-0.18,-0.12l-0.18,-0.06l-0.12,-0.06l-0.72,-0.24l-0.18,0l-0.18,-0.06l-0.24,-0.06l-0.36,0l-0.18,-0.06l-0.78,0l-0.24,0.06l-0.36,0l-0.18,0.06l-0.24,0.06l-0.18,0l-0.54,0.18l-0.12,0.06l-0.36,0.12l-0.18,0.12l-0.12,0.06l-0.18,0.06l-0.24,0.24l-0.12,0.06l-0.36,0.36l-0.06,0.12l-0.12,0.12l-0.06,0.12l-0.06,0.18l-0.06,0.12l-0.06,0.18l0,0.12l-0.06,0.18l-0,0.84"
      style="fill:none;fill-rule:nonzero;stroke:currentColor;stroke-width:1.44px;" />
    <path d="M150.943,208.645c0.598,0.34 1.566,0.34 2.164,0"
      style="fill:none;fill-rule:nonzero;stroke:currentColor;stroke-width:1.44px;" />
    <path d="M150.858,208.601c0.182,0.116 0.411,0.202 0.665,0.252"
      style="fill:none;fill-rule:nonzero;stroke:currentColor;stroke-width:1.44px;" />
    <path
      d="M150.735,208.6l0.06,0.06l0.12,-0l0.06,0.06l0.06,-0l0.06,0.06l0.18,-0l0.12,0.06l0.84,-0l0.12,-0.06l0.24,-0l0.06,-0.06l0.18,-0l0.06,-0.06l0.18,-0l0.48,-0.24"
      style="fill:none;fill-rule:nonzero;stroke:currentColor;stroke-width:1.44px;" />
    <path d="M152.005,208.72c0.603,0.003 1.184,-0.133 1.611,-0.378"
      style="fill:none;fill-rule:nonzero;stroke:currentColor;stroke-width:1.44px;" />
    <path d="M153.375,208.54l-0.48,0.24l-0.18,0.06l-0.12,-0l-0.18,0.06l-0.36,-0l-0.12,0.06l-0.06,-0.06l-0.42,-0"
      style="fill:none;fill-rule:nonzero;stroke:currentColor;stroke-width:1.44px;" />
    <path
      d="M151.935,208.78l-0.3,-0l-0.18,-0.06l-0.18,-0l-0.18,-0.06l-0.12,-0l-0.18,-0.06l-0.12,-0.06l-0.06,-0l-0.12,-0.06l-0.12,-0.12l-0.12,-0.06l-0.06,-0.06l-0.12,-0.06l-0.06,-0.06l-0.06,-0.12l0,-0.06l-0.06,-0.06l0,-0.12l-0.06,-0.06l0,-0.12l0.06,-0.06l0,-0.06"
      style="fill:none;fill-rule:nonzero;stroke:currentColor;stroke-width:1.44px;" />
    <path d="M151.455,208.9l0.72,-0l0.06,-0.06l0.24,-0l0.06,-0.06l0.06,-0l0.06,-0.06"
      style="fill:none;fill-rule:nonzero;stroke:currentColor;stroke-width:1.44px;" />
    <path d="M151.155,208.06l0.36,0l0.12,0.06l0.18,0l0.12,-0.06l0.36,0l0.06,-0.06"
      style="fill:none;fill-rule:nonzero;stroke:currentColor;stroke-width:1.44px;" />
    <path d="M151.155,207.22l0.18,-0l0.06,0.06l0.72,-0l0.12,-0.06l0.12,-0"
      style="fill:none;fill-rule:nonzero;stroke:currentColor;stroke-width:1.44px;" />
    <path
      d="M154.155,206.92l0.06,0.06l-0,0.6l-0.12,0.12l-0,0.12l-0.18,0.18l-0.06,0.12l-0.12,0.06l-0.12,0.12l-0.24,0.12l-0.06,0.06l-0.12,-0l-0.24,0.12l-0.12,-0l-0.24,0.12l-0.24,-0l-0.12,0.06l-0.3,-0"
      style="fill:none;fill-rule:nonzero;stroke:currentColor;stroke-width:1.44px;" />
    <path
      d="M154.155,206.86l-0.06,0.06l-0,0.06l-0.06,0.12l-0.24,0.24l-0.06,0l-0.12,0.12l-0.12,0.06l-0.06,0.06l-0.12,0.06l-0.06,0l-0.12,0.06l-0.06,0.06l-0.12,0l-0.06,0.06l-0.12,0l-0.12,0.06l-0.18,0l-0.12,0.06l-0.42,0l-0.12,0.06l-0.12,0l-0.12,-0.06l-0.48,0l-0.12,-0.06l-0.12,0l-0.06,-0.06l-0.12,0l-0.06,-0.06l-0.12,0l-0.06,-0.06l-0.06,0l-0.12,-0.06l-0.12,-0.12l-0.06,0l-0.18,-0.18l0,-0.06l-0.06,0l-0.06,-0.06l0,-0.12l-0.06,-0.06l0,-0.42l0.06,-0.06"
      style="fill:none;fill-rule:nonzero;stroke:currentColor;stroke-width:1.44px;" />
    <path
      d="M153.315,206.8l-0.24,0.12l-0.06,0.06l-0.12,0l-0.12,0.06l-0.12,0l-0.12,0.06l-0.24,0l-0.12,0.06l-0.84,0l-0.12,-0.06l-0.18,0l-0.12,-0.06l-0.12,0l-0.12,-0.06l-0.06,0l-0.12,-0.06l-0.06,0l-0.12,-0.06l-0.12,-0.12l-0.12,-0.06l-0.06,0l-0.06,-0.06"
      style="fill:none;fill-rule:nonzero;stroke:currentColor;stroke-width:1.44px;" />
    <path d="M153.555,208.42l0.12,-0.06l0.42,-0.42l-0,-0.06l0.06,-0.12l-0,-0.06l0.06,-0.06l-0,-0.3"
      style="fill:none;fill-rule:nonzero;stroke:currentColor;stroke-width:1.44px;" />
    <path
      d="M149.715,206.98l-0,0.18l0.06,0.06l-0,0.06l0.06,0.06l-0,0.06l0.06,0l0.06,0.06l-0,0.06l0.12,0.12l0.06,0l0.12,0.12l0.12,0l0.06,0.06l0.06,0l0.06,0.06l0.12,0l0.06,0.06l0.12,0l0.06,0.06l0.18,0l0.12,0.06l1.14,0l0.06,-0.06l0.24,0l0.06,-0.06l0.12,0l0.06,-0.06l0.12,0l0.12,-0.06l0.06,-0.06l0.06,0l0.12,-0.06l0.06,-0.06l0.06,0l0.12,-0.06l0.42,-0.42l-0,-0.06l0.12,-0.12l-0,-0.12"
      style="fill:none;fill-rule:nonzero;stroke:currentColor;stroke-width:1.44px;" />
    <path
      d="M149.895,206.62l0.3,0.3l0.12,0l0.06,0.06l0.24,0.12l0.12,0l0.12,0.06l0.12,0l0.12,0.06l0.24,0l0.12,0.06l0.54,0l0.12,-0.06l0.3,0l0.12,-0.06l0.12,0l0.12,-0.06l0.12,0l0.24,-0.12l0.12,0l0.24,-0.12"
      style="fill:none;fill-rule:nonzero;stroke:currentColor;stroke-width:1.44px;" />
    <path d="M149.468,200.726c1.222,0.533 2.852,0.644 4.258,0.289"
      style="fill:none;fill-rule:nonzero;stroke:currentColor;stroke-width:1.44px;" />
    <path d="M150.915,208.72l-0.06,-0.06"
      style="fill:none;fill-rule:nonzero;stroke:currentColor;stroke-width:1.44px;" />
    <path d="M150.735,208.6l-0.3,-0.18" style="fill:none;fill-rule:nonzero;stroke:currentColor;stroke-width:1.44px;" />
    <path d="M153.075,208.72l0.12,-0.12" style="fill:none;fill-rule:nonzero;stroke:currentColor;stroke-width:1.44px;" />
    <path d="M154.215,207.28l0,0.06" style="fill:none;fill-rule:nonzero;stroke:currentColor;stroke-width:1.44px;" />
    <path d="M149.715,206.86l-0,0.12" style="fill:none;fill-rule:nonzero;stroke:currentColor;stroke-width:1.44px;" />
    <path id="close"
      d="M73.275,31.45c0,-13.238 -10.732,-23.97 -23.97,-23.97c-13.238,0 -23.97,10.732 -23.97,23.97c0,13.238 10.732,23.97 23.97,23.97c13.238,0 23.97,-10.732 23.97,-23.97"
      style="fill:none;fill-rule:nonzero;stroke:currentColor;stroke-width:0.72px;" />
  </g>
</svg>