<?xml version="1.0" encoding="UTF-8" standalone="no"?>
<!DOCTYPE svg PUBLIC "-//W3C//DTD SVG 1.1//EN" "http://www.w3.org/Graphics/SVG/1.1/DTD/svg11.dtd">
<svg width="100%" height="100%" viewBox="0 0 384 384" version="1.1" xmlns="http://www.w3.org/2000/svg" xmlns:xlink="http://www.w3.org/1999/xlink" xml:space="preserve" xmlns:serif="http://www.serif.com/" style="fill-rule:evenodd;clip-rule:evenodd;stroke-linecap:round;stroke-linejoin:round;stroke-miterlimit:1.5;">
    <g transform="matrix(1,0,0,1,-868,0)">
        <g id="Logo__AffinityPublisher" transform="matrix(0.893023,0,0,0.831169,856.391,0)">
            <rect x="13" y="0" width="430" height="462" style="fill:none;"/>
            <clipPath id="_clip1">
                <rect x="13" y="0" width="430" height="462"/>
            </clipPath>
            <g clip-path="url(#_clip1)">
                <g id="ver1" transform="matrix(1.11979,0,0,1.20312,-32.9115,-21.6562)">
                    <path id="RectangleMask" d="M425,29.52C425,23.162 419.838,18 413.48,18L52.52,18C46.162,18 41,23.162 41,29.52L41,390.48C41,396.838 46.162,402 52.52,402L413.48,402C419.838,402 425,396.838 425,390.48L425,29.52Z" style="fill:rgb(255,164,101);"/>
                    <clipPath id="_clip2">
                        <path id="RectangleMask1" serif:id="RectangleMask" d="M425,29.52C425,23.162 419.838,18 413.48,18L52.52,18C46.162,18 41,23.162 41,29.52L41,390.48C41,396.838 46.162,402 52.52,402L413.48,402C419.838,402 425,396.838 425,390.48L425,29.52Z"/>
                    </clipPath>
                    <g clip-path="url(#_clip2)">
                        <g transform="matrix(1,0,0,1,-827,18)">
                            <path d="M915.445,-6L892.495,-45.75L879.505,-38.25L898.124,-6L857.951,-6L857.671,39.425L808.495,-45.75L795.505,-38.25L857.489,69.109L856,311L926.375,188.424L1045.51,394.763L1058.5,387.263C1058.5,387.263 971.705,236.937 943.647,188.34C938.301,179.08 938.287,167.675 943.611,158.403C953.462,141.245 968.258,115.474 968.258,115.474L1129.51,394.763L1142.5,387.263L976.894,100.432L1009.14,44.262L1211.51,394.763L1224.5,387.263L1017.78,29.22L1038,-6L997.445,-6L974.495,-45.75L961.505,-38.25L980.124,-6L915.445,-6ZM1043.51,-38.25L1293.51,394.763L1306.5,387.263L1056.5,-45.75L1043.51,-38.25Z" style="fill:rgb(201,40,77);"/>
                            <path d="M915.445,-6L892.495,-45.75L879.505,-38.25L898.124,-6L857.951,-6L857.671,39.425L808.495,-45.75L795.505,-38.25L857.489,69.109L856,311L926.375,188.424L1045.51,394.763L1058.5,387.263C1058.5,387.263 971.705,236.937 943.647,188.34C938.301,179.08 938.287,167.675 943.611,158.403C953.462,141.245 968.258,115.474 968.258,115.474L1129.51,394.763L1142.5,387.263L976.894,100.432L1009.14,44.262L1211.51,394.763L1224.5,387.263L1017.78,29.22L1038,-6L997.445,-6L974.495,-45.75L961.505,-38.25L980.124,-6L915.445,-6ZM1043.51,-38.25L1293.51,394.763L1306.5,387.263L1056.5,-45.75L1043.51,-38.25ZM911.981,-4L913.135,-2L987.053,-2L966.969,-36.786C966.969,-36.786 973.031,-40.286 973.031,-40.286C973.031,-40.286 995.135,-2 995.135,-2L1031.09,-2C1031.09,-2 1013.16,29.226 1013.16,29.226L1219.03,385.799C1219.03,385.799 1212.97,389.299 1212.97,389.299C1191.97,352.92 1012.61,42.262 1012.61,42.262L1009.13,36.245L972.278,100.438L1137.03,385.799C1137.03,385.799 1130.97,389.299 1130.97,389.299C1130.97,389.299 968.248,107.458 968.248,107.458L940.142,156.411C934.109,166.92 934.124,179.846 940.183,190.34C965.717,234.567 1039.9,363.047 1053.03,385.799C1053.03,385.799 1046.97,389.299 1046.97,389.299C1046.97,389.299 926.365,180.407 926.365,180.407L860.093,295.837L861.495,68.049L800.969,-36.786C800.969,-36.786 807.031,-40.286 807.031,-40.286C807.031,-40.286 854.207,41.425 854.207,41.425L861.671,39.45L861.926,-2C861.926,-2 905.053,-2 905.053,-2L884.969,-36.786C884.969,-36.786 891.031,-40.286 891.031,-40.286C891.031,-40.286 911.981,-4 911.981,-4ZM1048.97,-36.786L1055.03,-40.286C1077.32,-1.688 1278.75,347.201 1301.03,385.799C1301.03,385.799 1294.97,389.299 1294.97,389.299C1294.97,389.299 1048.97,-36.786 1048.97,-36.786L1048.97,-36.786Z" style="fill-opacity:0.3;"/>
                            <path d="M917.754,-10L893.959,-51.214L874.041,-39.714L891.196,-10C891.196,-10 853.975,-10 853.975,-10L853.762,24.655C853.762,24.654 809.959,-51.214 809.959,-51.214L790.041,-39.714L853.482,70.169C853.482,70.169 852,310.975 852,310.975L859.469,312.992L926.385,196.441C926.385,196.441 1044.04,400.227 1044.04,400.227L1063.96,388.727L947.111,186.34C942.478,178.315 942.466,168.431 947.08,160.394C947.08,160.394 968.267,123.491 968.267,123.491L1128.04,400.227L1147.96,388.727L981.509,100.427C981.509,100.427 1009.15,52.279 1009.15,52.279C1009.15,52.279 1210.04,400.227 1210.04,400.227L1229.96,388.727L1022.39,29.214C1022.39,29.214 1044.91,-10 1044.91,-10L999.754,-10C999.754,-10 975.959,-51.214 975.959,-51.214L956.041,-39.714L973.196,-10L917.754,-10ZM1057.96,-51.214L1038.04,-39.714L1292.04,400.227L1311.96,388.727L1057.96,-51.214ZM915.445,-6L892.495,-45.75L879.505,-38.25L898.124,-6L857.951,-6L857.671,39.425L808.495,-45.75L795.505,-38.25L857.489,69.109L856,311L926.375,188.424L1045.51,394.763L1058.5,387.263C1058.5,387.263 971.705,236.937 943.647,188.34C938.301,179.08 938.287,167.675 943.611,158.403C953.462,141.245 968.258,115.474 968.258,115.474L1129.51,394.763L1142.5,387.263L976.894,100.432L1009.14,44.262L1211.51,394.763L1224.5,387.263L1017.78,29.22L1038,-6L997.445,-6L974.495,-45.75L961.505,-38.25L980.124,-6L915.445,-6ZM1043.51,-38.25L1293.51,394.763L1306.5,387.263L1056.5,-45.75L1043.51,-38.25Z" style="fill:white;fill-opacity:0.3;"/>
                        </g>
                    </g>
                    <path id="RectangleMask2" serif:id="RectangleMask" d="M425,29.52C425,23.162 419.838,18 413.48,18L52.52,18C46.162,18 41,23.162 41,29.52L41,390.48C41,396.838 46.162,402 52.52,402L413.48,402C419.838,402 425,396.838 425,390.48L425,29.52Z" style="fill:none;stroke:white;stroke-width:1px;"/>
                </g>
            </g>
        </g>
    </g>
</svg>
