<?xml version="1.0" encoding="UTF-8" standalone="no"?>
<!DOCTYPE svg PUBLIC "-//W3C//DTD SVG 1.1//EN" "http://www.w3.org/Graphics/SVG/1.1/DTD/svg11.dtd">
<svg width="100%" height="100%" viewBox="0 0 384 384" version="1.1" xmlns="http://www.w3.org/2000/svg" xmlns:xlink="http://www.w3.org/1999/xlink" xml:space="preserve" xmlns:serif="http://www.serif.com/" style="fill-rule:evenodd;clip-rule:evenodd;stroke-linejoin:round;stroke-miterlimit:2;">
    <g transform="matrix(1,0,0,1,-434,0)">
        <g id="Logo__AffinityPhoto" transform="matrix(0.893023,0,0,0.831169,422.391,0)">
            <rect x="13" y="0" width="430" height="462" style="fill:none;"/>
            <g id="ver1" transform="matrix(1.11979,0,0,1.20312,-32.9115,-21.6562)">
                <path id="RectangleMask" d="M425,29.52C425,23.162 419.838,18 413.48,18L52.52,18C46.162,18 41,23.162 41,29.52L41,390.48C41,396.838 46.162,402 52.52,402L413.48,402C419.838,402 425,396.838 425,390.48L425,29.52Z" style="fill:rgb(242,143,255);"/>
                <clipPath id="_clip1">
                    <path id="RectangleMask1" serif:id="RectangleMask" d="M425,29.52C425,23.162 419.838,18 413.48,18L52.52,18C46.162,18 41,23.162 41,29.52L41,390.48C41,396.838 46.162,402 52.52,402L413.48,402C419.838,402 425,396.838 425,390.48L425,29.52Z"/>
                </clipPath>
                <g clip-path="url(#_clip1)">
                    <g transform="matrix(1,0,0,1,-394,18)">
                        <path d="M518.593,144.5L423,311L424.951,-6L605,-6L593.836,13.445L687.249,175.596L799.988,-17.777L812.947,-10.223L668.522,237.5L831.468,237.5L831.468,252.5L609.872,252.5L684.996,385.307L671.94,392.693L566.121,205.621L456.946,392.779L443.989,385.221L584.41,144.5L518.593,144.5ZM579.212,183.179C576.524,187.788 576.486,193.478 579.113,198.122C584.041,206.834 592.125,221.126 597.08,229.885C599.742,234.591 604.73,237.5 610.136,237.5C619.258,237.5 633.467,237.5 642.541,237.5C647.877,237.5 652.811,234.665 655.499,230.055C660.607,221.294 669.039,206.83 674.163,198.041C676.871,193.396 676.886,187.657 674.202,182.999C669.273,174.442 661.276,160.561 656.352,152.012C653.674,147.364 648.718,144.5 643.354,144.5L610.391,144.5C605.056,144.5 600.122,147.334 597.434,151.942C592.422,160.535 584.225,174.586 579.212,183.179ZM585.195,28.495L527.205,129.5L643.383,129.5L585.195,28.495Z" style="fill:rgb(113,64,194);"/>
                        <path d="M518.593,144.5L423,311L424.951,-6L605,-6L593.836,13.445L687.249,175.596L799.988,-17.777L812.947,-10.223L668.522,237.5L831.468,237.5L831.468,252.5L609.872,252.5L684.996,385.307L671.94,392.693L566.121,205.621L456.946,392.779L443.989,385.221L584.41,144.5L518.593,144.5ZM591.374,140.5L516.277,140.5L427.093,295.837C427.093,295.837 428.926,-2 428.926,-2C428.926,-2 598.091,-2 598.091,-2C598.091,-2 589.222,13.448 589.222,13.448L687.228,183.574L801.429,-12.307C801.429,-12.307 807.477,-8.782 807.477,-8.782C807.477,-8.782 661.559,241.5 661.559,241.5L827.468,241.5C827.468,241.5 827.468,248.5 827.468,248.5C827.468,248.5 603.014,248.5 603.014,248.5L679.545,383.795C679.545,383.795 673.452,387.242 673.452,387.242C658.977,361.652 569.603,203.652 569.603,203.652L566.175,197.591L455.506,387.308C455.506,387.308 449.46,383.781 449.46,383.781C466.64,354.329 587.865,146.515 587.865,146.515L591.374,140.5ZM575.757,181.164C572.352,187.002 572.304,194.209 575.632,200.092C580.559,208.803 588.643,223.095 593.598,231.855C596.97,237.815 603.288,241.5 610.136,241.5C619.258,241.5 633.467,241.5 642.541,241.5C649.3,241.5 655.55,237.909 658.955,232.07C664.062,223.309 672.495,208.845 677.619,200.056C681.049,194.172 681.068,186.903 677.668,181.002C672.739,172.445 664.742,158.564 659.818,150.016C656.426,144.128 650.149,140.5 643.354,140.5L610.391,140.5C603.633,140.5 597.384,144.089 593.979,149.926L575.757,181.164ZM579.212,183.179C576.524,187.788 576.486,193.478 579.113,198.122C584.041,206.834 592.125,221.126 597.08,229.885C599.742,234.591 604.73,237.5 610.136,237.5C619.258,237.5 633.467,237.5 642.541,237.5C647.877,237.5 652.811,234.665 655.499,230.055C660.607,221.294 669.039,206.83 674.163,198.041C676.871,193.396 676.886,187.657 674.202,182.999C669.273,174.442 661.276,160.561 656.352,152.012C653.674,147.364 648.718,144.5 643.354,144.5L610.391,144.5C605.056,144.5 600.122,147.334 597.434,151.942C592.422,160.535 584.225,174.586 579.212,183.179ZM650.303,133.5L585.189,20.472L520.296,133.5L650.303,133.5ZM585.195,28.495L527.205,129.5L643.383,129.5L585.195,28.495Z" style="fill-opacity:0.3;"/>
                        <path d="M520.909,148.5L577.446,148.5C577.446,148.5 438.519,386.661 438.519,386.661L458.386,398.25L566.068,213.651L670.427,398.144L690.447,386.82L616.73,256.5L835.468,256.5L835.468,233.5L675.484,233.5L818.417,-11.663L798.547,-23.248L687.27,167.619C687.27,167.619 598.45,13.442 598.45,13.442C598.45,13.442 611.909,-10 611.909,-10L420.975,-10L419,310.975L426.469,312.992L520.909,148.5ZM518.593,144.5L423,311L424.951,-6L605,-6L593.836,13.445L687.249,175.596L799.988,-17.777L812.947,-10.223L668.522,237.5L831.468,237.5L831.468,252.5L609.872,252.5L684.996,385.307L671.94,392.693L566.121,205.621L456.946,392.779L443.989,385.221L584.41,144.5L518.593,144.5ZM579.212,183.179C576.524,187.788 576.486,193.478 579.113,198.122C584.041,206.834 592.125,221.126 597.08,229.885C599.742,234.591 604.73,237.5 610.136,237.5C619.258,237.5 633.467,237.5 642.541,237.5C647.877,237.5 652.811,234.665 655.499,230.055C660.607,221.294 669.039,206.83 674.163,198.041C676.871,193.396 676.886,187.657 674.202,182.999C669.273,174.442 661.276,160.561 656.352,152.012C653.674,147.364 648.718,144.5 643.354,144.5L610.391,144.5C605.056,144.5 600.122,147.334 597.434,151.942C592.422,160.535 584.225,174.586 579.212,183.179ZM582.668,185.195L600.889,153.957C602.861,150.578 606.479,148.5 610.391,148.5L643.354,148.5C647.288,148.5 650.922,150.601 652.886,154.009C652.886,154.009 670.736,184.995 670.736,184.995C672.705,188.412 672.694,192.62 670.708,196.027C665.584,204.816 657.151,219.279 652.044,228.04C650.073,231.421 646.454,233.5 642.541,233.5C642.541,233.5 610.136,233.5 610.136,233.5C606.171,233.5 602.514,231.367 600.562,227.916C600.562,227.916 582.595,196.153 582.595,196.153C580.668,192.747 580.696,188.575 582.668,185.195ZM585.195,28.495L527.205,129.5L643.383,129.5L585.195,28.495ZM585.201,36.519L636.462,125.5C636.462,125.5 534.114,125.5 534.114,125.5L585.201,36.519Z" style="fill:white;fill-opacity:0.3;"/>
                    </g>
                </g>
            </g>
        </g>
    </g>
</svg>
