<?xml version="1.0" encoding="UTF-8" standalone="no"?><!DOCTYPE svg PUBLIC "-//W3C//DTD SVG 1.1//EN" "http://www.w3.org/Graphics/SVG/1.1/DTD/svg11.dtd"><svg width="100%" height="100%" viewBox="0 0 398 626" version="1.1" xmlns="http://www.w3.org/2000/svg" xmlns:xlink="http://www.w3.org/1999/xlink" xml:space="preserve" xmlns:serif="http://www.serif.com/" style="fill-rule:evenodd;clip-rule:evenodd;stroke-linejoin:round;stroke-miterlimit:2;"><rect id="Artboard1" x="0" y="0" width="397.188" height="625.106" style="fill:none;"/><clipPath id="_clip1"><rect id="Artboard11" serif:id="Artboard1" x="0" y="0" width="397.188" height="625.106"/></clipPath><g clip-path="url(#_clip1)"><g><path d="M397.179,184.645c0.188,-22.173 -3.943,-44.172 -12.16,-64.766c-7.516,-18.875 -18.291,-36.284 -31.694,-51.637c-35.624,-40.813 -89.809,-67.074 -150.683,-67.555c-24.222,-0.194 -47.451,3.715 -68.928,11.025c-45.965,15.647 -83.901,46.881 -106.354,86.883c0,0 -25.556,47.855 -25.556,68.805c-0,20.951 19.625,23.198 19.625,23.198l93.725,8.455l4.65,0.421c-0,-3.709 0.488,-7.329 1.417,-10.825c1.027,-3.834 2.557,-7.516 4.549,-10.949c3.481,-6.039 8.362,-11.485 14.328,-16.095c12.484,-9.636 29.706,-15.596 48.726,-15.596c35.983,-0 65.534,21.331 68.732,48.555c0.225,1.91 0.318,3.834 0.279,5.757l0,0.003c-2.545,2.219 -5.129,4.406 -7.738,6.555l-0.006,0c-10.935,9.01 -22.396,17.362 -34.322,25.012c-11.766,7.552 -23.965,14.409 -36.534,20.535c-23.278,11.351 -47.726,20.125 -72.91,26.165l0,64.053c2.84,1.471 5.725,2.875 8.651,4.213c25.601,11.72 54.359,18.405 84.785,18.643l0.07,0c13.57,0.114 27.119,-1.085 40.458,-3.579c3.139,1.715 13.349,8.204 19.455,22.954c1.122,2.71 2.105,5.697 2.881,8.981l0,0.003c0.07,0.291 0.137,0.586 0.2,0.881l-0,0.006c1.493,18.038 -10.724,69.309 -70.663,69.309c-59.944,0 -76.736,-57.817 -76.736,-57.817l-2.136,0.269l-15.125,1.921c-2.767,0.35 -5.534,0.701 -8.302,1.053c-27.141,3.436 -66.554,8.422 -69.556,8.771c-2.526,0.292 -8.378,2.58 -13.155,10.28l-0,0.004c-3.941,6.355 -7.152,16.401 -7.152,32.058c0,33.129 37.992,83.773 41.261,88.066l0.069,0.095l0.153,0.196c34.882,46.476 92.488,76.835 157.641,76.835c106.448,-0 192.742,-81.035 192.742,-180.995c0,-48.995 -20.735,-93.448 -54.416,-126.036c-0.793,-0.767 -1.588,-1.525 -2.397,-2.276c37.885,-32.939 61.717,-79.745 62.126,-131.834Z" style="fill:#40b9bb;fill-rule:nonzero;"/><path d="M344.982,431.515l0.013,-0.631c0.009,-0.485 0.025,-0.963 0.031,-1.451c0.01,-0.72 0.016,-1.443 0.016,-2.169c0,-35.919 -12.864,-68.608 -33.9,-93.02c-21.061,13.285 -45.046,22.849 -70.856,27.683c3.139,1.712 13.352,8.204 19.458,22.954c1.119,2.708 2.105,5.694 2.878,8.981l0,0.006l0,-0.003l0.203,0.878l-0,0.01c0.526,2.374 0.941,4.897 1.227,7.586c1.16,10.98 -0.263,21.052 -2.6,29.5c-9.713,15.349 -32.92,43.562 -72.269,43.562c-53.184,-0 -73.113,-42.085 -73.744,-43.439c-0.002,-0.01 -0.006,-0.019 -0.01,-0.028l0,-0.007l-0.003,0c-0.196,0.051 -11.612,3.018 -18.858,15.977c-1.295,2.332 -2.365,4.782 -3.196,7.317l0,0.006c-1.632,4.948 -2.656,10.908 -2.656,18.066c-0,35.149 31.126,95.956 111.999,95.956c19.55,-0 37.02,-4.397 52.274,-11.057l0.012,-0.007c6.673,-2.96 87.429,-39.209 89.981,-126.67Z" style="fill:url(#_Linear2);fill-rule:nonzero;"/><path d="M337.45,318.758c-0.791,-0.768 -1.59,-1.527 -2.397,-2.279c-7.502,6.526 -15.496,12.464 -23.911,17.762c21.039,24.412 33.9,57.101 33.9,93.02c0,0.387 -0.003,0.764 -0.013,1.138l-0.006,1.03c-0.006,0.485 -0.019,0.97 -0.032,1.452l-0.012,0.631c-2.549,87.464 -83.308,123.71 -89.981,126.67l-0.012,0.007c-15.255,6.66 -32.724,11.053 -52.274,11.053c-80.873,0 -111.999,-60.803 -111.999,-95.952c-0,-7.158 1.024,-13.118 2.656,-18.066l0,-0.007c0.904,-2.738 1.994,-5.164 3.196,-7.316c7.246,-12.962 18.661,-15.929 18.858,-15.977l0.003,0l0,-25.683l-2.136,0.269l-15.125,1.918l-6.352,0.805l-1.95,0.248c-23.182,2.947 -46.368,5.872 -69.556,8.774c-2.526,0.292 -8.378,2.581 -13.155,10.281c-3.941,6.355 -7.152,16.401 -7.152,32.058c0,33.098 37.913,83.669 41.248,88.053l0.013,0.013l0.035,0.05l0.034,0.048l0.153,0.193c34.882,46.479 92.488,76.835 157.641,76.835c106.448,-0 192.742,-81.032 192.742,-180.992c0,-48.998 -20.735,-93.451 -54.416,-126.036Z" style="fill:url(#_Linear3);fill-rule:nonzero;"/><path d="M261.456,431.832c-9.713,15.349 -32.918,43.562 -72.267,43.562c-54.055,0 -73.757,-43.473 -73.757,-43.473l0,-25.683c0,-0 16.789,57.814 76.737,57.814c59.938,0 72.152,-51.271 70.659,-69.306c0.526,2.375 0.945,4.898 1.227,7.586c1.16,10.984 -0.263,21.052 -2.599,29.5Z" style="fill:url(#_Linear4);fill-rule:nonzero;"/><path d="M261.449,431.832c-0.969,1.587 -1.974,3.151 -3.015,4.692c-0.532,0.761 -1.055,1.534 -1.607,2.282l-0.821,1.129l-0.84,1.113c-2.251,2.971 -4.659,5.819 -7.215,8.533c-5.119,5.415 -10.854,10.287 -17.165,14.303c-3.153,2.017 -6.444,3.809 -9.849,5.361c-3.408,1.558 -6.928,2.856 -10.531,3.883c-3.606,1.021 -7.281,1.781 -10.997,2.273l-2.79,0.317c-0.935,0.082 -1.867,0.133 -2.802,0.203c-0.935,0.079 -1.87,0.082 -2.805,0.107c-0.935,0.02 -1.874,0.061 -2.809,0.02l-2.802,-0.073c-0.466,-0.016 -0.935,-0.01 -1.401,-0.048l-1.398,-0.108l-2.796,-0.212c-0.932,-0.092 -1.858,-0.228 -2.787,-0.342l-1.391,-0.175c-0.232,-0.032 -0.463,-0.057 -0.695,-0.095l-0.691,-0.124l-2.764,-0.497c-0.922,-0.146 -1.829,-0.39 -2.742,-0.593l-1.366,-0.317c-0.453,-0.111 -0.913,-0.209 -1.36,-0.346c-1.798,-0.526 -3.604,-1.008 -5.364,-1.654l-1.328,-0.457l-0.663,-0.231l-0.649,-0.263l-2.609,-1.043c-3.433,-1.484 -6.781,-3.17 -9.983,-5.107c-6.39,-3.894 -12.213,-8.65 -17.305,-14.135c-2.529,-2.741 -4.874,-5.647 -7.018,-8.699c-1.074,-1.521 -2.09,-3.083 -3.046,-4.682c-0.959,-1.595 -1.831,-3.24 -2.613,-4.929c0.828,1.664 1.788,3.259 2.79,4.821c0.992,1.566 2.057,3.088 3.161,4.578c2.219,2.97 4.625,5.801 7.211,8.448c5.156,5.311 10.996,9.912 17.366,13.682l2.415,1.353c0.203,0.111 0.403,0.229 0.606,0.336l0.618,0.311l1.236,0.618l1.236,0.622c0.419,0.196 0.84,0.38 1.259,0.567l1.265,0.564l0.627,0.282l0.317,0.14l0.321,0.127l2.577,1.004l0.643,0.254l0.656,0.222l1.31,0.437c1.737,0.625 3.525,1.081 5.297,1.582c0.44,0.137 0.891,0.225 1.341,0.33l1.347,0.311c0.897,0.196 1.788,0.437 2.701,0.573l2.723,0.482l0.678,0.121c0.228,0.035 0.46,0.06 0.688,0.088l1.373,0.172c0.913,0.107 1.826,0.241 2.742,0.326l2.758,0.203l1.382,0.101c0.459,0.039 0.922,0.032 1.382,0.048l2.764,0.063c0.923,0.045 1.842,0.007 2.761,-0.009c0.923,-0.022 1.845,-0.022 2.761,-0.102c0.92,-0.063 1.839,-0.114 2.755,-0.19l2.745,-0.307c3.652,-0.478 7.266,-1.209 10.816,-2.188c7.111,-1.946 13.885,-5.037 20.168,-8.904c6.28,-3.886 12.046,-8.597 17.254,-13.869c5.224,-5.246 9.856,-11.092 13.967,-17.283Z" style="fill:url(#_Linear5);fill-rule:nonzero;"/><path d="M115.436,431.953l-0.013,-0.035l-0.003,-0c-1.332,0.387 -2.612,0.935 -3.855,1.547c-1.239,0.619 -2.439,1.316 -3.592,2.086c-3.453,2.325 -6.462,5.249 -8.885,8.635c-0.805,1.125 -1.566,2.279 -2.235,3.493c-1.359,2.411 -2.47,4.954 -3.316,7.589l0.01,-0.057l-0,0.032l-0.01,0.028c-1.62,4.99 -2.371,10.233 -2.533,15.47c-0.076,2.622 -0.022,5.246 0.216,7.855c0.231,2.612 0.602,5.209 1.097,7.783c1.003,5.149 2.443,10.203 4.305,15.108c1.856,4.904 4.097,9.653 6.701,14.205c5.188,9.12 11.763,17.379 19.489,24.478c0.488,0.438 0.958,0.891 1.455,1.316l1.484,1.284c1.008,0.833 2.006,1.683 3.043,2.476c1.021,0.817 2.08,1.585 3.129,2.368c0.532,0.38 1.071,0.751 1.604,1.128c0.269,0.187 0.536,0.377 0.805,0.561l0.818,0.542c4.36,2.895 8.93,5.46 13.672,7.675c9.485,4.412 19.603,7.424 29.922,9.142c5.164,0.854 10.372,1.419 15.599,1.693c5.228,0.272 10.474,0.314 15.692,0.013c5.223,-0.306 10.422,-0.931 15.568,-1.874c5.149,-0.932 10.234,-2.187 15.225,-3.756c4.994,-1.559 9.893,-3.408 14.671,-5.538c4.758,-2.186 9.398,-4.62 13.901,-7.291c9.031,-5.326 17.572,-11.444 25.521,-18.282c7.956,-6.832 15.214,-14.437 21.667,-22.703c3.204,-4.146 6.178,-8.464 8.911,-12.934c2.717,-4.479 5.17,-9.113 7.348,-13.878c4.349,-9.55 7.516,-19.595 9.431,-29.912c0.96,-5.152 1.61,-10.363 1.965,-15.597l0.07,-0.979l0.048,-0.983l0.092,-1.965c0.031,-0.653 0.063,-1.31 0.076,-1.966c0.015,-0.656 0.034,-1.312 0.038,-1.965l0.009,-0.986c0.01,-0.329 0.009,-0.658 -0.003,-0.986l-0.038,-1.965l-0.076,-3.938c-0.439,-10.498 -1.984,-20.92 -4.609,-31.094c-0.289,-1.281 -0.695,-2.533 -1.053,-3.795c-0.374,-1.258 -0.729,-2.523 -1.119,-3.775l-1.911,-5.592c-0.232,-0.615 -0.476,-1.224 -0.714,-1.835l-1.439,-3.668l-0.18,-0.46l-0.2,-0.447l-0.4,-0.9l-0.802,-1.801l-0.798,-1.803c-0.14,-0.295 -0.257,-0.606 -0.409,-0.894l-0.438,-0.885l-1.756,-3.525l-0.441,-0.884l-0.475,-0.862l-0.957,-1.725l-0.955,-1.721c-0.32,-0.577 -0.63,-1.157 -0.982,-1.709l-2.064,-3.36l-0.517,-0.84l-0.256,-0.418l-0.276,-0.409l-1.103,-1.633c-0.742,-1.087 -1.462,-2.187 -2.219,-3.262l-2.346,-3.17c-0.396,-0.526 -0.777,-1.059 -1.179,-1.582l-1.243,-1.531l-2.489,-3.059l2.527,3.031l1.265,1.515c0.406,0.513 0.799,1.046 1.198,1.566l2.387,3.141c0.77,1.069 1.506,2.162 2.257,3.24l1.125,1.626l0.279,0.406l0.264,0.415l0.523,0.84l2.095,3.345c0.361,0.551 0.672,1.131 0.998,1.702l0.977,1.721l0.973,1.718l0.485,0.863l0.45,0.878l1.791,3.522l0.45,0.878c0.153,0.291 0.279,0.599 0.416,0.897l0.818,1.8l0.817,1.798l0.412,0.9l0.203,0.45l0.187,0.457l1.474,3.667c0.245,0.615 0.498,1.221 0.736,1.836l0.656,1.867l1.312,3.728c0.406,1.255 0.771,2.52 1.158,3.782c0.374,1.265 0.795,2.517 1.093,3.801l0.98,3.832l0.244,0.961c0.082,0.32 0.139,0.643 0.212,0.963l0.4,1.94c0.263,1.294 0.545,2.581 0.792,3.877l0.628,3.906l0.317,1.952c0.057,0.324 0.089,0.653 0.127,0.98l0.11,0.983l0.454,3.93l0.114,0.983l0.07,0.986l0.139,1.975c0.086,1.315 0.2,2.631 0.266,3.95l0.102,3.956l0.047,1.978c0.013,0.327 0.016,0.659 0.01,0.989l-0.003,0.989c0.003,0.659 -0.016,1.319 -0.029,1.978c-0.006,0.663 -0.035,1.322 -0.063,1.978l-0.079,1.978l-0.045,0.989l-0.066,0.989c-0.331,5.273 -0.967,10.522 -1.906,15.72c-0.941,5.196 -2.196,10.338 -3.762,15.388c-1.566,5.049 -3.424,10.007 -5.614,14.819c-2.185,4.814 -4.647,9.496 -7.374,14.024c-2.746,4.516 -5.735,8.879 -8.955,13.07c-6.476,8.358 -13.779,16.041 -21.797,22.932c-3.999,3.449 -8.15,6.716 -12.442,9.792c-4.288,3.08 -8.711,5.967 -13.257,8.651c-4.542,2.702 -9.222,5.163 -14.021,7.374c-4.832,2.147 -9.784,4.011 -14.833,5.582c-10.103,3.147 -20.552,5.047 -31.116,5.659c-1.322,0.06 -2.641,0.12 -3.96,0.161c-1.322,0.013 -2.643,0.051 -3.962,0.041l-1.981,-0.025c-0.66,-0.009 -1.319,-0.009 -1.979,-0.041l-1.978,-0.073l-0.989,-0.035l-0.989,-0.06c-5.275,-0.29 -10.529,-0.874 -15.739,-1.75c-10.413,-1.766 -20.63,-4.837 -30.207,-9.329c-9.594,-4.498 -18.436,-10.451 -26.212,-17.648c-3.879,-3.595 -7.471,-7.487 -10.744,-11.64c-3.269,-4.154 -6.21,-8.557 -8.796,-13.168c-2.595,-4.606 -4.822,-9.41 -6.661,-14.367c-1.846,-4.952 -3.261,-10.054 -4.228,-15.25c-0.479,-2.599 -0.824,-5.221 -1.034,-7.856c-0.206,-2.634 -0.257,-5.278 -0.152,-7.918c0.212,-5.272 1.018,-10.547 2.695,-15.565l-0.01,0.057l0,-0.032l0.01,-0.028c0.884,-2.644 2.009,-5.209 3.407,-7.618c0.688,-1.214 1.462,-2.371 2.283,-3.496c0.821,-1.126 1.705,-2.203 2.659,-3.215c1.902,-2.035 4.042,-3.842 6.369,-5.36c1.166,-0.755 2.371,-1.449 3.626,-2.048c1.246,-0.614 2.543,-1.117 3.877,-1.503l0.003,0l0.023,0.045Z" style="fill:url(#_Linear6);fill-rule:nonzero;"/><path d="M327.667,137.044c0,55.288 -36.398,99.545 -79.671,132.624c-9.704,7.386 -19.75,14.311 -30.106,20.75c-14.239,8.889 -28.498,16.649 -41.834,23.271c-17.522,8.702 -35.477,16.502 -53.795,23.37c-9.834,3.667 -15.768,5.535 -15.93,5.585l-0.003,0l0,-64.053c9.956,-2.386 19.804,-5.204 29.516,-8.445c14.839,-4.944 29.336,-10.864 43.394,-17.72c16.498,-8.039 32.352,-17.336 47.424,-27.807c8.051,-5.591 15.869,-11.509 23.435,-17.74l0.004,0c2.61,-2.148 5.189,-4.333 7.738,-6.555c0.009,-0.285 0.009,-0.568 0.009,-0.85c0,-1.658 -0.095,-3.293 -0.288,-4.91c-3.199,-27.224 -32.75,-48.555 -68.732,-48.555c-19.017,-0 -36.243,5.96 -48.723,15.596c-5.969,4.61 -10.851,10.056 -14.332,16.095c-1.992,3.433 -3.522,7.115 -4.549,10.949c-0.941,3.531 -1.417,7.171 -1.417,10.825l-4.65,-0.421l-93.721,-8.455c-0,0 -19.629,-2.247 -19.629,-23.198c-0,-20.95 25.556,-68.805 25.556,-68.805c22.457,-40.002 60.389,-71.236 106.354,-86.883c54.423,-11.663 114.418,5.674 153.057,40.259c20.621,18.459 35.159,41.822 39.524,68.313c0.9,5.462 1.369,11.051 1.369,16.76Z" style="fill:url(#_Linear7);fill-rule:nonzero;"/><path d="M397.182,184.645c-0.409,52.089 -24.241,98.895 -62.125,131.834c-7.503,6.524 -15.496,12.461 -23.909,17.758c-21.064,13.286 -45.045,22.85 -70.855,27.684c-13.34,2.494 -26.889,3.693 -40.459,3.579l-0.07,0c-30.426,-0.238 -59.184,-6.923 -84.785,-18.643c-2.917,-1.333 -5.8,-2.737 -8.648,-4.213c0.159,-0.05 6.096,-1.918 15.93,-5.585c18.318,-6.868 36.273,-14.668 53.795,-23.37c13.336,-6.622 27.595,-14.382 41.834,-23.271c10.356,-6.439 20.402,-13.364 30.106,-20.75c43.273,-33.079 79.668,-77.336 79.668,-132.624c0,-5.709 -0.466,-11.301 -1.366,-16.76c-4.365,-26.491 -18.903,-49.854 -39.524,-68.313c-38.642,-34.585 -98.637,-51.925 -153.057,-40.259c21.477,-7.31 44.707,-11.219 68.929,-11.025c60.873,0.481 115.058,26.742 150.683,67.555c13.402,15.353 24.177,32.762 31.693,51.637c8.218,20.594 12.348,42.593 12.16,64.766Z" style="fill:url(#_Linear8);fill-rule:nonzero;"/><path d="M320.928,327.65c-3.193,2.293 -6.454,4.489 -9.78,6.584c-21.064,13.289 -45.045,22.85 -70.855,27.684c-13.34,2.494 -26.889,3.693 -40.459,3.582l-0.07,0c-30.426,-0.241 -59.184,-6.923 -84.785,-18.646c-2.917,-1.333 -5.8,-2.738 -8.648,-4.213c0.159,-0.051 6.096,-1.915 15.93,-5.585c18.318,-6.868 36.273,-14.668 53.795,-23.37c24.626,17.648 54.186,27.12 84.483,27.072c17.163,0 33.631,-2.977 48.92,-8.442c3.888,-1.39 7.714,-2.947 11.469,-4.666Z" style="fill:#058183;fill-rule:nonzero;"/><path d="M201.52,123.023l-11.13,0c-38.984,0 -70.586,24.482 -70.586,54.68l-0,21.774c-0,-3.708 0.485,-7.329 1.414,-10.825c1.028,-3.834 2.559,-7.516 4.552,-10.949c3.477,-6.039 8.362,-11.485 14.328,-16.094c12.484,-9.637 29.706,-15.597 48.723,-15.597c35.983,0 65.534,21.331 68.735,48.552c0.225,1.911 0.318,3.836 0.279,5.76c28.416,-46.238 -18.319,-77.301 -56.315,-77.301Z" style="fill:url(#_Linear9);fill-rule:nonzero;"/><path d="M133.708,11.712c5.154,-1.111 10.354,-1.993 15.586,-2.644c5.241,-0.598 10.505,-0.971 15.778,-1.119c5.278,-0.12 10.556,0.01 15.821,0.33l3.947,0.304c0.659,0.044 1.315,0.117 1.971,0.187l3.938,0.418l3.924,0.527c0.656,0.088 1.309,0.171 1.959,0.285c20.868,3.224 41.216,9.982 59.805,20.069c2.337,1.237 4.606,2.597 6.889,3.928l3.366,2.098l0.844,0.527l0.824,0.548l1.651,1.097l1.652,1.1l1.617,1.151l1.616,1.147l0.809,0.577l0.789,0.599l3.164,2.4l3.084,2.498l0.77,0.628l0.749,0.646l1.502,1.297c0.498,0.434 1.005,0.862 1.5,1.303l2.916,2.694l0.729,0.672c0.241,0.228 0.472,0.466 0.707,0.698l2.818,2.799c3.686,3.806 7.162,7.809 10.414,11.992c3.22,4.214 6.173,8.626 8.841,13.209l1.949,3.468l1.798,3.551l0.447,0.884l0.412,0.907l0.818,1.813l0.817,1.816l1.471,3.697l0.368,0.925l0.326,0.939l1.3,3.765l1.122,3.82l0.279,0.954c0.089,0.321 0.159,0.644 0.241,0.967l0.466,1.934l0.466,1.937c0.14,0.647 0.254,1.3 0.381,1.953l0.371,1.956c0.126,0.649 0.253,1.299 0.351,1.959c0.833,5.246 1.254,10.55 1.259,15.862c-0.013,1.329 -0.051,2.654 -0.076,3.979l-0.022,0.992l-0.01,0.498l-0.032,0.494l-0.123,1.988c-0.086,1.322 -0.143,2.647 -0.301,3.962c-0.14,1.319 -0.26,2.641 -0.419,3.956l-0.57,3.937c-0.051,0.327 -0.086,0.657 -0.149,0.983l-0.181,0.977l-0.361,1.955c-0.127,0.65 -0.238,1.306 -0.371,1.953l-0.441,1.94l-0.437,1.94c-0.08,0.324 -0.143,0.65 -0.229,0.967l-0.256,0.961c-0.346,1.28 -0.676,2.564 -1.034,3.838l-1.173,3.801c-1.642,5.039 -3.562,9.983 -5.75,14.811c-2.213,4.812 -4.667,9.511 -7.351,14.078c-2.68,4.564 -5.576,8.998 -8.68,13.285c-1.521,2.165 -3.148,4.251 -4.755,6.353l-2.479,3.094c-0.409,0.52 -0.837,1.02 -1.265,1.528l-1.277,1.515l-1.281,1.512l-2.631,2.967l-0.656,0.742l-0.672,0.729l-2.695,2.907l-2.754,2.85c-3.697,3.774 -7.507,7.436 -11.425,10.981c-3.922,3.534 -7.934,6.968 -12.03,10.299c-2.064,1.645 -4.118,3.306 -6.22,4.904c-2.085,1.617 -4.192,3.205 -6.321,4.764c-4.252,3.125 -8.57,6.158 -12.952,9.098c-8.774,5.86 -17.756,11.401 -26.93,16.611c-4.582,2.608 -9.206,5.143 -13.868,7.605c-4.666,2.453 -9.368,4.837 -14.104,7.151c4.701,-2.38 9.377,-4.818 14.005,-7.335c4.638,-2.504 9.235,-5.081 13.79,-7.735c9.104,-5.303 18.037,-10.905 26.733,-16.851c4.351,-2.967 8.64,-6.024 12.863,-9.171c2.108,-1.576 4.207,-3.17 6.274,-4.8c2.083,-1.61 4.118,-3.277 6.165,-4.932c4.062,-3.349 8.042,-6.795 11.936,-10.338c3.883,-3.551 7.661,-7.217 11.326,-10.993l2.726,-2.853l2.666,-2.907l0.666,-0.726l0.65,-0.742l1.303,-1.483l1.299,-1.484l1.268,-1.512l1.265,-1.512c0.422,-0.504 0.846,-1.005 1.249,-1.525l2.457,-3.084c1.591,-2.092 3.202,-4.172 4.704,-6.328c3.07,-4.267 5.932,-8.679 8.578,-13.222c2.651,-4.535 5.07,-9.2 7.25,-13.979c2.151,-4.789 4.045,-9.689 5.671,-14.681l1.16,-3.762c0.352,-1.262 0.679,-2.533 1.018,-3.801l0.253,-0.951c0.089,-0.317 0.149,-0.641 0.226,-0.958l0.431,-1.917l0.434,-1.921c0.13,-0.641 0.241,-1.287 0.361,-1.931l0.355,-1.937l0.181,-0.967c0.063,-0.32 0.095,-0.646 0.146,-0.973l0.558,-3.893c0.155,-1.303 0.272,-2.609 0.409,-3.915c0.158,-1.299 0.212,-2.612 0.295,-3.921l0.12,-1.965l0.032,-0.489l0.009,-0.494l0.022,-0.983c0.023,-1.312 0.057,-2.621 0.07,-3.934c-0.014,-5.241 -0.429,-10.474 -1.239,-15.653c-0.095,-0.65 -0.222,-1.29 -0.343,-1.937l-0.364,-1.931c-0.127,-0.64 -0.238,-1.287 -0.374,-1.927l-0.46,-1.908l-0.463,-1.912c-0.079,-0.317 -0.146,-0.637 -0.234,-0.954l-0.273,-0.945l-1.106,-3.772l-1.278,-3.718c-0.108,-0.308 -0.209,-0.622 -0.32,-0.929l-0.365,-0.913l-0.722,-1.829l-0.729,-1.826l-0.806,-1.791l-0.808,-1.791l-0.406,-0.897l-0.44,-0.878l-1.772,-3.513l-1.925,-3.43c-2.641,-4.533 -5.555,-8.902 -8.727,-13.082c-3.208,-4.154 -6.64,-8.13 -10.28,-11.91l-2.786,-2.783c-0.232,-0.232 -0.46,-0.469 -0.698,-0.695l-0.719,-0.672l-1.443,-1.341l-1.439,-1.34c-0.491,-0.438 -0.992,-0.863 -1.487,-1.294l-1.486,-1.293l-0.742,-0.647l-0.761,-0.621l-3.056,-2.489l-3.132,-2.39l-0.783,-0.596l-0.799,-0.574l-1.6,-1.144l-1.604,-1.151l-1.633,-1.1l-1.636,-1.1l-0.818,-0.548l-0.83,-0.526l-3.335,-2.102c-2.26,-1.334 -4.511,-2.694 -6.828,-3.934l-1.725,-0.951c-0.577,-0.314 -1.169,-0.605 -1.749,-0.91l-1.753,-0.903c-0.587,-0.295 -1.164,-0.609 -1.76,-0.888l-3.557,-1.702c-0.589,-0.292 -1.198,-0.545 -1.794,-0.815l-1.804,-0.799c-0.602,-0.263 -1.195,-0.542 -1.803,-0.795l-1.82,-0.752l-1.823,-0.751c-0.304,-0.123 -0.608,-0.253 -0.913,-0.371l-0.922,-0.348l-3.687,-1.402l-3.721,-1.306c-1.233,-0.45 -2.495,-0.827 -3.744,-1.23c-1.255,-0.399 -2.504,-0.811 -3.769,-1.16c-1.265,-0.361 -2.527,-0.738 -3.792,-1.09l-3.819,-0.989l-0.955,-0.248l-0.96,-0.218l-1.921,-0.444l-1.921,-0.441c-0.644,-0.139 -1.29,-0.263 -1.934,-0.396l-1.934,-0.387c-0.646,-0.123 -1.287,-0.272 -1.936,-0.374l-3.89,-0.672c-0.647,-0.12 -1.297,-0.209 -1.95,-0.301l-3.905,-0.564l-1.962,-0.225l-1.959,-0.229c-0.653,-0.072 -1.306,-0.155 -1.963,-0.206l-3.93,-0.339c-5.25,-0.38 -10.514,-0.539 -15.777,-0.478c-5.266,0.101 -10.525,0.412 -15.762,0.96c-5.227,0.583 -10.435,1.395 -15.602,2.438Z" style="fill:url(#_Linear10);fill-rule:nonzero;"/></g></g><defs><linearGradient id="_Linear2" x1="0" y1="0" x2="1" y2="0" gradientUnits="userSpaceOnUse" gradientTransform="matrix(154.262,162.608,-162.608,154.262,163.471,2819.46)"><stop offset="0" style="stop-color:#215f6c;stop-opacity:1"/><stop offset="1" style="stop-color:#1ed7dd;stop-opacity:1"/></linearGradient><linearGradient id="_Linear3" x1="0" y1="0" x2="1" y2="0" gradientUnits="userSpaceOnUse" gradientTransform="matrix(173.266,270.015,-270.015,173.266,133.866,2781.57)"><stop offset="0" style="stop-color:#5cafb7;stop-opacity:1"/><stop offset="0.38" style="stop-color:#5cafb7;stop-opacity:1"/><stop offset="0.89" style="stop-color:#3a7e7d;stop-opacity:1"/><stop offset="1" style="stop-color:#3a7e7d;stop-opacity:1"/></linearGradient><linearGradient id="_Linear4" x1="0" y1="0" x2="1" y2="0" gradientUnits="userSpaceOnUse" gradientTransform="matrix(149.035,0,0,149.035,115.432,2873.19)"><stop offset="0" style="stop-color:#23969b;stop-opacity:1"/><stop offset="1" style="stop-color:#367e7b;stop-opacity:1"/></linearGradient><linearGradient id="_Linear5" x1="0" y1="0" x2="1" y2="0" gradientUnits="userSpaceOnUse" gradientTransform="matrix(2.70856e-15,44.2342,-44.2342,2.70856e-15,188.441,2869.95)"><stop offset="0" style="stop-color:#38818c;stop-opacity:1"/><stop offset="1" style="stop-color:#6dc7d0;stop-opacity:1"/></linearGradient><linearGradient id="_Linear6" x1="0" y1="0" x2="1" y2="0" gradientUnits="userSpaceOnUse" gradientTransform="matrix(99.4081,170.502,-170.502,99.4081,175.612,2807.33)"><stop offset="0" style="stop-color:#206e78;stop-opacity:1"/><stop offset="0.52" style="stop-color:#206e78;stop-opacity:1"/><stop offset="1" style="stop-color:#76cbd0;stop-opacity:1"/></linearGradient><linearGradient id="_Linear7" x1="0" y1="0" x2="1" y2="0" gradientUnits="userSpaceOnUse" gradientTransform="matrix(292.315,-319.79,319.79,292.315,32.4894,2737.29)"><stop offset="0" style="stop-color:#206270;stop-opacity:1"/><stop offset="1" style="stop-color:#0ca19f;stop-opacity:1"/></linearGradient><linearGradient id="_Linear8" x1="0" y1="0" x2="1" y2="0" gradientUnits="userSpaceOnUse" gradientTransform="matrix(2.23392e-14,364.826,-364.826,2.23392e-14,251.758,2438.79)"><stop offset="0" style="stop-color:#8ed4d6;stop-opacity:1"/><stop offset="1" style="stop-color:#0fa9ab;stop-opacity:1"/></linearGradient><linearGradient id="_Linear9" x1="0" y1="0" x2="1" y2="0" gradientUnits="userSpaceOnUse" gradientTransform="matrix(146.622,0,0,146.622,119.804,2599.79)"><stop offset="0" style="stop-color:#1d636f;stop-opacity:1"/><stop offset="1" style="stop-color:#0f9d9e;stop-opacity:1"/></linearGradient><linearGradient id="_Linear10" x1="0" y1="0" x2="1" y2="0" gradientUnits="userSpaceOnUse" gradientTransform="matrix(1.87239e-14,305.785,-305.785,1.87239e-14,231.017,2446.02)"><stop offset="0" style="stop-color:#1f6472;stop-opacity:1"/><stop offset="1" style="stop-color:#63c0c8;stop-opacity:1"/></linearGradient></defs></svg>