<?xml version="1.0" encoding="UTF-8" standalone="no"?><!DOCTYPE svg PUBLIC "-//W3C//DTD SVG 1.1//EN" "http://www.w3.org/Graphics/SVG/1.1/DTD/svg11.dtd"><svg width="100%" height="100%" viewBox="0 0 458 688" version="1.1" xmlns="http://www.w3.org/2000/svg" xmlns:xlink="http://www.w3.org/1999/xlink" xml:space="preserve" xmlns:serif="http://www.serif.com/" style="fill-rule:evenodd;clip-rule:evenodd;stroke-linejoin:round;stroke-miterlimit:2;"><rect id="Artboard1" x="0" y="0" width="458.828" height="688.372" style="fill:none;"/><clipPath id="_clip1"><rect id="Artboard11" serif:id="Artboard1" x="0" y="0" width="458.828" height="688.372"/></clipPath><g clip-path="url(#_clip1)"><g><path d="M229.284,344.63c-0,-63.242 51.27,-114.772 114.772,-114.772c63.242,0 114.772,51.27 114.772,114.772c-0,63.242 -51.27,114.772 -114.772,114.772c-63.242,0 -114.772,-51.53 -114.772,-114.772Z" style="fill:#1abcfe;fill-rule:nonzero;"/><path d="M0,573.914c0,-63.242 51.27,-114.772 114.772,-114.772l114.772,-0l0,114.772c0,63.242 -51.27,114.772 -114.772,114.772c-63.502,-0 -114.772,-51.27 -114.772,-114.772Z" style="fill:#0acf83;fill-rule:nonzero;"/><path d="M229.284,0.314l-0,229.544l114.772,0c63.242,0 114.772,-51.27 114.772,-114.772c-0,-63.242 -51.27,-114.772 -114.772,-114.772l-114.772,0Z" style="fill:#ff7262;fill-rule:nonzero;"/><path d="M0,115.346c0,63.242 51.27,114.772 114.772,114.772l114.772,0l0,-229.544l-114.772,0c-63.502,0 -114.772,51.27 -114.772,114.772Z" style="fill:#f24e1e;fill-rule:nonzero;"/><path d="M0,344.63c0,63.242 51.27,114.772 114.772,114.772l114.772,0l0,-229.544l-114.772,0c-63.502,0 -114.772,51.53 -114.772,114.772Z" style="fill:#a259ff;fill-rule:nonzero;"/></g></g></svg>