<?xml version="1.0" encoding="UTF-8" standalone="no"?>
<!DOCTYPE svg PUBLIC "-//W3C//DTD SVG 1.1//EN" "http://www.w3.org/Graphics/SVG/1.1/DTD/svg11.dtd">
<svg width="100%" height="100%" viewBox="0 0 1231 587" version="1.1" xmlns="http://www.w3.org/2000/svg"
    xmlns:xlink="http://www.w3.org/1999/xlink" xml:space="preserve" xmlns:serif="http://www.serif.com/"
    style="fill-rule:evenodd;clip-rule:evenodd;stroke-linejoin:round;stroke-miterlimit:2;">
    <g transform="matrix(1,0,0,1,-149,-11745)">
        <g transform="matrix(1,0,0,1,-4500.18,-8.29805)">
            <g id="Logo">
                <g transform="matrix(0.866479,0,0,0.866479,4325.47,9922.8)">
                    <g transform="matrix(1,0,0,1,-4698.41,1222.31)">
                        <path
                            d="M5335.07,1438.53C5326.99,1442.62 5318.87,1446.67 5310.75,1450.67C5275.17,1513.26 5247.14,1560.33 5247.14,1560.33C5245.79,1562.5 5246.45,1565.35 5248.62,1566.7C5250.79,1568.05 5253.64,1567.39 5254.99,1565.22C5254.99,1565.22 5291.45,1509.25 5335.07,1438.53ZM5228.64,1003.52C5223.83,1014.33 5218.99,1025.83 5214.15,1037.88C5215.81,1053.4 5218.21,1070.31 5221.1,1088.09C5227.64,1128.41 5236.81,1172.94 5246.18,1215.68C5268.21,1316.2 5291.97,1406.36 5291.97,1406.36C5292.73,1408.8 5291.38,1411.39 5288.94,1412.16C5286.5,1412.92 5283.9,1411.57 5283.14,1409.13C5283.14,1409.13 5250.98,1321.07 5222.35,1221.72C5210.53,1180.71 5199.48,1137.81 5191.25,1098.49C5130.05,1269.66 5073.92,1495.44 5073.92,1495.44C5070.7,1508.43 5075.08,1522.14 5085.25,1530.85C5095.41,1539.57 5109.62,1541.81 5121.98,1536.65C5121.98,1536.65 5216.03,1497.32 5310.75,1450.67C5341.32,1396.89 5377.48,1331.63 5406.21,1274.96C5416.71,1254.25 5426.22,1234.71 5434.05,1217.35C5407.39,1211.44 5377.37,1208.07 5353.69,1206.17C5355.17,1198.69 5356.77,1190.41 5358.44,1181.52C5343.58,1188.25 5333.38,1193.53 5333.38,1193.53C5329.42,1195.5 5324.81,1195.7 5320.69,1194.1C5316.57,1192.5 5313.31,1189.24 5311.72,1185.11C5311.72,1185.11 5283.99,1116.23 5254.52,1054.42C5245.79,1036.12 5236.97,1018.43 5228.64,1003.52ZM5457.86,1223.7C5448.92,1242.12 5437.9,1263.04 5425.6,1285.24C5398.39,1334.38 5365.04,1389.94 5335.07,1438.53C5362.6,1424.6 5389.51,1410.26 5413.45,1396.34C5450.25,1374.95 5480.34,1354.05 5497.08,1336.88C5508.88,1324.79 5515.47,1313 5518.12,1303.24C5526.54,1272.13 5508.22,1242.19 5464.98,1226.16C5462.68,1225.31 5460.31,1224.49 5457.86,1223.7ZM5364.79,1146.22C5362.65,1158.68 5360.49,1170.56 5358.44,1181.52C5374.5,1174.24 5396.01,1165.27 5415.95,1159.44C5427.85,1155.96 5439.08,1153.48 5447.95,1153.69C5450.17,1153.74 5452.18,1153.89 5453.91,1154.43C5454.52,1154.62 5455.31,1154.39 5455.49,1154.98C5456.58,1158.56 5454.32,1165.16 5451.31,1174.39C5447.48,1186.14 5441.53,1200.75 5434.05,1217.35C5442.41,1219.2 5450.46,1221.31 5457.86,1223.7C5465.49,1208 5471.61,1194.12 5475.73,1182.81C5481.69,1166.43 5482.97,1154.06 5481.23,1147.58C5477.28,1133 5462.98,1125.24 5441.53,1126.14C5420.05,1127.04 5389.81,1136.71 5364.79,1146.22ZM5247.01,965.488C5249.24,968.921 5251.51,972.612 5253.8,976.533C5283.84,1028.02 5320.95,1121.49 5335.14,1158.3C5343.05,1154.88 5353.38,1150.57 5364.79,1146.22C5376.38,1078.99 5387.67,995.131 5381.46,950.989C5374.92,904.583 5347.86,887.595 5320.22,891.965C5310.01,893.578 5298.79,898.542 5287.69,908.349C5275.15,919.439 5261.08,939.101 5247.01,965.488ZM5191.25,1098.49C5198.84,1077.27 5206.5,1056.89 5214.15,1037.88C5212.36,1021.28 5211.42,1006.27 5211.6,993.526C5211.69,987.703 5211.99,982.41 5212.61,977.733C5217.61,984.613 5223.01,993.432 5228.64,1003.52C5233.01,993.693 5237.36,984.418 5241.67,975.817C5243.45,972.268 5245.23,968.822 5247.01,965.488C5240.36,955.278 5234.06,947.348 5228.66,942.416C5220.02,934.517 5211.49,932.365 5205,933.122C5199.28,933.789 5193.9,936.301 5189.42,941.734C5183.44,949.053 5178.91,961.295 5177.64,977.951C5175.57,1005.17 5180.64,1046.82 5190.27,1093.76C5190.59,1095.33 5190.92,1096.9 5191.25,1098.49Z"
                            style="fill:rgb(241,152,184);" />
                    </g>
                    <g transform="matrix(0.60923,0,0,1.03824,-194.77,439.382)">
                        <path
                            d="M1163.72,1695.82C1184.02,1712.24 1208.49,1740.13 1232.5,1769.68C1280.88,1829.22 1326.39,1895.56 1326.39,1895.56C1329,1899.53 1334.35,1902.67 1341.11,1904.22C1347.88,1905.76 1355.44,1905.56 1361.94,1903.66C1361.94,1903.66 1434.5,1881.63 1497.48,1870.84C1517.01,1867.49 1535.45,1865.1 1550,1865.29C1553.64,1865.34 1556.95,1865.49 1559.78,1866.01C1560.79,1866.19 1562.08,1865.97 1562.38,1866.54C1564.17,1869.98 1560.45,1876.34 1555.52,1885.23C1542.66,1908.4 1515.2,1943.08 1481.49,1982.1C1379.5,2100.16 1220.39,2256.96 1220.39,2256.96C1218.17,2259.05 1219.26,2261.8 1222.82,2263.1C1226.38,2264.4 1231.07,2263.76 1233.28,2261.67C1233.28,2261.67 1403.64,2108.2 1513.32,1992C1550.69,1952.4 1580.89,1917.03 1595.59,1893.34C1605.38,1877.56 1607.49,1865.65 1604.62,1859.4C1598.15,1845.37 1574.68,1837.9 1539.47,1838.76C1488.11,1840.02 1406.28,1859.2 1364.84,1869.74C1341.54,1834.28 1280.63,1744.25 1231.32,1694.66C1216.39,1679.65 1201.9,1668.15 1190.06,1661.8C1175.88,1654.19 1161.87,1652.12 1151.22,1652.85C1141.83,1653.49 1133,1655.91 1125.65,1661.14C1115.83,1668.19 1108.39,1679.99 1106.31,1696.03C1102.91,1722.24 1111.23,1762.36 1127.04,1807.57C1140.71,1846.67 1159.52,1889.73 1179.7,1930.82C1226.7,2026.51 1279.48,2111.33 1279.48,2111.33C1280.73,2113.67 1285,2114.98 1289,2114.24C1293,2113.51 1295.23,2111.01 1293.97,2108.66C1293.97,2108.66 1254.98,2021.82 1218.81,1925C1203.43,1883.83 1188.39,1840.94 1177.64,1802.11C1167.84,1766.67 1161.47,1734.78 1162.06,1711.03C1162.2,1705.42 1162.7,1700.32 1163.72,1695.82Z"
                            style="fill:rgb(36,19,95);" />
                    </g>
                </g>
                <g transform="matrix(0.647357,0,0,2.44647,4551.02,7134.74)">
                    <path
                        d="M1068.52,2085.79C1062.91,2085.79 1057.35,2085.66 1051.82,2085.4C1046.29,2085.14 1042.62,2084.94 1040.8,2084.81C1030.81,2084.28 1023.46,2084.02 1018.77,2084.02C1015.74,2084.02 1011.65,2084.28 1006.5,2084.81C1000.75,2085.33 995.75,2085.6 991.51,2085.6C987.269,2085.6 983.9,2084.84 981.401,2083.33C978.902,2081.82 977.653,2079.68 977.653,2076.91C977.653,2074.55 978.183,2072.74 979.243,2071.49C980.303,2070.24 982.045,2068.82 984.468,2067.25C986.739,2065.8 988.67,2064.48 990.26,2063.3C991.85,2062.12 993.478,2060.54 995.144,2058.56C997.719,2055.54 999.536,2050.8 1000.6,2044.36C1001.66,2037.91 1002.19,2030.02 1002.19,2020.68L1002.19,2001.54C1002.19,1992.19 1001.66,1984.3 1000.6,1977.86C999.536,1971.41 997.719,1966.67 995.144,1963.65C993.478,1961.67 991.85,1960.1 990.26,1958.91C988.67,1957.73 986.739,1956.41 984.468,1954.97C982.045,1953.39 980.303,1951.97 979.243,1950.72C978.183,1949.47 977.653,1947.66 977.653,1945.3C977.653,1942.66 978.902,1940.56 981.401,1938.98C983.9,1937.4 987.269,1936.61 991.51,1936.61C993.175,1936.61 997.719,1937.21 1005.14,1938.39C1019.07,1940.76 1030.13,1941.94 1038.3,1941.94C1042.39,1941.94 1046.22,1941.61 1049.78,1940.95C1053.34,1940.3 1057.69,1939.31 1062.84,1938C1068.59,1936.55 1073.29,1935.5 1076.92,1934.84C1080.56,1934.18 1084.57,1933.85 1088.96,1933.85C1101.08,1933.85 1110.84,1936.61 1118.26,1942.14C1125.68,1947.66 1129.39,1954.97 1129.39,1964.04C1129.39,1973.78 1126.78,1981.44 1121.56,1987.03C1116.33,1992.62 1109.03,1997.52 1099.64,2001.73C1098.73,2002.13 1098.27,2002.59 1098.27,2003.11C1098.27,2003.64 1098.95,2003.9 1100.32,2003.9C1110.46,2004.17 1118.76,2007.49 1125.19,2013.87C1131.63,2020.25 1134.85,2028.63 1134.85,2039.03C1134.85,2048.24 1132.08,2056.39 1126.56,2063.5C1121.03,2070.6 1113.27,2076.09 1103.27,2079.97C1093.28,2083.85 1081.69,2085.79 1068.52,2085.79ZM1033.99,1979.63C1032.62,1983.97 1031.94,1988.18 1031.94,1992.26C1031.94,1995.94 1032.55,1999.1 1033.76,2001.73C1034.97,2004.36 1036.64,2006.14 1038.76,2007.06C1039.97,2007.59 1041.71,2007.85 1043.98,2007.85C1049.74,2007.85 1056.7,2006.01 1064.88,2002.32C1073.06,1998.64 1080.1,1993.94 1086.01,1988.22C1091.91,1982.49 1094.87,1976.61 1094.87,1970.56C1094.87,1966.08 1092.82,1962.56 1088.73,1960C1084.64,1957.43 1079.42,1956.15 1073.06,1956.15C1070.94,1956.15 1068.59,1956.35 1066.02,1956.74C1058.14,1957.92 1051.33,1960.52 1045.57,1964.54C1039.82,1968.55 1035.96,1973.58 1033.99,1979.63ZM1037.62,2063.69C1039.44,2065.53 1041.9,2066.95 1045.01,2067.94C1048.11,2068.92 1051.63,2069.42 1055.57,2069.42C1060.87,2069.42 1066.25,2068.56 1071.7,2066.85C1077.15,2065.14 1081.77,2062.64 1085.55,2059.35C1090.25,2055.27 1093.77,2051.13 1096.12,2046.92C1098.46,2042.71 1099.64,2038.7 1099.64,2034.88C1099.64,2031.73 1098.84,2028.9 1097.25,2026.4C1095.66,2023.9 1093.43,2021.93 1090.55,2020.48C1085.86,2018.24 1080.48,2017.12 1074.42,2017.12C1069.58,2017.12 1064.54,2017.82 1059.32,2019.2C1054.09,2020.58 1049.06,2022.58 1044.21,2025.22C1039.97,2027.58 1036.83,2030.67 1034.78,2034.49C1032.74,2038.3 1031.72,2042.38 1031.72,2046.72C1031.72,2050.01 1032.25,2053.17 1033.31,2056.2C1034.37,2059.22 1035.81,2061.72 1037.62,2063.69Z"
                        style="fill:rgb(188,40,73);fill-rule:nonzero;" />
                    <path
                        d="M1304.08,2085.79C1295.45,2085.79 1288.44,2084.31 1283.07,2081.36C1277.69,2078.39 1273.53,2074.74 1270.57,2070.4C1267.62,2066.06 1264.48,2060.34 1261.15,2053.24C1257.66,2045.87 1254.44,2040.15 1251.49,2036.07C1248.54,2031.99 1244.56,2028.83 1239.57,2026.6C1235.93,2025.15 1233.21,2024.42 1231.39,2024.42C1227.45,2024.42 1225.48,2027.19 1225.48,2032.71C1225.48,2037.19 1226.05,2041.96 1227.19,2047.02C1228.32,2052.08 1230.03,2055.93 1232.3,2058.56C1233.96,2060.54 1235.59,2062.12 1237.18,2063.3C1238.77,2064.48 1240.7,2065.8 1242.97,2067.25C1245.4,2068.82 1247.14,2070.24 1248.2,2071.49C1249.26,2072.74 1249.79,2074.55 1249.79,2076.91C1249.79,2079.55 1248.54,2081.65 1246.04,2083.23C1243.54,2084.81 1240.17,2085.6 1235.93,2085.6C1232.9,2085.6 1228.51,2085.33 1222.76,2084.81C1216.7,2084.28 1212,2084.02 1208.67,2084.02C1205.64,2084.02 1201.56,2084.28 1196.41,2084.81C1190.65,2085.33 1185.65,2085.6 1181.41,2085.6C1177.17,2085.6 1173.8,2084.81 1171.31,2083.23C1168.81,2081.65 1167.56,2079.55 1167.56,2076.91C1167.56,2074.55 1168.09,2072.74 1169.15,2071.49C1170.21,2070.24 1171.95,2068.82 1174.37,2067.25C1176.64,2065.8 1178.57,2064.48 1180.16,2063.3C1181.76,2062.12 1183.38,2060.54 1185.05,2058.56C1187.62,2055.54 1189.44,2050.8 1190.5,2044.36C1191.56,2037.91 1192.09,2030.02 1192.09,2020.68L1192.09,2001.54C1192.09,1992.19 1191.56,1984.3 1190.5,1977.86C1189.44,1971.41 1187.62,1966.67 1185.05,1963.65C1182.93,1961.28 1179.75,1958.25 1175.51,1954.57C1173.39,1952.73 1171.91,1951.32 1171.08,1950.33C1170.25,1949.34 1169.83,1947.93 1169.83,1946.09C1169.83,1943.19 1171.08,1940.89 1173.58,1939.18C1176.08,1937.47 1179.44,1936.61 1183.68,1936.61C1185.35,1936.61 1191.64,1937.4 1202.54,1938.98C1216.47,1940.95 1225.03,1941.94 1228.21,1941.94C1232.3,1941.94 1236.16,1941.61 1239.79,1940.95C1243.43,1940.3 1248.12,1939.31 1253.88,1938C1260.24,1936.55 1265.27,1935.5 1268.98,1934.84C1272.69,1934.18 1276.75,1933.85 1281.14,1933.85C1287.8,1933.85 1294.24,1935.17 1300.44,1937.8C1306.65,1940.43 1311.73,1944.05 1315.66,1948.65C1319.6,1953.26 1321.57,1958.39 1321.57,1964.04C1321.57,1976.28 1316.72,1987.03 1307.03,1996.31C1297.34,2005.58 1280.38,2012.52 1256.15,2017.12C1265.99,2017.39 1273.87,2019.43 1279.77,2023.24C1285.68,2027.06 1290.03,2031.37 1292.84,2036.17C1295.64,2040.97 1298.33,2046.99 1300.9,2054.22C1302.72,2059.35 1304.34,2063.07 1305.78,2065.37C1307.22,2067.67 1309.15,2068.82 1311.58,2068.82C1315.66,2068.82 1317.71,2066.52 1317.71,2061.92C1317.71,2055.21 1313.62,2044.55 1305.44,2029.95C1304.08,2027.58 1303.4,2025.15 1303.4,2022.65C1303.4,2018.57 1305.25,2015.15 1308.96,2012.39C1312.67,2009.63 1318.01,2008.24 1324.98,2008.24C1332.7,2008.24 1338.76,2010.35 1343.15,2014.56C1347.54,2018.77 1349.74,2024.82 1349.74,2032.71C1349.74,2051.79 1345.76,2065.4 1337.81,2073.56C1329.86,2081.72 1318.62,2085.79 1304.08,2085.79ZM1225.26,2001.54C1225.26,2003.25 1225.6,2004.36 1226.28,2004.89C1226.96,2005.42 1228.13,2005.55 1229.8,2005.28C1245.7,2003.31 1259.22,1999.36 1270.35,1993.44C1281.48,1987.53 1287.04,1979.89 1287.04,1970.56C1287.04,1966.08 1285,1962.56 1280.91,1960C1276.82,1957.43 1271.6,1956.15 1265.24,1956.15C1263.12,1956.15 1260.77,1956.35 1258.19,1956.74C1248.35,1958.32 1241.08,1960.92 1236.39,1964.54C1231.69,1968.15 1228.66,1972.76 1227.3,1978.35C1225.94,1983.94 1225.26,1991.67 1225.26,2001.54Z"
                        style="fill:rgb(188,40,73);fill-rule:nonzero;" />
                    <path
                        d="M1525.56,2084.61C1515.11,2084.61 1506.55,2080.47 1499.89,2072.18C1493.23,2063.89 1488.84,2052.05 1486.71,2036.66C1486.56,2035.08 1485.96,2034.29 1484.9,2034.29C1484.59,2034.29 1484.18,2034.49 1483.65,2034.88C1483.12,2035.28 1482.7,2035.87 1482.4,2036.66C1477.4,2046.26 1470.06,2054.98 1460.36,2062.81C1450.67,2070.63 1440.18,2076.75 1428.9,2081.16C1417.62,2085.56 1407.44,2087.77 1398.35,2087.77C1391.23,2087.77 1385.48,2086.39 1381.09,2083.62C1374.57,2079.28 1371.32,2073.03 1371.32,2064.88C1371.32,2055.93 1374.91,2045.61 1382.11,2033.9C1389.3,2022.19 1399.11,2010.74 1411.53,1999.56C1423.94,1988.38 1437.57,1979.04 1452.41,1971.54C1454.23,1970.49 1455.14,1969.57 1455.14,1968.78C1455.14,1967.73 1454.23,1966.81 1452.41,1966.02C1448.48,1964.04 1443.4,1962.53 1437.19,1961.48C1430.99,1960.42 1424.62,1959.9 1418.11,1959.9C1412.81,1959.9 1407.36,1960.36 1401.76,1961.28C1400.55,1961.54 1398.88,1961.67 1396.76,1961.67C1392.82,1961.67 1389.57,1960.92 1386.99,1959.4C1384.42,1957.89 1383.13,1955.82 1383.13,1953.19C1383.13,1950.69 1384.53,1948.12 1387.33,1945.49C1390.13,1942.86 1394.64,1940.63 1400.85,1938.79C1407.06,1936.94 1414.93,1936.02 1424.47,1936.02C1438.1,1936.02 1449.46,1937.31 1458.55,1939.87C1467.63,1942.43 1476.19,1946.74 1484.22,1952.8C1485.43,1953.72 1486.49,1954.18 1487.4,1954.18C1488.15,1954.18 1489.14,1953.85 1490.35,1953.19C1497.62,1949.24 1503.94,1946.22 1509.32,1944.11C1514.69,1942.01 1519.35,1940.95 1523.29,1940.95C1526.62,1940.95 1529.34,1941.81 1531.47,1943.52C1534.34,1945.89 1535.78,1948.32 1535.78,1950.82C1535.78,1952.93 1535.1,1955.13 1533.74,1957.43C1532.37,1959.73 1530.03,1962.99 1526.69,1967.2L1521.7,1973.91C1515.03,1983.38 1511.7,1993.25 1511.7,2003.51C1511.7,2011.93 1513.97,2020.54 1518.52,2029.36C1521.7,2035.54 1524.84,2040.87 1527.94,2045.34C1531.05,2049.82 1534.49,2054.29 1538.28,2058.76C1540.7,2061.79 1542.44,2064.09 1543.5,2065.67C1544.56,2067.25 1545.09,2068.69 1545.09,2070.01C1545.09,2073.69 1543.35,2077.05 1539.87,2080.07C1536.39,2083.1 1531.62,2084.61 1525.56,2084.61ZM1413.34,2053.24C1414.86,2054.16 1416.75,2054.62 1419.02,2054.62C1424.17,2054.62 1430.34,2052.41 1437.54,2048.01C1444.73,2043.6 1451.51,2037.65 1457.87,2030.15C1469.53,2016.34 1475.36,2004.36 1475.36,1994.23C1475.36,1990.55 1474.52,1987.13 1472.86,1983.97C1471.95,1982.53 1470.96,1981.8 1469.9,1981.8C1469.15,1981.8 1468.09,1982.2 1466.72,1982.99C1452.79,1990.75 1440.6,2000.22 1430.15,2011.4C1423.49,2018.64 1418.42,2025.25 1414.93,2031.23C1411.45,2037.22 1409.71,2042.18 1409.71,2046.13C1409.71,2049.29 1410.92,2051.66 1413.34,2053.24Z"
                        style="fill:rgb(188,40,73);fill-rule:nonzero;" />
                    <path
                        d="M1588.25,2084.61C1584.01,2084.61 1580.76,2084.35 1578.49,2083.82C1576.22,2083.3 1574.55,2082.18 1573.49,2080.47C1572.73,2078.89 1572.35,2077.57 1572.35,2076.52C1572.35,2075.07 1572.92,2073.43 1574.06,2071.59C1575.19,2069.74 1577.05,2067.25 1579.62,2064.09L1667.99,1962.07C1669.5,1960.36 1670.26,1959.04 1670.26,1958.12C1670.26,1957.07 1668.59,1956.54 1665.26,1956.54L1649.59,1956.54C1639.29,1956.54 1631.11,1956.97 1625.05,1957.83C1619,1958.68 1614.15,1960.29 1610.52,1962.66C1605.67,1965.82 1603.1,1967.53 1602.79,1967.79C1598.7,1970.82 1595.49,1972.92 1593.14,1974.11C1590.79,1975.29 1588.33,1975.88 1585.76,1975.88C1580.61,1975.88 1578.03,1974.11 1578.03,1970.56C1578.03,1968.45 1578.75,1965.75 1580.19,1962.46C1581.63,1959.17 1583.86,1954.57 1586.89,1948.65C1590.68,1941.55 1594.24,1936.35 1597.57,1933.06C1600.9,1929.77 1604.53,1928.13 1608.47,1928.13C1610.89,1928.13 1612.9,1928.46 1614.49,1929.12C1616.08,1929.77 1617.79,1930.76 1619.6,1932.08C1622.33,1933.92 1624.98,1935.3 1627.55,1936.22C1630.13,1937.14 1633.69,1937.6 1638.23,1937.6L1715.24,1937.6C1720.69,1937.6 1724.7,1938 1727.28,1938.79C1729.85,1939.57 1731.14,1941.22 1731.14,1943.72C1731.14,1945.16 1730.49,1946.81 1729.21,1948.65C1727.92,1950.49 1725.99,1952.86 1723.41,1955.76L1631.19,2059.16C1629.67,2060.87 1628.91,2062.25 1628.91,2063.3C1628.91,2064.88 1630.88,2065.67 1634.82,2065.67L1653.45,2065.67C1666.02,2065.67 1676.92,2064.35 1686.16,2061.72C1695.4,2059.09 1703.58,2053.89 1710.69,2046.13C1715.08,2041.39 1718.34,2038.17 1720.46,2036.46C1722.58,2034.75 1724.62,2033.9 1726.59,2033.9C1727.65,2033.9 1728.64,2034.09 1729.55,2034.49C1732.12,2035.41 1733.67,2037.48 1734.2,2040.71C1734.73,2043.93 1735,2048.5 1735,2054.42C1735,2064.02 1733.94,2070.9 1731.82,2075.04C1729.7,2079.18 1726.29,2081.82 1721.6,2082.93C1716.9,2084.05 1709.25,2084.61 1698.65,2084.61L1588.25,2084.61Z"
                        style="fill:rgb(188,40,73);fill-rule:nonzero;" />
                    <path
                        d="M1787.47,2085.6C1783.23,2085.6 1779.86,2084.81 1777.36,2083.23C1774.86,2081.65 1773.62,2079.55 1773.62,2076.91C1773.62,2074.55 1774.14,2072.74 1775.2,2071.49C1776.27,2070.24 1778.01,2068.82 1780.43,2067.25C1782.7,2065.8 1784.63,2064.48 1786.22,2063.3C1787.81,2062.12 1789.44,2060.54 1791.11,2058.56C1793.68,2055.54 1795.5,2050.8 1796.56,2044.36C1797.62,2037.91 1798.15,2030.02 1798.15,2020.68L1798.15,2001.54C1798.15,1992.19 1797.62,1984.3 1796.56,1977.86C1795.5,1971.41 1793.68,1966.67 1791.11,1963.65C1788.99,1961.28 1785.81,1958.25 1781.57,1954.57C1779.44,1952.73 1777.97,1951.32 1777.14,1950.33C1776.3,1949.34 1775.89,1947.93 1775.89,1946.09C1775.89,1943.19 1777.14,1940.89 1779.63,1939.18C1782.13,1937.47 1785.5,1936.61 1789.74,1936.61C1791.71,1936.61 1793.61,1936.68 1795.42,1936.81C1797.24,1936.94 1798.83,1937.07 1800.19,1937.21C1805.19,1937.86 1810.04,1938.19 1814.73,1938.19C1818.06,1938.19 1822.3,1937.93 1827.45,1937.4C1832.6,1936.88 1836.69,1936.61 1839.72,1936.61C1843.96,1936.61 1847.33,1937.47 1849.83,1939.18C1852.33,1940.89 1853.58,1943.19 1853.58,1946.09C1853.58,1947.93 1853.16,1949.34 1852.33,1950.33C1851.49,1951.32 1850.02,1952.73 1847.9,1954.57C1843.66,1958.25 1840.48,1961.28 1838.36,1963.65C1835.78,1966.67 1833.96,1971.41 1832.9,1977.86C1831.84,1984.3 1831.31,1992.19 1831.31,2001.54L1831.31,2020.68C1831.31,2030.02 1831.84,2037.91 1832.9,2044.36C1833.96,2050.8 1835.78,2055.54 1838.36,2058.56C1840.02,2060.54 1841.65,2062.12 1843.24,2063.3C1844.83,2064.48 1846.76,2065.8 1849.03,2067.25C1851.45,2068.82 1853.2,2070.24 1854.26,2071.49C1855.32,2072.74 1855.85,2074.55 1855.85,2076.91C1855.85,2079.55 1854.6,2081.65 1852.1,2083.23C1849.6,2084.81 1846.23,2085.6 1841.99,2085.6C1838.96,2085.6 1834.57,2085.33 1828.82,2084.81C1822.76,2084.28 1818.06,2084.02 1814.73,2084.02C1811.7,2084.02 1807.61,2084.28 1802.46,2084.81C1796.71,2085.33 1791.71,2085.6 1787.47,2085.6Z"
                        style="fill:rgb(188,40,73);fill-rule:nonzero;" />
                    <path
                        d="M1975.86,2087.37C1960.11,2087.37 1945.68,2083.95 1932.58,2077.11C1919.48,2070.27 1909.15,2061 1901.58,2049.29C1894,2037.58 1890.22,2024.82 1890.22,2011.01C1890.22,1997.33 1894.12,1984.63 1901.92,1972.92C1909.72,1961.21 1920.2,1951.91 1933.38,1945C1946.55,1938.09 1960.71,1934.64 1975.86,1934.64C1982.22,1934.64 1987.52,1934.97 1991.76,1935.63C1996,1936.29 2000.62,1937.27 2005.62,1938.59C2011.07,1940.17 2015.76,1940.95 2019.7,1940.95C2020.46,1940.95 2022.05,1940.82 2024.47,1940.56C2029.47,1939.9 2033.18,1939.57 2035.6,1939.57C2039.23,1939.57 2041.77,1940.23 2043.21,1941.55C2044.65,1942.86 2045.37,1945.16 2045.37,1948.45C2045.37,1952.93 2044.46,1959.64 2042.64,1968.58C2040.82,1977.53 2039.01,1983.05 2037.19,1985.16C2034.77,1987.92 2032.04,1989.3 2029.01,1989.3C2024.77,1989.3 2020.53,1986.41 2016.29,1980.62C2010.08,1971.94 2003.27,1965.39 1995.85,1960.98C1988.43,1956.58 1979.72,1954.37 1969.72,1954.37C1959.88,1954.37 1951.25,1956.84 1943.83,1961.77C1936.41,1966.71 1931.03,1973.19 1927.7,1981.21C1926.79,1983.97 1926.34,1986.21 1926.34,1987.92C1926.34,1990.29 1927.02,1992.03 1928.38,1993.15C1929.74,1994.27 1931.49,1994.99 1933.61,1995.32C1935.73,1995.65 1938.98,1995.94 1943.37,1996.21C1947.31,1996.47 1950.04,1996.6 1951.55,1996.6C1959.73,1996.6 1965.67,1995.78 1969.38,1994.13C1973.09,1992.49 1976.54,1990.16 1979.72,1987.13C1981.54,1985.42 1983.16,1984.17 1984.6,1983.38C1986.04,1982.59 1987.9,1982.2 1990.17,1982.2C1995.77,1982.2 2000.31,1984.63 2003.8,1989.5C2007.28,1994.37 2009.55,2000.35 2010.61,2007.46C2011.22,2011.66 2011.52,2015.94 2011.52,2020.28C2011.52,2030.15 2009.25,2035.67 2004.71,2036.86C2003.95,2037.12 2002.74,2037.25 2001.07,2037.25C1995.47,2037.25 1990.24,2033.37 1985.4,2025.61C1983.13,2021.93 1979.61,2019.23 1974.84,2017.52C1970.06,2015.81 1963.14,2014.95 1954.05,2014.95C1950.41,2014.95 1947.61,2015.02 1945.64,2015.15C1940.35,2015.41 1936.41,2015.97 1933.83,2016.83C1931.26,2017.68 1929.97,2019.56 1929.97,2022.45C1929.97,2024.16 1930.8,2026.79 1932.47,2030.35C1936.26,2038.11 1943.45,2044.42 1954.05,2049.29C1964.65,2054.16 1976.31,2056.59 1989.03,2056.59C1999.18,2056.59 2008.3,2054.55 2016.4,2050.47C2024.51,2046.39 2031.28,2040.93 2036.74,2034.09C2039.16,2031.2 2041.13,2029.1 2042.64,2027.78C2044.16,2026.46 2045.75,2025.81 2047.41,2025.81C2048.47,2025.81 2049.53,2026 2050.59,2026.4C2052.26,2027.19 2053.09,2028.83 2053.09,2031.33C2053.09,2033.57 2052.41,2036.2 2051.05,2039.23C2044.38,2053.56 2034.92,2065.17 2022.65,2074.05C2010.38,2082.93 1994.79,2087.37 1975.86,2087.37Z"
                        style="fill:rgb(188,40,73);fill-rule:nonzero;" />
                </g>
            </g>
        </g>
    </g>
</svg>